<svg xmlns="http://www.w3.org/2000/svg" xmlns:rdkit="http://www.rdkit.org/xml" xmlns:xlink="http://www.w3.org/1999/xlink" version="1.1" baseProfile="full" xml:space="preserve" width="750px" height="750px" viewBox="0 0 750 750">
<!-- END OF HEADER -->
<rect style="opacity:1.0;fill:#FFFFFF;stroke:none" width="750.0" height="750.0" x="0.0" y="0.0"> </rect>
<path class="bond-0 atom-0 atom-1" d="M 54.5,140.5 L 34.2,130.1" style="fill:none;fill-rule:evenodd;stroke:#000000;stroke-width:2.0px;stroke-linecap:butt;stroke-linejoin:miter;stroke-opacity:1"/>
<path class="bond-1 atom-1 atom-2" d="M 34.2,130.1 L 17.0,121.3" style="fill:none;fill-rule:evenodd;stroke:#000000;stroke-width:2.0px;stroke-linecap:butt;stroke-linejoin:miter;stroke-opacity:1"/>
<path class="bond-1 atom-1 atom-2" d="M 29.5,132.9 L 14.9,125.4" style="fill:none;fill-rule:evenodd;stroke:#000000;stroke-width:2.0px;stroke-linecap:butt;stroke-linejoin:miter;stroke-opacity:1"/>
<path class="bond-1 atom-1 atom-2" d="M 33.7,124.7 L 19.1,117.2" style="fill:none;fill-rule:evenodd;stroke:#000000;stroke-width:2.0px;stroke-linecap:butt;stroke-linejoin:miter;stroke-opacity:1"/>
<path class="bond-2 atom-0 atom-3" d="M 54.5,140.5 L 73.7,128.1" style="fill:none;fill-rule:evenodd;stroke:#000000;stroke-width:2.0px;stroke-linecap:butt;stroke-linejoin:miter;stroke-opacity:1"/>
<path class="bond-3 atom-3 atom-4" d="M 71.5,128.2 L 70.5,109.5" style="fill:none;fill-rule:evenodd;stroke:#000000;stroke-width:2.0px;stroke-linecap:butt;stroke-linejoin:miter;stroke-opacity:1"/>
<path class="bond-3 atom-3 atom-4" d="M 76.0,128.0 L 75.1,109.3" style="fill:none;fill-rule:evenodd;stroke:#000000;stroke-width:2.0px;stroke-linecap:butt;stroke-linejoin:miter;stroke-opacity:1"/>
<path class="bond-4 atom-3 atom-5" d="M 73.7,128.1 L 90.9,136.9" style="fill:none;fill-rule:evenodd;stroke:#000000;stroke-width:2.0px;stroke-linecap:butt;stroke-linejoin:miter;stroke-opacity:1"/>
<path class="bond-5 atom-5 atom-6" d="M 97.3,136.4 L 113.3,126.1" style="fill:none;fill-rule:evenodd;stroke:#000000;stroke-width:2.0px;stroke-linecap:butt;stroke-linejoin:miter;stroke-opacity:1"/>
<path class="bond-6 atom-6 atom-7" d="M 113.3,126.1 L 133.7,136.5" style="fill:none;fill-rule:evenodd;stroke:#000000;stroke-width:2.0px;stroke-linecap:butt;stroke-linejoin:miter;stroke-opacity:1"/>
<path class="bond-7 atom-7 atom-8" d="M 133.7,136.5 L 149.7,126.2" style="fill:none;fill-rule:evenodd;stroke:#000000;stroke-width:2.0px;stroke-linecap:butt;stroke-linejoin:miter;stroke-opacity:1"/>
<path class="bond-8 atom-8 atom-9" d="M 156.1,126.5 L 171.1,137.9" style="fill:none;fill-rule:evenodd;stroke:#000000;stroke-width:2.0px;stroke-linecap:butt;stroke-linejoin:miter;stroke-opacity:1"/>
<path class="bond-9 atom-9 atom-10" d="M 171.1,137.9 L 160.7,158.3" style="fill:none;fill-rule:evenodd;stroke:#000000;stroke-width:2.0px;stroke-linecap:butt;stroke-linejoin:miter;stroke-opacity:1"/>
<path class="bond-9 atom-9 atom-10" d="M 173.6,143.0 L 166.3,157.3" style="fill:none;fill-rule:evenodd;stroke:#000000;stroke-width:2.0px;stroke-linecap:butt;stroke-linejoin:miter;stroke-opacity:1"/>
<path class="bond-10 atom-10 atom-11" d="M 160.7,158.3 L 173.1,177.5" style="fill:none;fill-rule:evenodd;stroke:#000000;stroke-width:2.0px;stroke-linecap:butt;stroke-linejoin:miter;stroke-opacity:1"/>
<path class="bond-11 atom-11 atom-12" d="M 173.1,177.5 L 196.0,176.3" style="fill:none;fill-rule:evenodd;stroke:#000000;stroke-width:2.0px;stroke-linecap:butt;stroke-linejoin:miter;stroke-opacity:1"/>
<path class="bond-11 atom-11 atom-12" d="M 176.3,172.7 L 192.3,171.9" style="fill:none;fill-rule:evenodd;stroke:#000000;stroke-width:2.0px;stroke-linecap:butt;stroke-linejoin:miter;stroke-opacity:1"/>
<path class="bond-12 atom-12 atom-13" d="M 196.0,176.3 L 206.4,155.9" style="fill:none;fill-rule:evenodd;stroke:#000000;stroke-width:2.0px;stroke-linecap:butt;stroke-linejoin:miter;stroke-opacity:1"/>
<path class="bond-13 atom-13 atom-14" d="M 206.4,155.9 L 194.0,136.7" style="fill:none;fill-rule:evenodd;stroke:#000000;stroke-width:2.0px;stroke-linecap:butt;stroke-linejoin:miter;stroke-opacity:1"/>
<path class="bond-13 atom-13 atom-14" d="M 200.7,155.5 L 192.0,142.1" style="fill:none;fill-rule:evenodd;stroke:#000000;stroke-width:2.0px;stroke-linecap:butt;stroke-linejoin:miter;stroke-opacity:1"/>
<path class="bond-14 atom-8 atom-15" d="M 152.0,120.1 L 147.8,101.8" style="fill:none;fill-rule:evenodd;stroke:#000000;stroke-width:2.0px;stroke-linecap:butt;stroke-linejoin:miter;stroke-opacity:1"/>
<path class="bond-15 atom-15 atom-16" d="M 147.8,101.8 L 156.1,85.4" style="fill:none;fill-rule:evenodd;stroke:#000000;stroke-width:2.0px;stroke-linecap:butt;stroke-linejoin:miter;stroke-opacity:1"/>
<path class="bond-16 atom-16 atom-17" d="M 164.4,78.8 L 179.3,72.5" style="fill:none;fill-rule:evenodd;stroke:#000000;stroke-width:2.0px;stroke-linecap:butt;stroke-linejoin:miter;stroke-opacity:1"/>
<path class="bond-17 atom-17 atom-18" d="M 179.3,72.5 L 198.3,78.4" style="fill:none;fill-rule:evenodd;stroke:#000000;stroke-width:2.0px;stroke-linecap:butt;stroke-linejoin:miter;stroke-opacity:1"/>
<path class="bond-18 atom-18 atom-19" d="M 203.8,83.4 L 211.0,94.5" style="fill:none;fill-rule:evenodd;stroke:#000000;stroke-width:2.0px;stroke-linecap:butt;stroke-linejoin:miter;stroke-opacity:1"/>
<path class="bond-19 atom-19 atom-20" d="M 213.0,102.6 L 210.7,121.2" style="fill:none;fill-rule:evenodd;stroke:#000000;stroke-width:2.0px;stroke-linecap:butt;stroke-linejoin:miter;stroke-opacity:1"/>
<path class="bond-20 atom-20 atom-21" d="M 211.8,119.1 L 229.3,128.1" style="fill:none;fill-rule:evenodd;stroke:#000000;stroke-width:2.0px;stroke-linecap:butt;stroke-linejoin:miter;stroke-opacity:1"/>
<path class="bond-20 atom-20 atom-21" d="M 209.7,123.2 L 227.2,132.2" style="fill:none;fill-rule:evenodd;stroke:#000000;stroke-width:2.0px;stroke-linecap:butt;stroke-linejoin:miter;stroke-opacity:1"/>
<path class="bond-21 atom-14 atom-9" d="M 194.0,136.7 L 171.1,137.9" style="fill:none;fill-rule:evenodd;stroke:#000000;stroke-width:2.0px;stroke-linecap:butt;stroke-linejoin:miter;stroke-opacity:1"/>
<path class="bond-22 atom-20 atom-14" d="M 210.7,121.2 L 194.0,136.7" style="fill:none;fill-rule:evenodd;stroke:#000000;stroke-width:2.0px;stroke-linecap:butt;stroke-linejoin:miter;stroke-opacity:1"/>
<path class="atom-2" d="M 12.4 116.4 L 14.5 119.9 Q 14.7 120.2, 15.1 120.8 Q 15.4 121.4, 15.4 121.5 L 15.4 116.4 L 16.3 116.4 L 16.3 122.9 L 15.4 122.9 L 13.1 119.2 Q 12.8 118.7, 12.6 118.2 Q 12.3 117.7, 12.2 117.6 L 12.2 122.9 L 11.4 122.9 L 11.4 116.4 L 12.4 116.4 " fill="#000000"/>
<path class="atom-4" d="M 69.6 105.3 Q 69.6 103.7, 70.4 102.8 Q 71.2 102.0, 72.6 102.0 Q 74.0 102.0, 74.8 102.8 Q 75.6 103.7, 75.6 105.3 Q 75.6 106.8, 74.8 107.7 Q 74.0 108.6, 72.6 108.6 Q 71.2 108.6, 70.4 107.7 Q 69.6 106.9, 69.6 105.3 M 72.6 107.9 Q 73.6 107.9, 74.1 107.2 Q 74.6 106.6, 74.6 105.3 Q 74.6 104.0, 74.1 103.4 Q 73.6 102.7, 72.6 102.7 Q 71.6 102.7, 71.1 103.4 Q 70.5 104.0, 70.5 105.3 Q 70.5 106.6, 71.1 107.2 Q 71.6 107.9, 72.6 107.9 " fill="#000000"/>
<path class="atom-5" d="M 92.7 135.3 L 94.8 138.7 Q 95.0 139.0, 95.3 139.7 Q 95.7 140.3, 95.7 140.3 L 95.7 135.3 L 96.6 135.3 L 96.6 141.8 L 95.7 141.8 L 93.4 138.0 Q 93.1 137.6, 92.8 137.1 Q 92.6 136.6, 92.5 136.4 L 92.5 141.8 L 91.6 141.8 L 91.6 135.3 L 92.7 135.3 " fill="#000000"/>
<path class="atom-5" d="M 91.6 142.4 L 92.4 142.4 L 92.4 145.2 L 95.8 145.2 L 95.8 142.4 L 96.6 142.4 L 96.6 148.9 L 95.8 148.9 L 95.8 145.9 L 92.4 145.9 L 92.4 148.9 L 91.6 148.9 L 91.6 142.4 " fill="#000000"/>
<path class="atom-8" d="M 151.4 120.9 L 153.6 124.3 Q 153.8 124.6, 154.1 125.2 Q 154.5 125.9, 154.5 125.9 L 154.5 120.9 L 155.3 120.9 L 155.3 127.3 L 154.4 127.3 L 152.2 123.6 Q 151.9 123.1, 151.6 122.6 Q 151.3 122.1, 151.3 122.0 L 151.3 127.3 L 150.4 127.3 L 150.4 120.9 L 151.4 120.9 " fill="#000000"/>
<path class="atom-16" d="M 156.8 78.2 L 158.9 81.6 Q 159.1 82.0, 159.4 82.6 Q 159.8 83.2, 159.8 83.2 L 159.8 78.2 L 160.6 78.2 L 160.6 84.7 L 159.8 84.7 L 157.5 80.9 Q 157.2 80.5, 156.9 80.0 Q 156.7 79.5, 156.6 79.3 L 156.6 84.7 L 155.7 84.7 L 155.7 78.2 L 156.8 78.2 " fill="#000000"/>
<path class="atom-16" d="M 161.4 79.3 L 163.6 79.3 L 163.6 79.8 L 161.4 79.8 L 161.4 79.3 " fill="#000000"/>
<path class="atom-18" d="M 199.3 81.5 Q 199.4 81.5, 199.7 81.6 Q 200.0 81.8, 200.3 81.9 Q 200.6 81.9, 201.0 81.9 Q 201.6 81.9, 201.9 81.6 Q 202.3 81.3, 202.3 80.8 Q 202.3 80.5, 202.1 80.2 Q 201.9 80.0, 201.7 79.9 Q 201.4 79.8, 200.9 79.6 Q 200.3 79.5, 200.0 79.3 Q 199.7 79.1, 199.4 78.8 Q 199.2 78.4, 199.2 77.9 Q 199.2 77.0, 199.7 76.5 Q 200.3 76.0, 201.4 76.0 Q 202.1 76.0, 203.0 76.4 L 202.8 77.1 Q 202.0 76.8, 201.4 76.8 Q 200.8 76.8, 200.4 77.0 Q 200.1 77.3, 200.1 77.8 Q 200.1 78.1, 200.3 78.3 Q 200.5 78.5, 200.7 78.6 Q 201.0 78.8, 201.4 78.9 Q 202.0 79.1, 202.3 79.3 Q 202.7 79.4, 202.9 79.8 Q 203.2 80.2, 203.2 80.8 Q 203.2 81.7, 202.6 82.2 Q 202.0 82.7, 201.0 82.7 Q 200.4 82.7, 200.0 82.5 Q 199.6 82.4, 199.0 82.2 L 199.3 81.5 " fill="#000000"/>
<path class="atom-18" d="M 203.6 77.0 L 205.8 77.0 L 205.8 77.5 L 203.6 77.5 L 203.6 77.0 " fill="#000000"/>
<path class="atom-19" d="M 211.7 100.7 Q 211.8 100.7, 212.1 100.9 Q 212.4 101.0, 212.7 101.1 Q 213.1 101.1, 213.4 101.1 Q 214.0 101.1, 214.4 100.8 Q 214.7 100.5, 214.7 100.0 Q 214.7 99.7, 214.5 99.4 Q 214.4 99.2, 214.1 99.1 Q 213.8 99.0, 213.3 98.8 Q 212.8 98.7, 212.4 98.5 Q 212.1 98.3, 211.8 98.0 Q 211.6 97.7, 211.6 97.1 Q 211.6 96.3, 212.1 95.7 Q 212.7 95.2, 213.8 95.2 Q 214.6 95.2, 215.4 95.6 L 215.2 96.3 Q 214.4 96.0, 213.8 96.0 Q 213.2 96.0, 212.9 96.3 Q 212.5 96.5, 212.5 97.0 Q 212.5 97.3, 212.7 97.5 Q 212.9 97.7, 213.1 97.8 Q 213.4 98.0, 213.8 98.1 Q 214.4 98.3, 214.8 98.5 Q 215.1 98.6, 215.4 99.0 Q 215.6 99.4, 215.6 100.0 Q 215.6 100.9, 215.0 101.4 Q 214.4 101.9, 213.4 101.9 Q 212.8 101.9, 212.4 101.7 Q 212.0 101.6, 211.5 101.4 L 211.7 100.7 " fill="#000000"/>
<path class="atom-21" d="M 230.9 128.4 Q 232.0 128.4, 232.6 128.9 Q 233.1 129.3, 233.1 130.3 Q 233.1 131.2, 232.6 131.7 Q 232.0 132.2, 230.9 132.2 L 229.9 132.2 L 229.9 134.8 L 229.0 134.8 L 229.0 128.4 L 230.9 128.4 M 230.9 131.4 Q 231.5 131.4, 231.9 131.1 Q 232.2 130.8, 232.2 130.3 Q 232.2 129.7, 231.9 129.4 Q 231.6 129.1, 230.9 129.1 L 229.9 129.1 L 229.9 131.4 L 230.9 131.4 " fill="#000000"/>
<path class="atom-21" d="M 233.6 128.4 L 234.4 128.4 L 234.4 131.1 L 237.8 131.1 L 237.8 128.4 L 238.6 128.4 L 238.6 134.8 L 237.8 134.8 L 237.8 131.8 L 234.4 131.8 L 234.4 134.8 L 233.6 134.8 L 233.6 128.4 " fill="#000000"/>
<path class="atom-0" d="M 55.0,142.6 L 55.0,142.6 L 55.0,142.7 L 55.0,142.7 L 55.0,142.7 L 55.0,142.8 L 54.9,142.8 L 54.9,142.8 L 54.9,142.9 L 54.9,142.9 L 54.8,142.9 L 54.8,142.9 L 54.8,143.0 L 54.7,143.0 L 54.7,143.0 L 54.7,143.0 L 54.6,143.0 L 54.6,143.0 L 54.5,143.0 L 54.5,143.0 L 54.5,143.0 L 54.4,143.0 L 54.4,143.0 L 54.4,143.0 L 54.3,143.0 L 54.3,143.0 L 54.3,142.9 L 54.2,142.9 L 54.2,142.9 L 54.2,142.9 L 54.2,142.8 L 54.1,142.8 L 54.1,142.8 L 54.1,142.7 L 54.1,142.7 L 54.1,142.6 L 54.1,142.6 L 54.1,142.6 L 54.1,142.5 L 54.1,142.5 L 54.1,142.4 L 54.1,142.4 L 54.1,142.4 L 54.2,142.3 L 54.2,142.3 L 54.2,142.3 L 54.2,142.2 L 54.3,142.2 L 54.3,142.2 L 54.3,142.2 L 54.4,142.2 L 54.4,142.1 L 54.4,142.1 L 54.5,142.1 L 54.5,142.1 L 54.5,142.1 L 54.6,142.1 L 54.6,142.1 L 54.7,142.1 L 54.7,142.2 L 54.7,142.2 L 54.8,142.2 L 54.8,142.2 L 54.8,142.2 L 54.9,142.3 L 54.9,142.3 L 54.9,142.3 L 54.9,142.4 L 55.0,142.4 L 55.0,142.4 L 55.0,142.5 L 55.0,142.5 L 55.0,142.5 L 55.0,142.6 L 54.5,142.6 Z" style="fill:#000000;fill-rule:evenodd;fill-opacity:1;stroke:#000000;stroke-width:0.0px;stroke-linecap:butt;stroke-linejoin:miter;stroke-opacity:1;"/>
<path class="atom-18" d="M 207.7,79.3 L 207.7,79.3 L 207.7,79.3 L 207.7,79.4 L 207.6,79.4 L 207.6,79.5 L 207.6,79.5 L 207.6,79.5 L 207.6,79.6 L 207.5,79.6 L 207.5,79.6 L 207.5,79.6 L 207.4,79.7 L 207.4,79.7 L 207.4,79.7 L 207.3,79.7 L 207.3,79.7 L 207.3,79.7 L 207.2,79.7 L 207.2,79.7 L 207.1,79.7 L 207.1,79.7 L 207.1,79.7 L 207.0,79.7 L 207.0,79.7 L 207.0,79.7 L 206.9,79.6 L 206.9,79.6 L 206.9,79.6 L 206.8,79.5 L 206.8,79.5 L 206.8,79.5 L 206.8,79.4 L 206.8,79.4 L 206.8,79.4 L 206.8,79.3 L 206.8,79.3 L 206.8,79.3 L 206.8,79.2 L 206.8,79.2 L 206.8,79.1 L 206.8,79.1 L 206.8,79.1 L 206.8,79.0 L 206.8,79.0 L 206.9,79.0 L 206.9,78.9 L 206.9,78.9 L 207.0,78.9 L 207.0,78.9 L 207.0,78.8 L 207.1,78.8 L 207.1,78.8 L 207.1,78.8 L 207.2,78.8 L 207.2,78.8 L 207.3,78.8 L 207.3,78.8 L 207.3,78.8 L 207.4,78.8 L 207.4,78.9 L 207.4,78.9 L 207.5,78.9 L 207.5,78.9 L 207.5,78.9 L 207.6,79.0 L 207.6,79.0 L 207.6,79.0 L 207.6,79.1 L 207.6,79.1 L 207.7,79.2 L 207.7,79.2 L 207.7,79.2 L 207.7,79.3 L 207.2,79.3 Z" style="fill:#000000;fill-rule:evenodd;fill-opacity:1;stroke:#000000;stroke-width:0.0px;stroke-linecap:butt;stroke-linejoin:miter;stroke-opacity:1;"/>
<path class="bond-0 atom-0 atom-1" d="M 462.4,208.2 L 455.6,179.2" style="fill:none;fill-rule:evenodd;stroke:#000000;stroke-width:2.0px;stroke-linecap:butt;stroke-linejoin:miter;stroke-opacity:1"/>
<path class="bond-1 atom-1 atom-2" d="M 445.9,168.4 L 408.5,157.2" style="fill:none;fill-rule:evenodd;stroke:#000000;stroke-width:2.0px;stroke-linecap:butt;stroke-linejoin:miter;stroke-opacity:1"/>
<path class="bond-2 atom-2 atom-3" d="M 408.5,157.2 L 374.2,189.4" style="fill:none;fill-rule:evenodd;stroke:#000000;stroke-width:2.0px;stroke-linecap:butt;stroke-linejoin:miter;stroke-opacity:1"/>
<path class="bond-2 atom-2 atom-3" d="M 396.9,155.2 L 372.9,177.8" style="fill:none;fill-rule:evenodd;stroke:#000000;stroke-width:2.0px;stroke-linecap:butt;stroke-linejoin:miter;stroke-opacity:1"/>
<path class="bond-3 atom-3 atom-4" d="M 374.2,189.4 L 329.2,175.9" style="fill:none;fill-rule:evenodd;stroke:#000000;stroke-width:2.0px;stroke-linecap:butt;stroke-linejoin:miter;stroke-opacity:1"/>
<path class="bond-4 atom-4 atom-5" d="M 329.2,175.9 L 318.3,130.1" style="fill:none;fill-rule:evenodd;stroke:#000000;stroke-width:2.0px;stroke-linecap:butt;stroke-linejoin:miter;stroke-opacity:1"/>
<path class="bond-4 atom-4 atom-5" d="M 336.7,166.9 L 329.1,134.8" style="fill:none;fill-rule:evenodd;stroke:#000000;stroke-width:2.0px;stroke-linecap:butt;stroke-linejoin:miter;stroke-opacity:1"/>
<path class="bond-5 atom-5 atom-6" d="M 318.3,130.1 L 275.7,117.3" style="fill:none;fill-rule:evenodd;stroke:#000000;stroke-width:2.0px;stroke-linecap:butt;stroke-linejoin:miter;stroke-opacity:1"/>
<path class="bond-6 atom-5 atom-7" d="M 318.3,130.1 L 352.6,97.8" style="fill:none;fill-rule:evenodd;stroke:#000000;stroke-width:2.0px;stroke-linecap:butt;stroke-linejoin:miter;stroke-opacity:1"/>
<path class="bond-7 atom-7 atom-8" d="M 352.6,97.8 L 397.7,111.4" style="fill:none;fill-rule:evenodd;stroke:#000000;stroke-width:2.0px;stroke-linecap:butt;stroke-linejoin:miter;stroke-opacity:1"/>
<path class="bond-7 atom-7 atom-8" d="M 356.7,108.9 L 388.2,118.4" style="fill:none;fill-rule:evenodd;stroke:#000000;stroke-width:2.0px;stroke-linecap:butt;stroke-linejoin:miter;stroke-opacity:1"/>
<path class="bond-8 atom-8 atom-9" d="M 397.7,111.4 L 431.9,79.1" style="fill:none;fill-rule:evenodd;stroke:#000000;stroke-width:2.0px;stroke-linecap:butt;stroke-linejoin:miter;stroke-opacity:1"/>
<path class="bond-9 atom-9 atom-10" d="M 431.9,79.1 L 423.1,41.8" style="fill:none;fill-rule:evenodd;stroke:#000000;stroke-width:2.0px;stroke-linecap:butt;stroke-linejoin:miter;stroke-opacity:1"/>
<path class="bond-10 atom-9 atom-11" d="M 431.9,79.1 L 469.3,90.3" style="fill:none;fill-rule:evenodd;stroke:#000000;stroke-width:2.0px;stroke-linecap:butt;stroke-linejoin:miter;stroke-opacity:1"/>
<path class="bond-11 atom-8 atom-2" d="M 397.7,111.4 L 408.5,157.2" style="fill:none;fill-rule:evenodd;stroke:#000000;stroke-width:2.0px;stroke-linecap:butt;stroke-linejoin:miter;stroke-opacity:1"/>
<path class="atom-0" d="M 458.3 216.5 Q 458.3 213.3, 459.9 211.6 Q 461.4 209.8, 464.4 209.8 Q 467.4 209.8, 468.9 211.6 Q 470.5 213.3, 470.5 216.5 Q 470.5 219.8, 468.9 221.6 Q 467.3 223.5, 464.4 223.5 Q 461.5 223.5, 459.9 221.6 Q 458.3 219.8, 458.3 216.5 M 464.4 221.9 Q 466.4 221.9, 467.5 220.6 Q 468.6 219.2, 468.6 216.5 Q 468.6 213.9, 467.5 212.6 Q 466.4 211.3, 464.4 211.3 Q 462.4 211.3, 461.3 212.6 Q 460.2 213.9, 460.2 216.5 Q 460.2 219.2, 461.3 220.6 Q 462.4 221.9, 464.4 221.9 " fill="#000000"/>
<path class="atom-0" d="M 471.5 211.9 L 476.0 211.9 L 476.0 212.9 L 471.5 212.9 L 471.5 211.9 " fill="#000000"/>
<path class="atom-1" d="M 447.5 170.7 Q 447.5 167.5, 449.0 165.8 Q 450.6 164.0, 453.6 164.0 Q 456.5 164.0, 458.1 165.8 Q 459.7 167.5, 459.7 170.7 Q 459.7 174.0, 458.1 175.8 Q 456.5 177.6, 453.6 177.6 Q 450.6 177.6, 449.0 175.8 Q 447.5 174.0, 447.5 170.7 M 453.6 176.1 Q 455.6 176.1, 456.7 174.8 Q 457.8 173.4, 457.8 170.7 Q 457.8 168.1, 456.7 166.8 Q 455.6 165.5, 453.6 165.5 Q 451.5 165.5, 450.4 166.8 Q 449.3 168.1, 449.3 170.7 Q 449.3 173.4, 450.4 174.8 Q 451.5 176.1, 453.6 176.1 " fill="#000000"/>
<path class="atom-6" d="M 261.4 117.0 Q 261.4 113.7, 262.9 112.0 Q 264.5 110.2, 267.4 110.2 Q 270.2 110.2, 271.6 112.2 L 270.4 113.2 Q 269.3 111.8, 267.4 111.8 Q 265.4 111.8, 264.3 113.1 Q 263.3 114.5, 263.3 117.0 Q 263.3 119.7, 264.4 121.0 Q 265.5 122.4, 267.6 122.4 Q 269.1 122.4, 270.8 121.5 L 271.3 122.9 Q 270.6 123.4, 269.6 123.6 Q 268.5 123.9, 267.4 123.9 Q 264.5 123.9, 262.9 122.1 Q 261.4 120.3, 261.4 117.0 " fill="#000000"/>
<path class="atom-6" d="M 272.4 109.4 L 274.1 109.4 L 274.1 123.7 L 272.4 123.7 L 272.4 109.4 " fill="#000000"/>
<path class="atom-10" d="M 415.0 33.3 Q 415.0 30.1, 416.6 28.3 Q 418.2 26.5, 421.1 26.5 Q 424.1 26.5, 425.7 28.3 Q 427.2 30.1, 427.2 33.3 Q 427.2 36.6, 425.6 38.4 Q 424.0 40.2, 421.1 40.2 Q 418.2 40.2, 416.6 38.4 Q 415.0 36.6, 415.0 33.3 M 421.1 38.7 Q 423.2 38.7, 424.2 37.4 Q 425.4 36.0, 425.4 33.3 Q 425.4 30.7, 424.2 29.4 Q 423.2 28.1, 421.1 28.1 Q 419.1 28.1, 418.0 29.4 Q 416.9 30.7, 416.9 33.3 Q 416.9 36.0, 418.0 37.4 Q 419.1 38.7, 421.1 38.7 " fill="#000000"/>
<path class="atom-10" d="M 428.2 26.7 L 430.0 26.7 L 430.0 32.4 L 436.8 32.4 L 436.8 26.7 L 438.6 26.7 L 438.6 40.0 L 436.8 40.0 L 436.8 33.9 L 430.0 33.9 L 430.0 40.0 L 428.2 40.0 L 428.2 26.7 " fill="#000000"/>
<path class="atom-11" d="M 470.9 92.7 Q 470.9 89.5, 472.5 87.7 Q 474.1 85.9, 477.0 85.9 Q 480.0 85.9, 481.6 87.7 Q 483.1 89.5, 483.1 92.7 Q 483.1 95.9, 481.5 97.7 Q 479.9 99.6, 477.0 99.6 Q 474.1 99.6, 472.5 97.7 Q 470.9 95.9, 470.9 92.7 M 477.0 98.1 Q 479.0 98.1, 480.1 96.7 Q 481.3 95.3, 481.3 92.7 Q 481.3 90.0, 480.1 88.7 Q 479.0 87.4, 477.0 87.4 Q 475.0 87.4, 473.9 88.7 Q 472.8 90.0, 472.8 92.7 Q 472.8 95.4, 473.9 96.7 Q 475.0 98.1, 477.0 98.1 " fill="#000000"/>
<path class="atom-11" d="M 484.1 88.1 L 488.6 88.1 L 488.6 89.1 L 484.1 89.1 L 484.1 88.1 " fill="#000000"/>
<path class="bond-0 atom-0 atom-1" d="M 657.9,117.9 L 524.2,117.9" style="fill:none;fill-rule:evenodd;stroke:#000000;stroke-width:2.0px;stroke-linecap:butt;stroke-linejoin:miter;stroke-opacity:1"/>
<path class="atom-0" d="M 667.3 103.8 L 676.6 118.8 Q 677.5 120.2, 679.0 122.9 Q 680.4 125.6, 680.5 125.8 L 680.5 103.8 L 684.3 103.8 L 684.3 132.1 L 680.4 132.1 L 670.4 115.7 Q 669.3 113.8, 668.0 111.6 Q 666.8 109.4, 666.5 108.7 L 666.5 132.1 L 662.8 132.1 L 662.8 103.8 L 667.3 103.8 " fill="#000000"/>
<path class="atom-0" d="M 687.6 103.8 L 691.4 103.8 L 691.4 115.8 L 705.9 115.8 L 705.9 103.8 L 709.8 103.8 L 709.8 132.1 L 705.9 132.1 L 705.9 119.0 L 691.4 119.0 L 691.4 132.1 L 687.6 132.1 L 687.6 103.8 " fill="#000000"/>
<path class="atom-0" d="M 713.2 131.1 Q 713.9 129.3, 715.5 128.3 Q 717.2 127.3, 719.5 127.3 Q 722.3 127.3, 723.9 128.9 Q 725.4 130.4, 725.4 133.1 Q 725.4 135.9, 723.4 138.5 Q 721.4 141.1, 717.1 144.1 L 725.8 144.1 L 725.8 146.2 L 713.2 146.2 L 713.2 144.5 Q 716.7 142.0, 718.7 140.1 Q 720.8 138.3, 721.8 136.6 Q 722.8 135.0, 722.8 133.3 Q 722.8 131.5, 721.9 130.5 Q 721.0 129.4, 719.5 129.4 Q 717.9 129.4, 716.9 130.1 Q 715.9 130.7, 715.2 132.0 L 713.2 131.1 " fill="#000000"/>
<path class="bond-0 atom-0 atom-1" d="M 197.9,376.9 L 217.1,367.2" style="fill:none;fill-rule:evenodd;stroke:#000000;stroke-width:2.0px;stroke-linecap:butt;stroke-linejoin:miter;stroke-opacity:1"/>
<path class="bond-1 atom-1 atom-2" d="M 217.1,367.2 L 233.3,358.9" style="fill:none;fill-rule:evenodd;stroke:#000000;stroke-width:2.0px;stroke-linecap:butt;stroke-linejoin:miter;stroke-opacity:1"/>
<path class="bond-1 atom-1 atom-2" d="M 217.6,362.1 L 231.3,355.1" style="fill:none;fill-rule:evenodd;stroke:#000000;stroke-width:2.0px;stroke-linecap:butt;stroke-linejoin:miter;stroke-opacity:1"/>
<path class="bond-1 atom-1 atom-2" d="M 221.5,369.8 L 235.2,362.8" style="fill:none;fill-rule:evenodd;stroke:#000000;stroke-width:2.0px;stroke-linecap:butt;stroke-linejoin:miter;stroke-opacity:1"/>
<path class="bond-2 atom-0 atom-3" d="M 197.9,376.9 L 179.8,365.2" style="fill:none;fill-rule:evenodd;stroke:#000000;stroke-width:2.0px;stroke-linecap:butt;stroke-linejoin:miter;stroke-opacity:1"/>
<path class="bond-3 atom-3 atom-4" d="M 179.8,365.2 L 160.6,374.9" style="fill:none;fill-rule:evenodd;stroke:#000000;stroke-width:2.0px;stroke-linecap:butt;stroke-linejoin:miter;stroke-opacity:1"/>
<path class="bond-3 atom-3 atom-4" d="M 178.9,370.5 L 165.4,377.3" style="fill:none;fill-rule:evenodd;stroke:#000000;stroke-width:2.0px;stroke-linecap:butt;stroke-linejoin:miter;stroke-opacity:1"/>
<path class="bond-4 atom-4 atom-5" d="M 160.6,374.9 L 142.5,363.2" style="fill:none;fill-rule:evenodd;stroke:#000000;stroke-width:2.0px;stroke-linecap:butt;stroke-linejoin:miter;stroke-opacity:1"/>
<path class="bond-5 atom-5 atom-6" d="M 142.5,363.2 L 123.3,372.9" style="fill:none;fill-rule:evenodd;stroke:#000000;stroke-width:2.0px;stroke-linecap:butt;stroke-linejoin:miter;stroke-opacity:1"/>
<path class="bond-5 atom-5 atom-6" d="M 141.6,368.5 L 128.1,375.3" style="fill:none;fill-rule:evenodd;stroke:#000000;stroke-width:2.0px;stroke-linecap:butt;stroke-linejoin:miter;stroke-opacity:1"/>
<path class="bond-6 atom-6 atom-7" d="M 123.3,372.9 L 105.2,361.2" style="fill:none;fill-rule:evenodd;stroke:#000000;stroke-width:2.0px;stroke-linecap:butt;stroke-linejoin:miter;stroke-opacity:1"/>
<path class="bond-7 atom-7 atom-8" d="M 105.2,361.2 L 86.0,371.0" style="fill:none;fill-rule:evenodd;stroke:#000000;stroke-width:2.0px;stroke-linecap:butt;stroke-linejoin:miter;stroke-opacity:1"/>
<path class="bond-8 atom-8 atom-9" d="M 88.1,371.1 L 87.2,388.8" style="fill:none;fill-rule:evenodd;stroke:#000000;stroke-width:2.0px;stroke-linecap:butt;stroke-linejoin:miter;stroke-opacity:1"/>
<path class="bond-8 atom-8 atom-9" d="M 83.8,370.8 L 82.9,388.6" style="fill:none;fill-rule:evenodd;stroke:#000000;stroke-width:2.0px;stroke-linecap:butt;stroke-linejoin:miter;stroke-opacity:1"/>
<path class="bond-9 atom-8 atom-10" d="M 86.0,371.0 L 67.9,359.2" style="fill:none;fill-rule:evenodd;stroke:#000000;stroke-width:2.0px;stroke-linecap:butt;stroke-linejoin:miter;stroke-opacity:1"/>
<path class="bond-10 atom-10 atom-11" d="M 67.9,359.2 L 51.7,367.4" style="fill:none;fill-rule:evenodd;stroke:#000000;stroke-width:2.0px;stroke-linecap:butt;stroke-linejoin:miter;stroke-opacity:1"/>
<path class="bond-11 atom-11 atom-12" d="M 45.6,367.0 L 30.6,357.2" style="fill:none;fill-rule:evenodd;stroke:#000000;stroke-width:2.0px;stroke-linecap:butt;stroke-linejoin:miter;stroke-opacity:1"/>
<path class="bond-12 atom-12 atom-13" d="M 30.6,357.2 L 11.4,367.0" style="fill:none;fill-rule:evenodd;stroke:#000000;stroke-width:2.0px;stroke-linecap:butt;stroke-linejoin:miter;stroke-opacity:1"/>
<path class="atom-2" d="M 235.0 354.3 L 237.0 357.6 Q 237.2 357.9, 237.5 358.5 Q 237.8 359.0, 237.8 359.1 L 237.8 354.3 L 238.6 354.3 L 238.6 360.4 L 237.8 360.4 L 235.7 356.9 Q 235.4 356.5, 235.1 356.0 Q 234.9 355.5, 234.8 355.4 L 234.8 360.4 L 234.0 360.4 L 234.0 354.3 L 235.0 354.3 " fill="#000000"/>
<path class="atom-9" d="M 82.0 392.5 Q 82.0 391.0, 82.7 390.2 Q 83.5 389.4, 84.8 389.4 Q 86.2 389.4, 86.9 390.2 Q 87.6 391.0, 87.6 392.5 Q 87.6 394.0, 86.9 394.8 Q 86.2 395.7, 84.8 395.7 Q 83.5 395.7, 82.7 394.8 Q 82.0 394.0, 82.0 392.5 M 84.8 395.0 Q 85.7 395.0, 86.2 394.4 Q 86.8 393.7, 86.8 392.5 Q 86.8 391.3, 86.2 390.7 Q 85.7 390.1, 84.8 390.1 Q 83.9 390.1, 83.4 390.7 Q 82.9 391.3, 82.9 392.5 Q 82.9 393.7, 83.4 394.4 Q 83.9 395.0, 84.8 395.0 " fill="#000000"/>
<path class="atom-11" d="M 47.3 365.9 L 49.3 369.1 Q 49.5 369.5, 49.8 370.0 Q 50.2 370.6, 50.2 370.7 L 50.2 365.9 L 51.0 365.9 L 51.0 372.0 L 50.1 372.0 L 48.0 368.5 Q 47.7 368.1, 47.5 367.6 Q 47.2 367.1, 47.1 367.0 L 47.1 372.0 L 46.3 372.0 L 46.3 365.9 L 47.3 365.9 " fill="#000000"/>
<path class="atom-11" d="M 46.3 372.6 L 47.1 372.6 L 47.1 375.2 L 50.2 375.2 L 50.2 372.6 L 51.1 372.6 L 51.1 378.7 L 50.2 378.7 L 50.2 375.9 L 47.1 375.9 L 47.1 378.7 L 46.3 378.7 L 46.3 372.6 " fill="#000000"/>
<path class="atom-0" d="M 199.2,378.9 L 199.2,378.9 L 199.2,378.9 L 199.1,379.0 L 199.1,379.0 L 199.1,379.0 L 199.1,379.1 L 199.1,379.1 L 199.1,379.1 L 199.0,379.2 L 199.0,379.2 L 199.0,379.2 L 199.0,379.2 L 198.9,379.3 L 198.9,379.3 L 198.9,379.3 L 198.8,379.3 L 198.8,379.3 L 198.7,379.3 L 198.7,379.3 L 198.7,379.3 L 198.6,379.3 L 198.6,379.3 L 198.6,379.3 L 198.5,379.2 L 198.5,379.2 L 198.5,379.2 L 198.4,379.2 L 198.4,379.2 L 198.4,379.1 L 198.4,379.1 L 198.3,379.1 L 198.3,379.0 L 198.3,379.0 L 198.3,379.0 L 198.3,378.9 L 198.3,378.9 L 198.3,378.8 L 198.3,378.8 L 198.3,378.8 L 198.3,378.7 L 198.3,378.7 L 198.3,378.7 L 198.4,378.6 L 198.4,378.6 L 198.4,378.6 L 198.4,378.6 L 198.5,378.5 L 198.5,378.5 L 198.5,378.5 L 198.6,378.5 L 198.6,378.5 L 198.6,378.4 L 198.7,378.4 L 198.7,378.4 L 198.7,378.4 L 198.8,378.4 L 198.8,378.4 L 198.9,378.5 L 198.9,378.5 L 198.9,378.5 L 199.0,378.5 L 199.0,378.5 L 199.0,378.5 L 199.0,378.6 L 199.1,378.6 L 199.1,378.6 L 199.1,378.7 L 199.1,378.7 L 199.1,378.7 L 199.1,378.8 L 199.2,378.8 L 199.2,378.8 L 199.2,378.9 L 198.7,378.9 Z" style="fill:#000000;fill-rule:evenodd;fill-opacity:1;stroke:#000000;stroke-width:0.0px;stroke-linecap:butt;stroke-linejoin:miter;stroke-opacity:1;"/>
<path class="atom-0" d="M 197.4,378.9 L 197.4,378.9 L 197.4,378.9 L 197.4,379.0 L 197.4,379.0 L 197.4,379.0 L 197.4,379.1 L 197.4,379.1 L 197.3,379.1 L 197.3,379.2 L 197.3,379.2 L 197.3,379.2 L 197.2,379.2 L 197.2,379.3 L 197.2,379.3 L 197.1,379.3 L 197.1,379.3 L 197.1,379.3 L 197.0,379.3 L 197.0,379.3 L 196.9,379.3 L 196.9,379.3 L 196.9,379.3 L 196.8,379.3 L 196.8,379.2 L 196.8,379.2 L 196.7,379.2 L 196.7,379.2 L 196.7,379.2 L 196.7,379.1 L 196.6,379.1 L 196.6,379.1 L 196.6,379.0 L 196.6,379.0 L 196.6,379.0 L 196.6,378.9 L 196.6,378.9 L 196.6,378.8 L 196.6,378.8 L 196.6,378.8 L 196.6,378.7 L 196.6,378.7 L 196.6,378.7 L 196.6,378.6 L 196.7,378.6 L 196.7,378.6 L 196.7,378.6 L 196.7,378.5 L 196.8,378.5 L 196.8,378.5 L 196.8,378.5 L 196.9,378.5 L 196.9,378.4 L 196.9,378.4 L 197.0,378.4 L 197.0,378.4 L 197.1,378.4 L 197.1,378.4 L 197.1,378.5 L 197.2,378.5 L 197.2,378.5 L 197.2,378.5 L 197.3,378.5 L 197.3,378.5 L 197.3,378.6 L 197.3,378.6 L 197.4,378.6 L 197.4,378.7 L 197.4,378.7 L 197.4,378.7 L 197.4,378.8 L 197.4,378.8 L 197.4,378.8 L 197.4,378.9 L 197.0,378.9 Z" style="fill:#000000;fill-rule:evenodd;fill-opacity:1;stroke:#000000;stroke-width:0.0px;stroke-linecap:butt;stroke-linejoin:miter;stroke-opacity:1;"/>
<path class="bond-0 atom-0 atom-1" d="M 334.9,407.1 L 284.4,358.2" style="fill:none;fill-rule:evenodd;stroke:#000000;stroke-width:2.0px;stroke-linecap:butt;stroke-linejoin:miter;stroke-opacity:1"/>
<path class="bond-1 atom-0 atom-2" d="M 334.9,407.1 L 407.7,386.2" style="fill:none;fill-rule:evenodd;stroke:#000000;stroke-width:2.0px;stroke-linecap:butt;stroke-linejoin:miter;stroke-opacity:1"/>
<path class="bond-2 atom-2 atom-3" d="M 407.7,386.2 L 469.9,368.4" style="fill:none;fill-rule:evenodd;stroke:#000000;stroke-width:2.0px;stroke-linecap:butt;stroke-linejoin:miter;stroke-opacity:1"/>
<path class="bond-2 atom-2 atom-3" d="M 412.9,369.0 L 465.7,353.9" style="fill:none;fill-rule:evenodd;stroke:#000000;stroke-width:2.0px;stroke-linecap:butt;stroke-linejoin:miter;stroke-opacity:1"/>
<path class="bond-2 atom-2 atom-3" d="M 421.2,398.1 L 474.0,383.0" style="fill:none;fill-rule:evenodd;stroke:#000000;stroke-width:2.0px;stroke-linecap:butt;stroke-linejoin:miter;stroke-opacity:1"/>
<path class="atom-1" d="M 261.4 355.2 Q 261.4 349.8, 263.8 347.1 Q 266.4 344.2, 271.1 344.2 Q 275.5 344.2, 277.9 347.4 L 275.9 349.0 Q 274.2 346.7, 271.1 346.7 Q 267.9 346.7, 266.1 348.9 Q 264.5 351.1, 264.5 355.2 Q 264.5 359.4, 266.2 361.6 Q 268.0 363.8, 271.4 363.8 Q 273.8 363.8, 276.6 362.4 L 277.4 364.6 Q 276.3 365.4, 274.6 365.8 Q 272.9 366.2, 271.0 366.2 Q 266.4 366.2, 263.8 363.4 Q 261.4 360.5, 261.4 355.2 " fill="#000000"/>
<path class="atom-1" d="M 279.1 342.9 L 281.9 342.9 L 281.9 365.9 L 279.1 365.9 L 279.1 342.9 " fill="#000000"/>
<path class="atom-3" d="M 475.8 354.7 L 482.8 366.0 Q 483.5 367.1, 484.6 369.2 Q 485.7 371.2, 485.8 371.3 L 485.8 354.7 L 488.6 354.7 L 488.6 376.1 L 485.7 376.1 L 478.2 363.7 Q 477.3 362.2, 476.3 360.6 Q 475.4 358.9, 475.2 358.4 L 475.2 376.1 L 472.4 376.1 L 472.4 354.7 L 475.8 354.7 " fill="#000000"/>
<path class="bond-0 atom-0 atom-1" d="M 683.7,408.3 L 677.5,365.2" style="fill:none;fill-rule:evenodd;stroke:#000000;stroke-width:2.0px;stroke-linecap:butt;stroke-linejoin:miter;stroke-opacity:1"/>
<path class="bond-1 atom-1 atom-2" d="M 683.2,361.8 L 682.2,360.4" style="fill:none;fill-rule:evenodd;stroke:#000000;stroke-width:1.0px;stroke-linecap:butt;stroke-linejoin:miter;stroke-opacity:1"/>
<path class="bond-1 atom-1 atom-2" d="M 689.0,358.4 L 686.8,355.7" style="fill:none;fill-rule:evenodd;stroke:#000000;stroke-width:1.0px;stroke-linecap:butt;stroke-linejoin:miter;stroke-opacity:1"/>
<path class="bond-1 atom-1 atom-2" d="M 694.7,355.1 L 691.5,350.9" style="fill:none;fill-rule:evenodd;stroke:#000000;stroke-width:1.0px;stroke-linecap:butt;stroke-linejoin:miter;stroke-opacity:1"/>
<path class="bond-1 atom-1 atom-2" d="M 700.5,351.7 L 696.1,346.1" style="fill:none;fill-rule:evenodd;stroke:#000000;stroke-width:1.0px;stroke-linecap:butt;stroke-linejoin:miter;stroke-opacity:1"/>
<path class="bond-1 atom-1 atom-2" d="M 706.2,348.3 L 700.8,341.4" style="fill:none;fill-rule:evenodd;stroke:#000000;stroke-width:1.0px;stroke-linecap:butt;stroke-linejoin:miter;stroke-opacity:1"/>
<path class="bond-1 atom-1 atom-2" d="M 711.9,344.9 L 705.4,336.6" style="fill:none;fill-rule:evenodd;stroke:#000000;stroke-width:1.0px;stroke-linecap:butt;stroke-linejoin:miter;stroke-opacity:1"/>
<path class="bond-2 atom-1 atom-3" d="M 677.5,365.2 L 628.5,345.6" style="fill:none;fill-rule:evenodd;stroke:#000000;stroke-width:2.0px;stroke-linecap:butt;stroke-linejoin:miter;stroke-opacity:1"/>
<path class="bond-3 atom-3 atom-4" d="M 628.5,345.6 L 587.0,378.2" style="fill:none;fill-rule:evenodd;stroke:#000000;stroke-width:2.0px;stroke-linecap:butt;stroke-linejoin:miter;stroke-opacity:1"/>
<path class="bond-4 atom-4 atom-5" d="M 587.0,378.2 L 545.4,361.5" style="fill:none;fill-rule:evenodd;stroke:#000000;stroke-width:2.0px;stroke-linecap:butt;stroke-linejoin:miter;stroke-opacity:1"/>
<path class="atom-0" d="M 680.5 410.0 L 689.4 410.0 L 689.4 411.7 L 682.6 411.7 L 682.6 416.2 L 688.7 416.2 L 688.7 418.0 L 682.6 418.0 L 682.6 424.9 L 680.5 424.9 L 680.5 410.0 " fill="#000000"/>
<path class="atom-2" d="M 712.2 332.7 Q 712.2 329.1, 713.9 327.1 Q 715.7 325.1, 719.0 325.1 Q 722.3 325.1, 724.1 327.1 Q 725.9 329.1, 725.9 332.7 Q 725.9 336.3, 724.1 338.4 Q 722.3 340.4, 719.0 340.4 Q 715.7 340.4, 713.9 338.4 Q 712.2 336.3, 712.2 332.7 M 719.0 338.7 Q 721.3 338.7, 722.5 337.2 Q 723.8 335.7, 723.8 332.7 Q 723.8 329.7, 722.5 328.2 Q 721.3 326.7, 719.0 326.7 Q 716.7 326.7, 715.5 328.2 Q 714.3 329.7, 714.3 332.7 Q 714.3 335.7, 715.5 337.2 Q 716.7 338.7, 719.0 338.7 " fill="#000000"/>
<path class="atom-2" d="M 726.9 325.2 L 729.0 325.2 L 729.0 331.6 L 736.6 331.6 L 736.6 325.2 L 738.6 325.2 L 738.6 340.2 L 736.6 340.2 L 736.6 333.3 L 729.0 333.3 L 729.0 340.2 L 726.9 340.2 L 726.9 325.2 " fill="#000000"/>
<path class="atom-5" d="M 511.4 351.1 L 513.4 351.1 L 513.4 357.4 L 521.0 357.4 L 521.0 351.1 L 523.1 351.1 L 523.1 366.0 L 521.0 366.0 L 521.0 359.1 L 513.4 359.1 L 513.4 366.0 L 511.4 366.0 L 511.4 351.1 " fill="#000000"/>
<path class="atom-5" d="M 524.9 365.5 Q 525.2 364.6, 526.1 364.0 Q 527.0 363.5, 528.2 363.5 Q 529.7 363.5, 530.5 364.3 Q 531.3 365.1, 531.3 366.6 Q 531.3 368.0, 530.2 369.4 Q 529.2 370.8, 526.9 372.4 L 531.5 372.4 L 531.5 373.5 L 524.9 373.5 L 524.9 372.6 Q 526.7 371.2, 527.8 370.3 Q 528.9 369.3, 529.4 368.4 Q 529.9 367.5, 529.9 366.6 Q 529.9 365.7, 529.5 365.2 Q 529.0 364.6, 528.2 364.6 Q 527.4 364.6, 526.8 364.9 Q 526.3 365.3, 525.9 366.0 L 524.9 365.5 " fill="#000000"/>
<path class="atom-5" d="M 534.7 351.1 L 539.6 359.0 Q 540.1 359.8, 540.9 361.2 Q 541.7 362.6, 541.7 362.7 L 541.7 351.1 L 543.7 351.1 L 543.7 366.0 L 541.6 366.0 L 536.4 357.4 Q 535.8 356.3, 535.1 355.2 Q 534.5 354.0, 534.3 353.7 L 534.3 366.0 L 532.3 366.0 L 532.3 351.1 L 534.7 351.1 " fill="#000000"/>
<path class="bond-0 atom-0 atom-1" d="M 56.8,594.5 L 35.4,564.8" style="fill:none;fill-rule:evenodd;stroke:#000000;stroke-width:2.0px;stroke-linecap:butt;stroke-linejoin:miter;stroke-opacity:1"/>
<path class="bond-1 atom-0 atom-2" d="M 61.2,611.0 L 55.1,648.3" style="fill:none;fill-rule:evenodd;stroke:#000000;stroke-width:2.0px;stroke-linecap:butt;stroke-linejoin:miter;stroke-opacity:1"/>
<path class="bond-2 atom-2 atom-3" d="M 57.8,652.1 L 27.7,673.8" style="fill:none;fill-rule:evenodd;stroke:#000000;stroke-width:2.0px;stroke-linecap:butt;stroke-linejoin:miter;stroke-opacity:1"/>
<path class="bond-2 atom-2 atom-3" d="M 52.4,644.6 L 22.3,666.2" style="fill:none;fill-rule:evenodd;stroke:#000000;stroke-width:2.0px;stroke-linecap:butt;stroke-linejoin:miter;stroke-opacity:1"/>
<path class="bond-3 atom-2 atom-4" d="M 55.1,648.3 L 100.9,655.8" style="fill:none;fill-rule:evenodd;stroke:#000000;stroke-width:2.0px;stroke-linecap:butt;stroke-linejoin:miter;stroke-opacity:1"/>
<path class="bond-4 atom-4 atom-5" d="M 100.9,655.8 L 136.8,685.2" style="fill:none;fill-rule:evenodd;stroke:#000000;stroke-width:2.0px;stroke-linecap:butt;stroke-linejoin:miter;stroke-opacity:1"/>
<path class="bond-4 atom-4 atom-5" d="M 112.2,653.0 L 137.3,673.6" style="fill:none;fill-rule:evenodd;stroke:#000000;stroke-width:2.0px;stroke-linecap:butt;stroke-linejoin:miter;stroke-opacity:1"/>
<path class="bond-5 atom-5 atom-6" d="M 136.8,685.2 L 180.2,668.7" style="fill:none;fill-rule:evenodd;stroke:#000000;stroke-width:2.0px;stroke-linecap:butt;stroke-linejoin:miter;stroke-opacity:1"/>
<path class="bond-6 atom-6 atom-7" d="M 180.2,668.7 L 187.7,622.9" style="fill:none;fill-rule:evenodd;stroke:#000000;stroke-width:2.0px;stroke-linecap:butt;stroke-linejoin:miter;stroke-opacity:1"/>
<path class="bond-6 atom-6 atom-7" d="M 172.2,660.3 L 177.4,628.3" style="fill:none;fill-rule:evenodd;stroke:#000000;stroke-width:2.0px;stroke-linecap:butt;stroke-linejoin:miter;stroke-opacity:1"/>
<path class="bond-7 atom-7 atom-8" d="M 187.7,622.9 L 224.5,608.9" style="fill:none;fill-rule:evenodd;stroke:#000000;stroke-width:2.0px;stroke-linecap:butt;stroke-linejoin:miter;stroke-opacity:1"/>
<path class="bond-8 atom-7 atom-9" d="M 187.7,622.9 L 151.8,593.5" style="fill:none;fill-rule:evenodd;stroke:#000000;stroke-width:2.0px;stroke-linecap:butt;stroke-linejoin:miter;stroke-opacity:1"/>
<path class="bond-9 atom-9 atom-10" d="M 151.8,593.5 L 108.3,610.0" style="fill:none;fill-rule:evenodd;stroke:#000000;stroke-width:2.0px;stroke-linecap:butt;stroke-linejoin:miter;stroke-opacity:1"/>
<path class="bond-9 atom-9 atom-10" d="M 148.5,604.7 L 118.1,616.2" style="fill:none;fill-rule:evenodd;stroke:#000000;stroke-width:2.0px;stroke-linecap:butt;stroke-linejoin:miter;stroke-opacity:1"/>
<path class="bond-10 atom-10 atom-0" d="M 108.3,610.0 L 68.3,603.4" style="fill:none;fill-rule:evenodd;stroke:#000000;stroke-width:2.0px;stroke-linecap:butt;stroke-linejoin:miter;stroke-opacity:1"/>
<path class="bond-11 atom-10 atom-4" d="M 108.3,610.0 L 100.9,655.8" style="fill:none;fill-rule:evenodd;stroke:#000000;stroke-width:2.0px;stroke-linecap:butt;stroke-linejoin:miter;stroke-opacity:1"/>
<path class="atom-0" d="M 58.8 607.0 Q 59.0 607.1, 59.6 607.3 Q 60.2 607.6, 60.9 607.8 Q 61.5 607.9, 62.2 607.9 Q 63.5 607.9, 64.2 607.3 Q 64.9 606.7, 64.9 605.7 Q 64.9 604.9, 64.5 604.5 Q 64.2 604.0, 63.6 603.8 Q 63.1 603.6, 62.1 603.3 Q 61.0 602.9, 60.3 602.6 Q 59.6 602.3, 59.1 601.5 Q 58.6 600.8, 58.6 599.7 Q 58.6 598.0, 59.7 597.0 Q 60.8 596.0, 63.1 596.0 Q 64.6 596.0, 66.3 596.7 L 65.9 598.1 Q 64.3 597.5, 63.1 597.5 Q 61.8 597.5, 61.1 598.0 Q 60.4 598.5, 60.5 599.4 Q 60.5 600.1, 60.8 600.6 Q 61.2 601.0, 61.7 601.2 Q 62.2 601.5, 63.1 601.8 Q 64.3 602.1, 65.0 602.5 Q 65.7 602.9, 66.2 603.6 Q 66.7 604.4, 66.7 605.7 Q 66.7 607.5, 65.5 608.5 Q 64.3 609.4, 62.3 609.4 Q 61.1 609.4, 60.2 609.2 Q 59.4 608.9, 58.3 608.5 L 58.8 607.0 " fill="#000000"/>
<path class="atom-3" d="M 11.4 675.5 Q 11.4 672.3, 12.9 670.6 Q 14.5 668.8, 17.4 668.8 Q 20.3 668.8, 21.9 670.6 Q 23.4 672.3, 23.4 675.5 Q 23.4 678.7, 21.9 680.5 Q 20.3 682.3, 17.4 682.3 Q 14.5 682.3, 12.9 680.5 Q 11.4 678.7, 11.4 675.5 M 17.4 680.8 Q 19.4 680.8, 20.5 679.5 Q 21.6 678.1, 21.6 675.5 Q 21.6 672.9, 20.5 671.6 Q 19.4 670.3, 17.4 670.3 Q 15.4 670.3, 14.3 671.6 Q 13.2 672.9, 13.2 675.5 Q 13.2 678.1, 14.3 679.5 Q 15.4 680.8, 17.4 680.8 " fill="#000000"/>
<path class="atom-8" d="M 226.0 606.9 Q 226.0 603.6, 227.6 601.9 Q 229.1 600.2, 232.0 600.2 Q 234.7 600.2, 236.2 602.1 L 235.0 603.1 Q 233.9 601.7, 232.0 601.7 Q 230.0 601.7, 229.0 603.1 Q 227.9 604.4, 227.9 606.9 Q 227.9 609.5, 229.0 610.8 Q 230.1 612.2, 232.2 612.2 Q 233.7 612.2, 235.4 611.3 L 235.9 612.7 Q 235.2 613.1, 234.2 613.4 Q 233.1 613.7, 232.0 613.7 Q 229.1 613.7, 227.6 611.9 Q 226.0 610.2, 226.0 606.9 " fill="#000000"/>
<path class="atom-8" d="M 236.9 599.4 L 238.6 599.4 L 238.6 613.5 L 236.9 613.5 L 236.9 599.4 " fill="#000000"/>
<path class="atom-0" d="M 56.5,602.5 L 56.5,602.6 L 56.4,602.7 L 56.4,602.8 L 56.4,602.8 L 56.4,602.9 L 56.3,603.0 L 56.3,603.0 L 56.2,603.1 L 56.2,603.2 L 56.1,603.2 L 56.1,603.3 L 56.0,603.3 L 55.9,603.3 L 55.9,603.4 L 55.8,603.4 L 55.7,603.4 L 55.6,603.4 L 55.6,603.4 L 55.5,603.4 L 55.4,603.4 L 55.3,603.4 L 55.2,603.4 L 55.2,603.4 L 55.1,603.3 L 55.0,603.3 L 55.0,603.2 L 54.9,603.2 L 54.8,603.1 L 54.8,603.1 L 54.7,603.0 L 54.7,602.9 L 54.7,602.9 L 54.6,602.8 L 54.6,602.7 L 54.6,602.6 L 54.6,602.6 L 54.6,602.5 L 54.6,602.4 L 54.6,602.3 L 54.6,602.2 L 54.7,602.2 L 54.7,602.1 L 54.7,602.0 L 54.8,602.0 L 54.8,601.9 L 54.9,601.8 L 55.0,601.8 L 55.0,601.7 L 55.1,601.7 L 55.2,601.7 L 55.2,601.6 L 55.3,601.6 L 55.4,601.6 L 55.5,601.6 L 55.6,601.6 L 55.6,601.6 L 55.7,601.6 L 55.8,601.6 L 55.9,601.6 L 55.9,601.7 L 56.0,601.7 L 56.1,601.8 L 56.1,601.8 L 56.2,601.9 L 56.2,601.9 L 56.3,602.0 L 56.3,602.1 L 56.4,602.1 L 56.4,602.2 L 56.4,602.3 L 56.4,602.4 L 56.5,602.4 L 56.5,602.5 L 55.5,602.5 Z" style="fill:#000000;fill-rule:evenodd;fill-opacity:1;stroke:#000000;stroke-width:0.0px;stroke-linecap:butt;stroke-linejoin:miter;stroke-opacity:1;"/>
<path class="bond-0 atom-0 atom-1" d="M 389.6,702.2 L 384.2,711.5" style="fill:none;fill-rule:evenodd;stroke:#000000;stroke-width:2.0px;stroke-linecap:butt;stroke-linejoin:miter;stroke-opacity:1"/>
<path class="bond-1 atom-0 atom-2" d="M 396.8,699.0 L 409.6,699.0" style="fill:none;fill-rule:evenodd;stroke:#000000;stroke-width:2.0px;stroke-linecap:butt;stroke-linejoin:miter;stroke-opacity:1"/>
<path class="bond-2 atom-2 atom-3" d="M 409.6,699.0 L 417.4,715.4" style="fill:none;fill-rule:evenodd;stroke:#000000;stroke-width:2.0px;stroke-linecap:butt;stroke-linejoin:miter;stroke-opacity:1"/>
<path class="bond-3 atom-3 atom-4" d="M 417.4,715.4 L 435.1,719.4" style="fill:none;fill-rule:evenodd;stroke:#000000;stroke-width:2.0px;stroke-linecap:butt;stroke-linejoin:miter;stroke-opacity:1"/>
<path class="bond-4 atom-4 atom-5" d="M 435.1,719.4 L 449.3,708.1" style="fill:none;fill-rule:evenodd;stroke:#000000;stroke-width:2.0px;stroke-linecap:butt;stroke-linejoin:miter;stroke-opacity:1"/>
<path class="bond-5 atom-5 atom-6" d="M 449.3,708.1 L 449.3,690.0" style="fill:none;fill-rule:evenodd;stroke:#000000;stroke-width:2.0px;stroke-linecap:butt;stroke-linejoin:miter;stroke-opacity:1"/>
<path class="bond-6 atom-6 atom-7" d="M 449.3,690.0 L 435.1,678.7" style="fill:none;fill-rule:evenodd;stroke:#000000;stroke-width:2.0px;stroke-linecap:butt;stroke-linejoin:miter;stroke-opacity:1"/>
<path class="bond-7 atom-7 atom-8" d="M 435.1,678.7 L 417.4,682.7" style="fill:none;fill-rule:evenodd;stroke:#000000;stroke-width:2.0px;stroke-linecap:butt;stroke-linejoin:miter;stroke-opacity:1"/>
<path class="bond-8 atom-8 atom-9" d="M 417.4,682.7 L 408.4,671.3" style="fill:none;fill-rule:evenodd;stroke:#000000;stroke-width:2.0px;stroke-linecap:butt;stroke-linejoin:miter;stroke-opacity:1"/>
<path class="bond-8 atom-8 atom-9" d="M 418.9,678.7 L 412.6,670.8" style="fill:none;fill-rule:evenodd;stroke:#000000;stroke-width:2.0px;stroke-linecap:butt;stroke-linejoin:miter;stroke-opacity:1"/>
<path class="bond-9 atom-9 atom-10" d="M 403.3,668.9 L 388.5,673.0 L 388.0,669.4 Z" style="fill:#000000;fill-rule:evenodd;fill-opacity:1;stroke:#000000;stroke-width:1.0px;stroke-linecap:butt;stroke-linejoin:miter;stroke-opacity:1;"/>
<path class="bond-10 atom-9 atom-11" d="M 407.4,665.4 L 412.8,651.6" style="fill:none;fill-rule:evenodd;stroke:#000000;stroke-width:2.0px;stroke-linecap:butt;stroke-linejoin:miter;stroke-opacity:1"/>
<path class="bond-11 atom-11 atom-12" d="M 412.8,651.6 L 410.1,633.7" style="fill:none;fill-rule:evenodd;stroke:#000000;stroke-width:2.0px;stroke-linecap:butt;stroke-linejoin:miter;stroke-opacity:1"/>
<path class="bond-12 atom-12 atom-13" d="M 410.1,633.7 L 427.0,640.3" style="fill:none;fill-rule:evenodd;stroke:#000000;stroke-width:2.0px;stroke-linecap:butt;stroke-linejoin:miter;stroke-opacity:1"/>
<path class="bond-13 atom-13 atom-14" d="M 427.0,640.3 L 442.6,638.0" style="fill:none;fill-rule:evenodd;stroke:#000000;stroke-width:2.0px;stroke-linecap:butt;stroke-linejoin:miter;stroke-opacity:1"/>
<path class="bond-14 atom-14 atom-15" d="M 446.1,634.5 L 451.5,620.8" style="fill:none;fill-rule:evenodd;stroke:#000000;stroke-width:2.0px;stroke-linecap:butt;stroke-linejoin:miter;stroke-opacity:1"/>
<path class="bond-15 atom-15 atom-16" d="M 451.5,620.8 L 469.6,619.4" style="fill:none;fill-rule:evenodd;stroke:#000000;stroke-width:2.0px;stroke-linecap:butt;stroke-linejoin:miter;stroke-opacity:1"/>
<path class="bond-16 atom-16 atom-17" d="M 469.6,619.4 L 477.6,607.7" style="fill:none;fill-rule:evenodd;stroke:#000000;stroke-width:2.0px;stroke-linecap:butt;stroke-linejoin:miter;stroke-opacity:1"/>
<path class="bond-17 atom-17 atom-18" d="M 478.8,601.3 L 474.5,587.1" style="fill:none;fill-rule:evenodd;stroke:#000000;stroke-width:2.0px;stroke-linecap:butt;stroke-linejoin:miter;stroke-opacity:1"/>
<path class="bond-18 atom-18 atom-19" d="M 474.5,587.1 L 488.6,575.8" style="fill:none;fill-rule:evenodd;stroke:#000000;stroke-width:2.0px;stroke-linecap:butt;stroke-linejoin:miter;stroke-opacity:1"/>
<path class="bond-18 atom-18 atom-19" d="M 474.3,582.6 L 484.3,574.7" style="fill:none;fill-rule:evenodd;stroke:#000000;stroke-width:2.0px;stroke-linecap:butt;stroke-linejoin:miter;stroke-opacity:1"/>
<path class="bond-19 atom-19 atom-20" d="M 488.6,575.8 L 485.9,557.9" style="fill:none;fill-rule:evenodd;stroke:#000000;stroke-width:2.0px;stroke-linecap:butt;stroke-linejoin:miter;stroke-opacity:1"/>
<path class="bond-20 atom-20 atom-21" d="M 485.9,557.9 L 469.1,551.3" style="fill:none;fill-rule:evenodd;stroke:#000000;stroke-width:2.0px;stroke-linecap:butt;stroke-linejoin:miter;stroke-opacity:1"/>
<path class="bond-20 atom-20 atom-21" d="M 482.1,560.3 L 470.3,555.7" style="fill:none;fill-rule:evenodd;stroke:#000000;stroke-width:2.0px;stroke-linecap:butt;stroke-linejoin:miter;stroke-opacity:1"/>
<path class="bond-21 atom-21 atom-22" d="M 469.1,551.3 L 466.9,536.8" style="fill:none;fill-rule:evenodd;stroke:#000000;stroke-width:2.0px;stroke-linecap:butt;stroke-linejoin:miter;stroke-opacity:1"/>
<path class="bond-22 atom-21 atom-23" d="M 469.1,551.3 L 454.9,562.6" style="fill:none;fill-rule:evenodd;stroke:#000000;stroke-width:2.0px;stroke-linecap:butt;stroke-linejoin:miter;stroke-opacity:1"/>
<path class="bond-23 atom-23 atom-24" d="M 454.9,562.6 L 457.6,580.5" style="fill:none;fill-rule:evenodd;stroke:#000000;stroke-width:2.0px;stroke-linecap:butt;stroke-linejoin:miter;stroke-opacity:1"/>
<path class="bond-23 atom-23 atom-24" d="M 458.9,564.7 L 460.8,577.3" style="fill:none;fill-rule:evenodd;stroke:#000000;stroke-width:2.0px;stroke-linecap:butt;stroke-linejoin:miter;stroke-opacity:1"/>
<path class="bond-24 atom-24 atom-25" d="M 457.6,580.5 L 444.4,588.1" style="fill:none;fill-rule:evenodd;stroke:#000000;stroke-width:2.0px;stroke-linecap:butt;stroke-linejoin:miter;stroke-opacity:1"/>
<path class="bond-25 atom-25 atom-26" d="M 441.4,592.7 L 439.7,604.3" style="fill:none;fill-rule:evenodd;stroke:#000000;stroke-width:2.0px;stroke-linecap:butt;stroke-linejoin:miter;stroke-opacity:1"/>
<path class="bond-26 atom-26 atom-27" d="M 436.9,608.2 L 427.4,611.1" style="fill:none;fill-rule:evenodd;stroke:#000000;stroke-width:2.0px;stroke-linecap:butt;stroke-linejoin:miter;stroke-opacity:1"/>
<path class="bond-27 atom-27 atom-28" d="M 418.9,610.1 L 410.8,602.6" style="fill:none;fill-rule:evenodd;stroke:#000000;stroke-width:2.0px;stroke-linecap:butt;stroke-linejoin:miter;stroke-opacity:1"/>
<path class="bond-28 atom-28 atom-29" d="M 406.3,601.2 L 396.1,604.3" style="fill:none;fill-rule:evenodd;stroke:#000000;stroke-width:2.0px;stroke-linecap:butt;stroke-linejoin:miter;stroke-opacity:1"/>
<path class="bond-29 atom-29 atom-30" d="M 389.0,603.7 L 378.0,593.5" style="fill:none;fill-rule:evenodd;stroke:#000000;stroke-width:2.0px;stroke-linecap:butt;stroke-linejoin:miter;stroke-opacity:1"/>
<path class="bond-30 atom-30 atom-31" d="M 378.0,593.5 L 362.9,598.1" style="fill:none;fill-rule:evenodd;stroke:#000000;stroke-width:2.0px;stroke-linecap:butt;stroke-linejoin:miter;stroke-opacity:1"/>
<path class="bond-31 atom-31 atom-32" d="M 358.4,596.7 L 347.4,586.5" style="fill:none;fill-rule:evenodd;stroke:#000000;stroke-width:2.0px;stroke-linecap:butt;stroke-linejoin:miter;stroke-opacity:1"/>
<path class="bond-32 atom-32 atom-33" d="M 347.4,586.5 L 351.4,568.8" style="fill:none;fill-rule:evenodd;stroke:#000000;stroke-width:2.0px;stroke-linecap:butt;stroke-linejoin:miter;stroke-opacity:1"/>
<path class="bond-32 atom-32 atom-33" d="M 344.4,583.0 L 347.3,570.7" style="fill:none;fill-rule:evenodd;stroke:#000000;stroke-width:2.0px;stroke-linecap:butt;stroke-linejoin:miter;stroke-opacity:1"/>
<path class="bond-33 atom-33 atom-34" d="M 351.4,568.8 L 338.1,556.5" style="fill:none;fill-rule:evenodd;stroke:#000000;stroke-width:2.0px;stroke-linecap:butt;stroke-linejoin:miter;stroke-opacity:1"/>
<path class="bond-34 atom-34 atom-35" d="M 338.1,556.5 L 320.8,561.8" style="fill:none;fill-rule:evenodd;stroke:#000000;stroke-width:2.0px;stroke-linecap:butt;stroke-linejoin:miter;stroke-opacity:1"/>
<path class="bond-34 atom-34 atom-35" d="M 336.6,560.8 L 324.5,564.5" style="fill:none;fill-rule:evenodd;stroke:#000000;stroke-width:2.0px;stroke-linecap:butt;stroke-linejoin:miter;stroke-opacity:1"/>
<path class="bond-35 atom-35 atom-36" d="M 320.8,561.8 L 308.4,550.4" style="fill:none;fill-rule:evenodd;stroke:#000000;stroke-width:2.0px;stroke-linecap:butt;stroke-linejoin:miter;stroke-opacity:1"/>
<path class="bond-36 atom-35 atom-37" d="M 320.8,561.8 L 316.8,579.5" style="fill:none;fill-rule:evenodd;stroke:#000000;stroke-width:2.0px;stroke-linecap:butt;stroke-linejoin:miter;stroke-opacity:1"/>
<path class="bond-37 atom-37 atom-38" d="M 316.8,579.5 L 330.0,591.8" style="fill:none;fill-rule:evenodd;stroke:#000000;stroke-width:2.0px;stroke-linecap:butt;stroke-linejoin:miter;stroke-opacity:1"/>
<path class="bond-37 atom-37 atom-38" d="M 321.2,578.7 L 330.5,587.3" style="fill:none;fill-rule:evenodd;stroke:#000000;stroke-width:2.0px;stroke-linecap:butt;stroke-linejoin:miter;stroke-opacity:1"/>
<path class="bond-38 atom-38 atom-39" d="M 330.0,591.8 L 326.0,609.5" style="fill:none;fill-rule:evenodd;stroke:#000000;stroke-width:2.0px;stroke-linecap:butt;stroke-linejoin:miter;stroke-opacity:1"/>
<path class="bond-39 atom-39 atom-40" d="M 326.0,609.5 L 308.7,614.8" style="fill:none;fill-rule:evenodd;stroke:#000000;stroke-width:2.0px;stroke-linecap:butt;stroke-linejoin:miter;stroke-opacity:1"/>
<path class="bond-40 atom-40 atom-41" d="M 308.7,614.8 L 304.6,632.5" style="fill:none;fill-rule:evenodd;stroke:#000000;stroke-width:2.0px;stroke-linecap:butt;stroke-linejoin:miter;stroke-opacity:1"/>
<path class="bond-41 atom-41 atom-42" d="M 304.6,632.5 L 287.3,637.9" style="fill:none;fill-rule:evenodd;stroke:#000000;stroke-width:2.0px;stroke-linecap:butt;stroke-linejoin:miter;stroke-opacity:1"/>
<path class="bond-42 atom-42 atom-43" d="M 287.3,637.9 L 284.0,652.3" style="fill:none;fill-rule:evenodd;stroke:#000000;stroke-width:2.0px;stroke-linecap:butt;stroke-linejoin:miter;stroke-opacity:1"/>
<path class="bond-43 atom-43 atom-44" d="M 280.3,656.4 L 266.9,660.6" style="fill:none;fill-rule:evenodd;stroke:#000000;stroke-width:2.0px;stroke-linecap:butt;stroke-linejoin:miter;stroke-opacity:1"/>
<path class="bond-44 atom-8 atom-2" d="M 417.4,682.7 L 409.6,699.0" style="fill:none;fill-rule:evenodd;stroke:#000000;stroke-width:2.0px;stroke-linecap:butt;stroke-linejoin:miter;stroke-opacity:1"/>
<path class="bond-45 atom-13 atom-11" d="M 427.0,640.3 L 412.8,651.6" style="fill:none;fill-rule:evenodd;stroke:#000000;stroke-width:2.0px;stroke-linecap:butt;stroke-linejoin:miter;stroke-opacity:1"/>
<path class="bond-46 atom-26 atom-15" d="M 441.4,609.9 L 451.5,620.8" style="fill:none;fill-rule:evenodd;stroke:#000000;stroke-width:2.0px;stroke-linecap:butt;stroke-linejoin:miter;stroke-opacity:1"/>
<path class="bond-47 atom-24 atom-18" d="M 457.6,580.5 L 474.5,587.1" style="fill:none;fill-rule:evenodd;stroke:#000000;stroke-width:2.0px;stroke-linecap:butt;stroke-linejoin:miter;stroke-opacity:1"/>
<path class="bond-48 atom-38 atom-32" d="M 330.0,591.8 L 347.4,586.5" style="fill:none;fill-rule:evenodd;stroke:#000000;stroke-width:2.0px;stroke-linecap:butt;stroke-linejoin:miter;stroke-opacity:1"/>
<path class="atom-0" d="M 390.3 696.4 L 392.0 699.2 Q 392.2 699.4, 392.4 699.9 Q 392.7 700.4, 392.7 700.4 L 392.7 696.4 L 393.4 696.4 L 393.4 701.6 L 392.7 701.6 L 390.9 698.6 Q 390.7 698.3, 390.4 697.9 Q 390.2 697.5, 390.2 697.3 L 390.2 701.6 L 389.5 701.6 L 389.5 696.4 L 390.3 696.4 " fill="#000000"/>
<path class="atom-0" d="M 394.0 697.4 L 394.9 697.4 L 394.9 696.4 L 395.3 696.4 L 395.3 697.4 L 396.2 697.4 L 396.2 697.7 L 395.3 697.7 L 395.3 698.7 L 394.9 698.7 L 394.9 697.7 L 394.0 697.7 L 394.0 697.4 " fill="#000000"/>
<path class="atom-1" d="M 380.0 714.7 Q 380.0 713.5, 380.6 712.8 Q 381.2 712.1, 382.4 712.1 Q 383.5 712.1, 384.1 712.8 Q 384.7 713.5, 384.7 714.7 Q 384.7 716.0, 384.1 716.7 Q 383.5 717.4, 382.4 717.4 Q 381.2 717.4, 380.6 716.7 Q 380.0 716.0, 380.0 714.7 M 382.4 716.8 Q 383.2 716.8, 383.6 716.3 Q 384.0 715.8, 384.0 714.7 Q 384.0 713.7, 383.6 713.2 Q 383.2 712.7, 382.4 712.7 Q 381.6 712.7, 381.2 713.2 Q 380.7 713.7, 380.7 714.7 Q 380.7 715.8, 381.2 716.3 Q 381.6 716.8, 382.4 716.8 " fill="#000000"/>
<path class="atom-1" d="M 385.1 713.0 L 386.9 713.0 L 386.9 713.3 L 385.1 713.3 L 385.1 713.0 " fill="#000000"/>
<path class="atom-9" d="M 404.7 670.3 Q 404.8 670.3, 405.0 670.4 Q 405.2 670.5, 405.5 670.6 Q 405.8 670.6, 406.0 670.6 Q 406.5 670.6, 406.8 670.4 Q 407.1 670.2, 407.1 669.7 Q 407.1 669.5, 406.9 669.3 Q 406.8 669.1, 406.6 669.0 Q 406.4 668.9, 406.0 668.8 Q 405.5 668.7, 405.3 668.5 Q 405.0 668.4, 404.8 668.1 Q 404.6 667.9, 404.6 667.4 Q 404.6 666.8, 405.0 666.4 Q 405.5 666.0, 406.4 666.0 Q 407.0 666.0, 407.6 666.2 L 407.5 666.8 Q 406.8 666.5, 406.4 666.5 Q 405.9 666.5, 405.6 666.8 Q 405.3 667.0, 405.3 667.3 Q 405.3 667.6, 405.5 667.8 Q 405.6 667.9, 405.8 668.0 Q 406.0 668.1, 406.4 668.2 Q 406.8 668.4, 407.1 668.5 Q 407.4 668.7, 407.6 669.0 Q 407.8 669.2, 407.8 669.7 Q 407.8 670.5, 407.3 670.8 Q 406.8 671.2, 406.1 671.2 Q 405.6 671.2, 405.2 671.1 Q 404.9 671.0, 404.5 670.8 L 404.7 670.3 " fill="#000000"/>
<path class="atom-14" d="M 443.4 639.4 Q 443.5 639.4, 443.7 639.5 Q 444.0 639.6, 444.2 639.7 Q 444.5 639.8, 444.8 639.8 Q 445.2 639.8, 445.5 639.5 Q 445.8 639.3, 445.8 638.9 Q 445.8 638.6, 445.7 638.4 Q 445.5 638.2, 445.3 638.2 Q 445.1 638.1, 444.7 637.9 Q 444.3 637.8, 444.0 637.7 Q 443.7 637.5, 443.5 637.3 Q 443.3 637.0, 443.3 636.5 Q 443.3 635.9, 443.8 635.5 Q 444.2 635.1, 445.1 635.1 Q 445.7 635.1, 446.4 635.4 L 446.2 635.9 Q 445.6 635.7, 445.1 635.7 Q 444.6 635.7, 444.3 635.9 Q 444.1 636.1, 444.1 636.4 Q 444.1 636.7, 444.2 636.9 Q 444.3 637.1, 444.6 637.2 Q 444.8 637.2, 445.1 637.4 Q 445.6 637.5, 445.8 637.6 Q 446.1 637.8, 446.3 638.1 Q 446.5 638.4, 446.5 638.9 Q 446.5 639.6, 446.0 640.0 Q 445.6 640.3, 444.8 640.3 Q 444.3 640.3, 444.0 640.2 Q 443.6 640.2, 443.2 640.0 L 443.4 639.4 " fill="#000000"/>
<path class="atom-17" d="M 478.3 606.2 Q 478.4 606.2, 478.6 606.3 Q 478.9 606.4, 479.1 606.5 Q 479.4 606.6, 479.7 606.6 Q 480.2 606.6, 480.4 606.3 Q 480.7 606.1, 480.7 605.7 Q 480.7 605.4, 480.6 605.2 Q 480.4 605.1, 480.2 605.0 Q 480.0 604.9, 479.6 604.8 Q 479.2 604.6, 478.9 604.5 Q 478.6 604.4, 478.4 604.1 Q 478.3 603.8, 478.3 603.3 Q 478.3 602.7, 478.7 602.3 Q 479.1 601.9, 480.0 601.9 Q 480.6 601.9, 481.3 602.2 L 481.1 602.7 Q 480.5 602.5, 480.0 602.5 Q 479.5 602.5, 479.3 602.7 Q 479.0 602.9, 479.0 603.3 Q 479.0 603.5, 479.1 603.7 Q 479.3 603.9, 479.5 604.0 Q 479.7 604.1, 480.0 604.2 Q 480.5 604.3, 480.8 604.4 Q 481.0 604.6, 481.2 604.9 Q 481.4 605.2, 481.4 605.7 Q 481.4 606.4, 481.0 606.8 Q 480.5 607.2, 479.7 607.2 Q 479.2 607.2, 478.9 607.1 Q 478.6 607.0, 478.2 606.8 L 478.3 606.2 " fill="#000000"/>
<path class="atom-22" d="M 464.4 533.5 Q 464.4 532.3, 465.0 531.6 Q 465.6 530.9, 466.7 530.9 Q 467.8 530.9, 468.4 531.7 L 467.9 532.1 Q 467.5 531.5, 466.7 531.5 Q 466.0 531.5, 465.5 532.0 Q 465.1 532.5, 465.1 533.5 Q 465.1 534.6, 465.6 535.1 Q 466.0 535.6, 466.8 535.6 Q 467.4 535.6, 468.0 535.3 L 468.2 535.8 Q 468.0 536.0, 467.6 536.1 Q 467.2 536.2, 466.7 536.2 Q 465.6 536.2, 465.0 535.5 Q 464.4 534.8, 464.4 533.5 " fill="#000000"/>
<path class="atom-22" d="M 468.6 530.6 L 469.3 530.6 L 469.3 536.1 L 468.6 536.1 L 468.6 530.6 " fill="#000000"/>
<path class="atom-25" d="M 435.3 587.0 L 436.0 587.0 L 436.0 589.2 L 438.6 589.2 L 438.6 587.0 L 439.3 587.0 L 439.3 592.1 L 438.6 592.1 L 438.6 589.8 L 436.0 589.8 L 436.0 592.1 L 435.3 592.1 L 435.3 587.0 " fill="#000000"/>
<path class="atom-25" d="M 440.8 587.0 L 442.4 589.7 Q 442.6 590.0, 442.9 590.5 Q 443.1 591.0, 443.2 591.0 L 443.2 587.0 L 443.8 587.0 L 443.8 592.1 L 443.1 592.1 L 441.3 589.2 Q 441.1 588.8, 440.9 588.4 Q 440.7 588.0, 440.6 587.9 L 440.6 592.1 L 439.9 592.1 L 439.9 587.0 L 440.8 587.0 " fill="#000000"/>
<path class="atom-26" d="M 439.1 604.9 Q 439.9 604.9, 440.4 605.3 Q 440.8 605.7, 440.8 606.4 Q 440.8 607.1, 440.4 607.5 Q 439.9 607.9, 439.1 607.9 L 438.2 607.9 L 438.2 610.1 L 437.5 610.1 L 437.5 604.9 L 439.1 604.9 M 439.1 607.4 Q 439.6 607.4, 439.8 607.1 Q 440.1 606.9, 440.1 606.4 Q 440.1 606.0, 439.8 605.7 Q 439.6 605.5, 439.1 605.5 L 438.2 605.5 L 438.2 607.4 L 439.1 607.4 " fill="#000000"/>
<path class="atom-26" d="M 441.2 605.8 L 442.1 605.8 L 442.1 604.9 L 442.5 604.9 L 442.5 605.8 L 443.4 605.8 L 443.4 606.2 L 442.5 606.2 L 442.5 607.1 L 442.1 607.1 L 442.1 606.2 L 441.2 606.2 L 441.2 605.8 " fill="#000000"/>
<path class="atom-27" d="M 419.5 612.8 Q 419.5 611.6, 420.1 610.9 Q 420.7 610.2, 421.9 610.2 Q 423.0 610.2, 423.6 610.9 Q 424.2 611.6, 424.2 612.8 Q 424.2 614.1, 423.6 614.8 Q 423.0 615.5, 421.9 615.5 Q 420.7 615.5, 420.1 614.8 Q 419.5 614.1, 419.5 612.8 M 421.9 614.9 Q 422.6 614.9, 423.1 614.4 Q 423.5 613.9, 423.5 612.8 Q 423.5 611.8, 423.1 611.3 Q 422.6 610.8, 421.9 610.8 Q 421.1 610.8, 420.6 611.3 Q 420.2 611.8, 420.2 612.8 Q 420.2 613.9, 420.6 614.4 Q 421.1 614.9, 421.9 614.9 " fill="#000000"/>
<path class="atom-27" d="M 424.6 611.1 L 425.5 611.1 L 425.5 610.2 L 425.9 610.2 L 425.9 611.1 L 426.8 611.1 L 426.8 611.5 L 425.9 611.5 L 425.9 612.4 L 425.5 612.4 L 425.5 611.5 L 424.6 611.5 L 424.6 611.1 " fill="#000000"/>
<path class="atom-28" d="M 407.1 602.3 Q 407.2 602.3, 407.4 602.4 Q 407.7 602.5, 407.9 602.5 Q 408.2 602.6, 408.4 602.6 Q 408.9 602.6, 409.2 602.4 Q 409.5 602.1, 409.5 601.7 Q 409.5 601.4, 409.4 601.3 Q 409.2 601.1, 409.0 601.0 Q 408.8 600.9, 408.4 600.8 Q 408.0 600.6, 407.7 600.5 Q 407.4 600.4, 407.2 600.1 Q 407.0 599.8, 407.0 599.4 Q 407.0 598.7, 407.5 598.3 Q 407.9 597.9, 408.8 597.9 Q 409.4 597.9, 410.1 598.2 L 409.9 598.8 Q 409.3 598.5, 408.8 598.5 Q 408.3 598.5, 408.0 598.7 Q 407.8 598.9, 407.8 599.3 Q 407.8 599.6, 407.9 599.7 Q 408.0 599.9, 408.2 600.0 Q 408.5 600.1, 408.8 600.2 Q 409.3 600.3, 409.5 600.5 Q 409.8 600.6, 410.0 600.9 Q 410.2 601.2, 410.2 601.7 Q 410.2 602.4, 409.7 602.8 Q 409.3 603.2, 408.5 603.2 Q 408.0 603.2, 407.7 603.1 Q 407.3 603.0, 406.9 602.8 L 407.1 602.3 " fill="#000000"/>
<path class="atom-29" d="M 389.8 607.6 Q 389.9 607.6, 390.1 607.7 Q 390.3 607.8, 390.6 607.9 Q 390.9 607.9, 391.1 607.9 Q 391.6 607.9, 391.9 607.7 Q 392.2 607.5, 392.2 607.1 Q 392.2 606.8, 392.0 606.6 Q 391.9 606.4, 391.7 606.3 Q 391.5 606.2, 391.1 606.1 Q 390.6 606.0, 390.4 605.9 Q 390.1 605.7, 389.9 605.5 Q 389.7 605.2, 389.7 604.7 Q 389.7 604.1, 390.1 603.7 Q 390.6 603.3, 391.5 603.3 Q 392.1 603.3, 392.7 603.6 L 392.6 604.1 Q 391.9 603.9, 391.5 603.9 Q 391.0 603.9, 390.7 604.1 Q 390.4 604.3, 390.4 604.6 Q 390.4 604.9, 390.6 605.1 Q 390.7 605.2, 390.9 605.3 Q 391.1 605.4, 391.5 605.5 Q 391.9 605.7, 392.2 605.8 Q 392.5 606.0, 392.7 606.3 Q 392.9 606.6, 392.9 607.1 Q 392.9 607.8, 392.4 608.1 Q 391.9 608.5, 391.2 608.5 Q 390.7 608.5, 390.4 608.4 Q 390.0 608.3, 389.6 608.2 L 389.8 607.6 " fill="#000000"/>
<path class="atom-29" d="M 393.2 604.1 L 394.1 604.1 L 394.1 603.2 L 394.5 603.2 L 394.5 604.1 L 395.5 604.1 L 395.5 604.5 L 394.5 604.5 L 394.5 605.4 L 394.1 605.4 L 394.1 604.5 L 393.2 604.5 L 393.2 604.1 " fill="#000000"/>
<path class="atom-31" d="M 359.2 600.6 Q 359.2 600.6, 359.5 600.7 Q 359.7 600.8, 360.0 600.9 Q 360.3 600.9, 360.5 600.9 Q 361.0 600.9, 361.3 600.7 Q 361.6 600.5, 361.6 600.1 Q 361.6 599.8, 361.4 599.6 Q 361.3 599.4, 361.1 599.3 Q 360.9 599.2, 360.5 599.1 Q 360.0 599.0, 359.8 598.9 Q 359.5 598.7, 359.3 598.5 Q 359.1 598.2, 359.1 597.7 Q 359.1 597.1, 359.5 596.7 Q 360.0 596.3, 360.9 596.3 Q 361.4 596.3, 362.1 596.6 L 362.0 597.1 Q 361.3 596.9, 360.9 596.9 Q 360.4 596.9, 360.1 597.1 Q 359.8 597.3, 359.8 597.6 Q 359.8 597.9, 360.0 598.1 Q 360.1 598.2, 360.3 598.3 Q 360.5 598.4, 360.9 598.5 Q 361.3 598.7, 361.6 598.8 Q 361.9 599.0, 362.1 599.3 Q 362.3 599.6, 362.3 600.1 Q 362.3 600.8, 361.8 601.2 Q 361.3 601.5, 360.5 601.5 Q 360.1 601.5, 359.7 601.4 Q 359.4 601.3, 359.0 601.2 L 359.2 600.6 " fill="#000000"/>
<path class="atom-36" d="M 302.9 549.7 Q 302.9 548.4, 303.5 547.7 Q 304.1 547.1, 305.3 547.1 Q 306.3 547.1, 306.9 547.8 L 306.4 548.2 Q 306.0 547.6, 305.3 547.6 Q 304.5 547.6, 304.1 548.2 Q 303.7 548.7, 303.7 549.7 Q 303.7 550.7, 304.1 551.2 Q 304.5 551.7, 305.3 551.7 Q 305.9 551.7, 306.6 551.4 L 306.8 551.9 Q 306.5 552.1, 306.1 552.2 Q 305.7 552.3, 305.2 552.3 Q 304.1 552.3, 303.5 551.6 Q 302.9 550.9, 302.9 549.7 " fill="#000000"/>
<path class="atom-36" d="M 307.2 546.7 L 307.8 546.7 L 307.8 552.2 L 307.2 552.2 L 307.2 546.7 " fill="#000000"/>
<path class="atom-43" d="M 280.9 655.5 Q 280.9 654.3, 281.5 653.6 Q 282.1 652.9, 283.3 652.9 Q 284.4 652.9, 285.0 653.6 Q 285.6 654.3, 285.6 655.5 Q 285.6 656.8, 285.0 657.5 Q 284.4 658.2, 283.3 658.2 Q 282.1 658.2, 281.5 657.5 Q 280.9 656.8, 280.9 655.5 M 283.3 657.6 Q 284.1 657.6, 284.5 657.1 Q 284.9 656.6, 284.9 655.5 Q 284.9 654.5, 284.5 654.0 Q 284.1 653.5, 283.3 653.5 Q 282.5 653.5, 282.1 654.0 Q 281.6 654.5, 281.6 655.5 Q 281.6 656.6, 282.1 657.1 Q 282.5 657.6, 283.3 657.6 " fill="#000000"/>
<path class="atom-44" d="M 261.4 661.0 Q 261.4 659.8, 262.0 659.1 Q 262.6 658.4, 263.7 658.4 Q 264.8 658.4, 265.3 659.2 L 264.8 659.6 Q 264.4 659.0, 263.7 659.0 Q 262.9 659.0, 262.5 659.5 Q 262.1 660.1, 262.1 661.0 Q 262.1 662.1, 262.5 662.6 Q 263.0 663.1, 263.8 663.1 Q 264.3 663.1, 265.0 662.8 L 265.2 663.3 Q 264.9 663.5, 264.5 663.6 Q 264.1 663.7, 263.7 663.7 Q 262.6 663.7, 262.0 663.0 Q 261.4 662.3, 261.4 661.0 " fill="#000000"/>
<path class="atom-44" d="M 265.6 658.1 L 266.3 658.1 L 266.3 663.6 L 265.6 663.6 L 265.6 658.1 " fill="#000000"/>
<path class="atom-0" d="M 388.8,699.7 L 388.8,699.8 L 388.8,699.8 L 388.8,699.8 L 388.8,699.9 L 388.7,699.9 L 388.7,699.9 L 388.7,699.9 L 388.7,700.0 L 388.7,700.0 L 388.6,700.0 L 388.6,700.0 L 388.6,700.1 L 388.6,700.1 L 388.5,700.1 L 388.5,700.1 L 388.5,700.1 L 388.5,700.1 L 388.4,700.1 L 388.4,700.1 L 388.4,700.1 L 388.3,700.1 L 388.3,700.1 L 388.3,700.1 L 388.2,700.1 L 388.2,700.0 L 388.2,700.0 L 388.2,700.0 L 388.1,700.0 L 388.1,700.0 L 388.1,699.9 L 388.1,699.9 L 388.1,699.9 L 388.1,699.8 L 388.1,699.8 L 388.1,699.8 L 388.1,699.8 L 388.1,699.7 L 388.1,699.7 L 388.1,699.7 L 388.1,699.6 L 388.1,699.6 L 388.1,699.6 L 388.1,699.5 L 388.1,699.5 L 388.1,699.5 L 388.2,699.5 L 388.2,699.5 L 388.2,699.4 L 388.2,699.4 L 388.3,699.4 L 388.3,699.4 L 388.3,699.4 L 388.4,699.4 L 388.4,699.4 L 388.4,699.4 L 388.5,699.4 L 388.5,699.4 L 388.5,699.4 L 388.5,699.4 L 388.6,699.4 L 388.6,699.4 L 388.6,699.4 L 388.6,699.5 L 388.7,699.5 L 388.7,699.5 L 388.7,699.5 L 388.7,699.6 L 388.7,699.6 L 388.8,699.6 L 388.8,699.6 L 388.8,699.7 L 388.8,699.7 L 388.8,699.7 L 388.4,699.7 Z" style="fill:#000000;fill-rule:evenodd;fill-opacity:1;stroke:#000000;stroke-width:0.0px;stroke-linecap:butt;stroke-linejoin:miter;stroke-opacity:1;"/>
<path class="atom-0" d="M 388.8,698.3 L 388.8,698.3 L 388.8,698.4 L 388.8,698.4 L 388.8,698.4 L 388.7,698.4 L 388.7,698.5 L 388.7,698.5 L 388.7,698.5 L 388.7,698.5 L 388.6,698.6 L 388.6,698.6 L 388.6,698.6 L 388.6,698.6 L 388.5,698.6 L 388.5,698.6 L 388.5,698.6 L 388.5,698.6 L 388.4,698.7 L 388.4,698.7 L 388.4,698.6 L 388.3,698.6 L 388.3,698.6 L 388.3,698.6 L 388.2,698.6 L 388.2,698.6 L 388.2,698.6 L 388.2,698.6 L 388.1,698.5 L 388.1,698.5 L 388.1,698.5 L 388.1,698.5 L 388.1,698.4 L 388.1,698.4 L 388.1,698.4 L 388.1,698.3 L 388.1,698.3 L 388.1,698.3 L 388.1,698.2 L 388.1,698.2 L 388.1,698.2 L 388.1,698.2 L 388.1,698.1 L 388.1,698.1 L 388.1,698.1 L 388.1,698.0 L 388.2,698.0 L 388.2,698.0 L 388.2,698.0 L 388.2,698.0 L 388.3,698.0 L 388.3,697.9 L 388.3,697.9 L 388.4,697.9 L 388.4,697.9 L 388.4,697.9 L 388.5,697.9 L 388.5,697.9 L 388.5,697.9 L 388.5,698.0 L 388.6,698.0 L 388.6,698.0 L 388.6,698.0 L 388.6,698.0 L 388.7,698.0 L 388.7,698.1 L 388.7,698.1 L 388.7,698.1 L 388.7,698.1 L 388.8,698.2 L 388.8,698.2 L 388.8,698.2 L 388.8,698.3 L 388.8,698.3 L 388.4,698.3 Z" style="fill:#000000;fill-rule:evenodd;fill-opacity:1;stroke:#000000;stroke-width:0.0px;stroke-linecap:butt;stroke-linejoin:miter;stroke-opacity:1;"/>
<path class="atom-26" d="M 444.8,607.5 L 444.8,607.5 L 444.8,607.5 L 444.8,607.6 L 444.8,607.6 L 444.8,607.6 L 444.8,607.7 L 444.8,607.7 L 444.8,607.7 L 444.7,607.7 L 444.7,607.8 L 444.7,607.8 L 444.7,607.8 L 444.6,607.8 L 444.6,607.8 L 444.6,607.8 L 444.6,607.8 L 444.5,607.8 L 444.5,607.8 L 444.5,607.8 L 444.4,607.8 L 444.4,607.8 L 444.4,607.8 L 444.3,607.8 L 444.3,607.8 L 444.3,607.8 L 444.3,607.8 L 444.2,607.8 L 444.2,607.7 L 444.2,607.7 L 444.2,607.7 L 444.2,607.7 L 444.1,607.6 L 444.1,607.6 L 444.1,607.6 L 444.1,607.5 L 444.1,607.5 L 444.1,607.5 L 444.1,607.4 L 444.1,607.4 L 444.1,607.4 L 444.1,607.4 L 444.2,607.3 L 444.2,607.3 L 444.2,607.3 L 444.2,607.2 L 444.2,607.2 L 444.3,607.2 L 444.3,607.2 L 444.3,607.2 L 444.3,607.2 L 444.4,607.1 L 444.4,607.1 L 444.4,607.1 L 444.5,607.1 L 444.5,607.1 L 444.5,607.1 L 444.6,607.1 L 444.6,607.1 L 444.6,607.1 L 444.6,607.2 L 444.7,607.2 L 444.7,607.2 L 444.7,607.2 L 444.7,607.2 L 444.8,607.3 L 444.8,607.3 L 444.8,607.3 L 444.8,607.3 L 444.8,607.4 L 444.8,607.4 L 444.8,607.4 L 444.8,607.5 L 444.8,607.5 L 444.5,607.5 Z" style="fill:#000000;fill-rule:evenodd;fill-opacity:1;stroke:#000000;stroke-width:0.0px;stroke-linecap:butt;stroke-linejoin:miter;stroke-opacity:1;"/>
<path class="atom-27" d="M 428.3,612.8 L 428.3,612.9 L 428.3,612.9 L 428.2,612.9 L 428.2,612.9 L 428.2,613.0 L 428.2,613.0 L 428.2,613.0 L 428.2,613.1 L 428.2,613.1 L 428.1,613.1 L 428.1,613.1 L 428.1,613.1 L 428.1,613.2 L 428.0,613.2 L 428.0,613.2 L 428.0,613.2 L 427.9,613.2 L 427.9,613.2 L 427.9,613.2 L 427.8,613.2 L 427.8,613.2 L 427.8,613.2 L 427.8,613.2 L 427.7,613.1 L 427.7,613.1 L 427.7,613.1 L 427.6,613.1 L 427.6,613.1 L 427.6,613.0 L 427.6,613.0 L 427.6,613.0 L 427.6,613.0 L 427.6,612.9 L 427.5,612.9 L 427.5,612.9 L 427.5,612.8 L 427.5,612.8 L 427.5,612.8 L 427.5,612.7 L 427.6,612.7 L 427.6,612.7 L 427.6,612.7 L 427.6,612.6 L 427.6,612.6 L 427.6,612.6 L 427.6,612.6 L 427.7,612.5 L 427.7,612.5 L 427.7,612.5 L 427.8,612.5 L 427.8,612.5 L 427.8,612.5 L 427.8,612.5 L 427.9,612.5 L 427.9,612.5 L 427.9,612.5 L 428.0,612.5 L 428.0,612.5 L 428.0,612.5 L 428.1,612.5 L 428.1,612.5 L 428.1,612.5 L 428.1,612.5 L 428.2,612.6 L 428.2,612.6 L 428.2,612.6 L 428.2,612.6 L 428.2,612.7 L 428.2,612.7 L 428.2,612.7 L 428.3,612.8 L 428.3,612.8 L 428.3,612.8 L 427.9,612.8 Z" style="fill:#000000;fill-rule:evenodd;fill-opacity:1;stroke:#000000;stroke-width:0.0px;stroke-linecap:butt;stroke-linejoin:miter;stroke-opacity:1;"/>
<path class="atom-29" d="M 396.9,605.8 L 396.9,605.9 L 396.9,605.9 L 396.9,605.9 L 396.9,605.9 L 396.9,606.0 L 396.9,606.0 L 396.9,606.0 L 396.8,606.1 L 396.8,606.1 L 396.8,606.1 L 396.8,606.1 L 396.7,606.1 L 396.7,606.2 L 396.7,606.2 L 396.7,606.2 L 396.6,606.2 L 396.6,606.2 L 396.6,606.2 L 396.5,606.2 L 396.5,606.2 L 396.5,606.2 L 396.4,606.2 L 396.4,606.2 L 396.4,606.1 L 396.4,606.1 L 396.3,606.1 L 396.3,606.1 L 396.3,606.1 L 396.3,606.0 L 396.3,606.0 L 396.2,606.0 L 396.2,606.0 L 396.2,605.9 L 396.2,605.9 L 396.2,605.9 L 396.2,605.8 L 396.2,605.8 L 396.2,605.8 L 396.2,605.8 L 396.2,605.7 L 396.2,605.7 L 396.2,605.7 L 396.3,605.6 L 396.3,605.6 L 396.3,605.6 L 396.3,605.6 L 396.3,605.5 L 396.4,605.5 L 396.4,605.5 L 396.4,605.5 L 396.4,605.5 L 396.5,605.5 L 396.5,605.5 L 396.5,605.5 L 396.6,605.5 L 396.6,605.5 L 396.6,605.5 L 396.7,605.5 L 396.7,605.5 L 396.7,605.5 L 396.7,605.5 L 396.8,605.5 L 396.8,605.6 L 396.8,605.6 L 396.8,605.6 L 396.9,605.6 L 396.9,605.6 L 396.9,605.7 L 396.9,605.7 L 396.9,605.7 L 396.9,605.8 L 396.9,605.8 L 396.9,605.8 L 396.6,605.8 Z" style="fill:#000000;fill-rule:evenodd;fill-opacity:1;stroke:#000000;stroke-width:0.0px;stroke-linecap:butt;stroke-linejoin:miter;stroke-opacity:1;"/>
<path class="atom-39" d="M 328.5,609.5 L 328.5,609.5 L 328.5,609.6 L 328.5,609.6 L 328.5,609.6 L 328.5,609.7 L 328.5,609.7 L 328.5,609.7 L 328.5,609.7 L 328.4,609.8 L 328.4,609.8 L 328.4,609.8 L 328.4,609.8 L 328.3,609.8 L 328.3,609.8 L 328.3,609.9 L 328.2,609.9 L 328.2,609.9 L 328.2,609.9 L 328.1,609.9 L 328.1,609.9 L 328.1,609.9 L 328.1,609.8 L 328.0,609.8 L 328.0,609.8 L 328.0,609.8 L 327.9,609.8 L 327.9,609.8 L 327.9,609.7 L 327.9,609.7 L 327.9,609.7 L 327.8,609.7 L 327.8,609.6 L 327.8,609.6 L 327.8,609.6 L 327.8,609.6 L 327.8,609.5 L 327.8,609.5 L 327.8,609.5 L 327.8,609.4 L 327.8,609.4 L 327.8,609.4 L 327.8,609.3 L 327.9,609.3 L 327.9,609.3 L 327.9,609.3 L 327.9,609.2 L 327.9,609.2 L 328.0,609.2 L 328.0,609.2 L 328.0,609.2 L 328.1,609.2 L 328.1,609.2 L 328.1,609.1 L 328.1,609.1 L 328.2,609.1 L 328.2,609.1 L 328.2,609.1 L 328.3,609.2 L 328.3,609.2 L 328.3,609.2 L 328.4,609.2 L 328.4,609.2 L 328.4,609.2 L 328.4,609.3 L 328.5,609.3 L 328.5,609.3 L 328.5,609.3 L 328.5,609.4 L 328.5,609.4 L 328.5,609.4 L 328.5,609.4 L 328.5,609.5 L 328.5,609.5 L 328.2,609.5 Z" style="fill:#000000;fill-rule:evenodd;fill-opacity:1;stroke:#000000;stroke-width:0.0px;stroke-linecap:butt;stroke-linejoin:miter;stroke-opacity:1;"/>
<path class="bond-0 atom-0 atom-1" d="M 663.4,618.0 L 554.5,618.0" style="fill:none;fill-rule:evenodd;stroke:#000000;stroke-width:2.0px;stroke-linecap:butt;stroke-linejoin:miter;stroke-opacity:1"/>
<path class="atom-0" d="M 676.4 603.8 Q 681.2 603.8, 683.7 606.0 Q 686.1 608.2, 686.1 612.2 Q 686.1 616.1, 683.6 618.3 Q 681.1 620.5, 676.4 620.5 L 671.9 620.5 L 671.9 632.2 L 668.0 632.2 L 668.0 603.8 L 676.4 603.8 M 676.4 617.3 Q 679.2 617.3, 680.6 616.0 Q 682.1 614.7, 682.1 612.2 Q 682.1 609.6, 680.6 608.4 Q 679.2 607.0, 676.4 607.0 L 671.9 607.0 L 671.9 617.3 L 676.4 617.3 " fill="#000000"/>
<path class="atom-0" d="M 688.0 603.8 L 691.8 603.8 L 691.8 615.9 L 706.3 615.9 L 706.3 603.8 L 710.2 603.8 L 710.2 632.2 L 706.3 632.2 L 706.3 619.1 L 691.8 619.1 L 691.8 632.2 L 688.0 632.2 L 688.0 603.8 " fill="#000000"/>
<path class="atom-0" d="M 713.6 631.2 Q 714.3 629.4, 715.9 628.4 Q 717.6 627.4, 719.8 627.4 Q 722.7 627.4, 724.2 628.9 Q 725.8 630.5, 725.8 633.2 Q 725.8 636.0, 723.8 638.6 Q 721.7 641.1, 717.5 644.2 L 726.2 644.2 L 726.2 646.3 L 713.6 646.3 L 713.6 644.6 Q 717.0 642.1, 719.1 640.2 Q 721.2 638.4, 722.2 636.7 Q 723.2 635.0, 723.2 633.3 Q 723.2 631.5, 722.3 630.5 Q 721.4 629.5, 719.8 629.5 Q 718.3 629.5, 717.3 630.1 Q 716.3 630.7, 715.6 632.1 L 713.6 631.2 " fill="#000000"/>
<path class="atom-1" d="M 523.8 618.1 Q 523.8 611.3, 527.2 607.5 Q 530.6 603.7, 536.8 603.7 Q 543.1 603.7, 546.5 607.5 Q 549.8 611.3, 549.8 618.1 Q 549.8 625.0, 546.4 628.9 Q 543.0 632.8, 536.8 632.8 Q 530.6 632.8, 527.2 628.9 Q 523.8 625.0, 523.8 618.1 M 536.8 629.6 Q 541.2 629.6, 543.5 626.7 Q 545.8 623.8, 545.8 618.1 Q 545.8 612.5, 543.5 609.7 Q 541.2 606.9, 536.8 606.9 Q 532.5 606.9, 530.2 609.7 Q 527.8 612.5, 527.8 618.1 Q 527.8 623.8, 530.2 626.7 Q 532.5 629.6, 536.8 629.6 " fill="#000000"/>
<path class="atom-1" d="M 551.8 608.3 L 561.5 608.3 L 561.5 610.4 L 551.8 610.4 L 551.8 608.3 " fill="#000000"/>
</svg>