<svg xmlns="http://www.w3.org/2000/svg" xmlns:rdkit="http://www.rdkit.org/xml" xmlns:xlink="http://www.w3.org/1999/xlink" version="1.1" baseProfile="full" xml:space="preserve" width="750px" height="750px" viewBox="0 0 750 750">
<!-- END OF HEADER -->
<rect style="opacity:1.0;fill:#FFFFFF;stroke:none" width="750.0" height="750.0" x="0.0" y="0.0"> </rect>
<path class="bond-0 atom-0 atom-1" d="M 212.3,125.0 L 91.9,125.0" style="fill:none;fill-rule:evenodd;stroke:#000000;stroke-width:2.0px;stroke-linecap:butt;stroke-linejoin:miter;stroke-opacity:1"/>
<path class="bond-0 atom-0 atom-1" d="M 212.3,155.3 L 91.9,155.3" style="fill:none;fill-rule:evenodd;stroke:#000000;stroke-width:2.0px;stroke-linecap:butt;stroke-linejoin:miter;stroke-opacity:1"/>
<path class="bond-0 atom-0 atom-1" d="M 212.3,94.7 L 91.9,94.7" style="fill:none;fill-rule:evenodd;stroke:#000000;stroke-width:2.0px;stroke-linecap:butt;stroke-linejoin:miter;stroke-opacity:1"/>
<path class="atom-1" d="M 24.2 110.8 L 28.1 110.8 L 28.1 122.9 L 42.6 122.9 L 42.6 110.8 L 46.4 110.8 L 46.4 139.2 L 42.6 139.2 L 42.6 126.1 L 28.1 126.1 L 28.1 139.2 L 24.2 139.2 L 24.2 110.8 " fill="#000000"/>
<path class="atom-1" d="M 54.3 110.8 L 63.6 125.8 Q 64.5 127.3, 66.0 130.0 Q 67.4 132.7, 67.5 132.8 L 67.5 110.8 L 71.3 110.8 L 71.3 139.2 L 67.4 139.2 L 57.4 122.8 Q 56.3 120.8, 55.0 118.6 Q 53.8 116.4, 53.5 115.8 L 53.5 139.2 L 49.8 139.2 L 49.8 110.8 L 54.3 110.8 " fill="#000000"/>
<path class="atom-1" d="M 74.6 115.9 L 79.6 115.9 L 79.6 110.7 L 81.8 110.7 L 81.8 115.9 L 86.9 115.9 L 86.9 117.8 L 81.8 117.8 L 81.8 123.1 L 79.6 123.1 L 79.6 117.8 L 74.6 117.8 L 74.6 115.9 " fill="#000000"/>
<path class="atom-0" d="M 226.3,125.0 L 226.3,125.2 L 226.2,125.3 L 226.2,125.5 L 226.1,125.7 L 226.1,125.8 L 226.0,126.0 L 225.9,126.1 L 225.8,126.3 L 225.7,126.4 L 225.6,126.5 L 225.4,126.6 L 225.3,126.7 L 225.1,126.8 L 225.0,126.9 L 224.8,126.9 L 224.6,127.0 L 224.5,127.0 L 224.3,127.0 L 224.1,127.0 L 224.0,127.0 L 223.8,126.9 L 223.6,126.9 L 223.5,126.8 L 223.3,126.8 L 223.2,126.7 L 223.0,126.6 L 222.9,126.5 L 222.8,126.3 L 222.7,126.2 L 222.6,126.1 L 222.5,125.9 L 222.4,125.8 L 222.3,125.6 L 222.3,125.4 L 222.3,125.3 L 222.3,125.1 L 222.3,124.9 L 222.3,124.7 L 222.3,124.6 L 222.3,124.4 L 222.4,124.2 L 222.5,124.1 L 222.6,123.9 L 222.7,123.8 L 222.8,123.7 L 222.9,123.5 L 223.0,123.4 L 223.2,123.3 L 223.3,123.2 L 223.5,123.2 L 223.6,123.1 L 223.8,123.1 L 224.0,123.0 L 224.1,123.0 L 224.3,123.0 L 224.5,123.0 L 224.6,123.0 L 224.8,123.1 L 225.0,123.1 L 225.1,123.2 L 225.3,123.3 L 225.4,123.4 L 225.6,123.5 L 225.7,123.6 L 225.8,123.7 L 225.9,123.9 L 226.0,124.0 L 226.1,124.2 L 226.1,124.3 L 226.2,124.5 L 226.2,124.7 L 226.3,124.8 L 226.3,125.0 L 224.3,125.0 Z" style="fill:#000000;fill-rule:evenodd;fill-opacity:1;stroke:#000000;stroke-width:0.0px;stroke-linecap:butt;stroke-linejoin:miter;stroke-opacity:1;"/>
<path class="bond-0 atom-0 atom-1" d="M 449.5,113.9 L 443.2,96.8" style="fill:none;fill-rule:evenodd;stroke:#000000;stroke-width:2.0px;stroke-linecap:butt;stroke-linejoin:miter;stroke-opacity:1"/>
<path class="bond-1 atom-1 atom-2" d="M 441.9,95.0 L 456.3,84.4" style="fill:none;fill-rule:evenodd;stroke:#000000;stroke-width:2.0px;stroke-linecap:butt;stroke-linejoin:miter;stroke-opacity:1"/>
<path class="bond-1 atom-1 atom-2" d="M 444.6,98.6 L 458.9,88.0" style="fill:none;fill-rule:evenodd;stroke:#000000;stroke-width:2.0px;stroke-linecap:butt;stroke-linejoin:miter;stroke-opacity:1"/>
<path class="bond-2 atom-1 atom-3" d="M 443.2,96.8 L 425.5,83.3" style="fill:none;fill-rule:evenodd;stroke:#000000;stroke-width:2.0px;stroke-linecap:butt;stroke-linejoin:miter;stroke-opacity:1"/>
<path class="bond-3 atom-3 atom-4" d="M 425.5,83.3 L 403.2,81.5" style="fill:none;fill-rule:evenodd;stroke:#000000;stroke-width:2.0px;stroke-linecap:butt;stroke-linejoin:miter;stroke-opacity:1"/>
<path class="bond-4 atom-4 atom-5" d="M 403.2,81.5 L 386.6,90.4" style="fill:none;fill-rule:evenodd;stroke:#000000;stroke-width:2.0px;stroke-linecap:butt;stroke-linejoin:miter;stroke-opacity:1"/>
<path class="bond-5 atom-5 atom-6" d="M 381.3,95.9 L 372.6,111.6" style="fill:none;fill-rule:evenodd;stroke:#000000;stroke-width:2.0px;stroke-linecap:butt;stroke-linejoin:miter;stroke-opacity:1"/>
<path class="bond-6 atom-6 atom-7" d="M 372.6,111.6 L 374.0,133.9" style="fill:none;fill-rule:evenodd;stroke:#000000;stroke-width:2.0px;stroke-linecap:butt;stroke-linejoin:miter;stroke-opacity:1"/>
<path class="bond-6 atom-6 atom-7" d="M 377.3,114.6 L 378.3,130.2" style="fill:none;fill-rule:evenodd;stroke:#000000;stroke-width:2.0px;stroke-linecap:butt;stroke-linejoin:miter;stroke-opacity:1"/>
<path class="bond-7 atom-7 atom-8" d="M 374.0,133.9 L 353.0,141.5" style="fill:none;fill-rule:evenodd;stroke:#000000;stroke-width:2.0px;stroke-linecap:butt;stroke-linejoin:miter;stroke-opacity:1"/>
<path class="bond-8 atom-8 atom-9" d="M 353.0,141.5 L 335.9,127.2" style="fill:none;fill-rule:evenodd;stroke:#000000;stroke-width:2.0px;stroke-linecap:butt;stroke-linejoin:miter;stroke-opacity:1"/>
<path class="bond-8 atom-8 atom-9" d="M 353.3,135.9 L 341.4,125.9" style="fill:none;fill-rule:evenodd;stroke:#000000;stroke-width:2.0px;stroke-linecap:butt;stroke-linejoin:miter;stroke-opacity:1"/>
<path class="bond-9 atom-9 atom-10" d="M 335.9,127.2 L 314.9,134.8" style="fill:none;fill-rule:evenodd;stroke:#000000;stroke-width:2.0px;stroke-linecap:butt;stroke-linejoin:miter;stroke-opacity:1"/>
<path class="bond-10 atom-10 atom-11" d="M 314.9,134.8 L 297.8,120.4" style="fill:none;fill-rule:evenodd;stroke:#000000;stroke-width:2.0px;stroke-linecap:butt;stroke-linejoin:miter;stroke-opacity:1"/>
<path class="bond-10 atom-10 atom-11" d="M 315.2,129.2 L 303.2,119.2" style="fill:none;fill-rule:evenodd;stroke:#000000;stroke-width:2.0px;stroke-linecap:butt;stroke-linejoin:miter;stroke-opacity:1"/>
<path class="bond-11 atom-11 atom-12" d="M 297.8,120.4 L 276.1,125.8" style="fill:none;fill-rule:evenodd;stroke:#000000;stroke-width:2.0px;stroke-linecap:butt;stroke-linejoin:miter;stroke-opacity:1"/>
<path class="bond-12 atom-12 atom-13" d="M 278.2,126.7 L 269.8,147.4" style="fill:none;fill-rule:evenodd;stroke:#000000;stroke-width:2.0px;stroke-linecap:butt;stroke-linejoin:miter;stroke-opacity:1"/>
<path class="bond-12 atom-12 atom-13" d="M 274.0,125.0 L 265.7,145.7" style="fill:none;fill-rule:evenodd;stroke:#000000;stroke-width:2.0px;stroke-linecap:butt;stroke-linejoin:miter;stroke-opacity:1"/>
<path class="bond-13 atom-12 atom-14" d="M 276.1,125.8 L 266.8,110.9" style="fill:none;fill-rule:evenodd;stroke:#000000;stroke-width:2.0px;stroke-linecap:butt;stroke-linejoin:miter;stroke-opacity:1"/>
<path class="bond-14 atom-14 atom-15" d="M 267.6,103.0 L 278.6,89.8" style="fill:none;fill-rule:evenodd;stroke:#000000;stroke-width:2.0px;stroke-linecap:butt;stroke-linejoin:miter;stroke-opacity:1"/>
<path class="bond-15 atom-15 atom-16" d="M 278.6,89.8 L 295.7,96.7" style="fill:none;fill-rule:evenodd;stroke:#000000;stroke-width:2.0px;stroke-linecap:butt;stroke-linejoin:miter;stroke-opacity:1"/>
<path class="bond-16 atom-7 atom-17" d="M 374.0,133.9 L 387.3,151.9" style="fill:none;fill-rule:evenodd;stroke:#000000;stroke-width:2.0px;stroke-linecap:butt;stroke-linejoin:miter;stroke-opacity:1"/>
<path class="bond-17 atom-17 atom-18" d="M 387.3,151.9 L 373.8,169.7" style="fill:none;fill-rule:evenodd;stroke:#000000;stroke-width:2.0px;stroke-linecap:butt;stroke-linejoin:miter;stroke-opacity:1"/>
<path class="bond-18 atom-17 atom-19" d="M 387.3,151.9 L 408.2,159.8" style="fill:none;fill-rule:evenodd;stroke:#000000;stroke-width:2.0px;stroke-linecap:butt;stroke-linejoin:miter;stroke-opacity:1"/>
<path class="bond-19 atom-19 atom-20" d="M 408.2,159.8 L 430.0,155.3" style="fill:none;fill-rule:evenodd;stroke:#000000;stroke-width:2.0px;stroke-linecap:butt;stroke-linejoin:miter;stroke-opacity:1"/>
<path class="bond-20 atom-20 atom-21" d="M 430.0,155.3 L 446.0,139.6" style="fill:none;fill-rule:evenodd;stroke:#000000;stroke-width:2.0px;stroke-linecap:butt;stroke-linejoin:miter;stroke-opacity:1"/>
<path class="bond-20 atom-20 atom-21" d="M 429.3,149.7 L 440.4,138.8" style="fill:none;fill-rule:evenodd;stroke:#000000;stroke-width:2.0px;stroke-linecap:butt;stroke-linejoin:miter;stroke-opacity:1"/>
<path class="bond-21 atom-21 atom-22" d="M 446.0,139.6 L 459.2,151.9" style="fill:none;fill-rule:evenodd;stroke:#000000;stroke-width:2.0px;stroke-linecap:butt;stroke-linejoin:miter;stroke-opacity:1"/>
<path class="bond-22 atom-22 atom-23" d="M 465.5,153.8 L 483.7,148.1" style="fill:none;fill-rule:evenodd;stroke:#000000;stroke-width:2.0px;stroke-linecap:butt;stroke-linejoin:miter;stroke-opacity:1"/>
<path class="bond-23 atom-23 atom-24" d="M 483.7,148.1 L 488.6,126.3" style="fill:none;fill-rule:evenodd;stroke:#000000;stroke-width:2.0px;stroke-linecap:butt;stroke-linejoin:miter;stroke-opacity:1"/>
<path class="bond-24 atom-24 atom-25" d="M 488.6,126.3 L 472.2,111.2" style="fill:none;fill-rule:evenodd;stroke:#000000;stroke-width:2.0px;stroke-linecap:butt;stroke-linejoin:miter;stroke-opacity:1"/>
<path class="bond-24 atom-24 atom-25" d="M 483.1,127.3 L 471.6,116.7" style="fill:none;fill-rule:evenodd;stroke:#000000;stroke-width:2.0px;stroke-linecap:butt;stroke-linejoin:miter;stroke-opacity:1"/>
<path class="bond-25 atom-25 atom-26" d="M 472.2,111.2 L 476.3,93.3" style="fill:none;fill-rule:evenodd;stroke:#000000;stroke-width:2.0px;stroke-linecap:butt;stroke-linejoin:miter;stroke-opacity:1"/>
<path class="bond-26 atom-21 atom-0" d="M 446.0,139.6 L 450.0,121.7" style="fill:none;fill-rule:evenodd;stroke:#000000;stroke-width:2.0px;stroke-linecap:butt;stroke-linejoin:miter;stroke-opacity:1"/>
<path class="bond-27 atom-25 atom-0" d="M 472.2,111.2 L 454.0,116.8" style="fill:none;fill-rule:evenodd;stroke:#000000;stroke-width:2.0px;stroke-linecap:butt;stroke-linejoin:miter;stroke-opacity:1"/>
<path class="bond-28 atom-16 atom-11" d="M 299.1,102.2 L 297.8,120.4" style="fill:none;fill-rule:evenodd;stroke:#000000;stroke-width:2.0px;stroke-linecap:butt;stroke-linejoin:miter;stroke-opacity:1"/>
<path class="atom-0" d="M 449.5 114.6 L 451.6 118.0 Q 451.8 118.3, 452.1 118.9 Q 452.4 119.5, 452.4 119.5 L 452.4 114.6 L 453.3 114.6 L 453.3 121.0 L 452.4 121.0 L 450.2 117.3 Q 449.9 116.9, 449.7 116.4 Q 449.4 115.9, 449.3 115.7 L 449.3 121.0 L 448.5 121.0 L 448.5 114.6 L 449.5 114.6 " fill="#000000"/>
<path class="atom-2" d="M 458.3 83.6 Q 458.3 82.0, 459.1 81.2 Q 459.8 80.3, 461.2 80.3 Q 462.6 80.3, 463.4 81.2 Q 464.1 82.0, 464.1 83.6 Q 464.1 85.1, 463.4 86.0 Q 462.6 86.8, 461.2 86.8 Q 459.8 86.8, 459.1 86.0 Q 458.3 85.1, 458.3 83.6 M 461.2 86.1 Q 462.2 86.1, 462.7 85.5 Q 463.2 84.8, 463.2 83.6 Q 463.2 82.3, 462.7 81.7 Q 462.2 81.1, 461.2 81.1 Q 460.3 81.1, 459.7 81.7 Q 459.2 82.3, 459.2 83.6 Q 459.2 84.8, 459.7 85.5 Q 460.3 86.1, 461.2 86.1 " fill="#000000"/>
<path class="atom-5" d="M 375.4 88.9 L 376.2 88.9 L 376.2 91.6 L 379.5 91.6 L 379.5 88.9 L 380.3 88.9 L 380.3 95.2 L 379.5 95.2 L 379.5 92.3 L 376.2 92.3 L 376.2 95.2 L 375.4 95.2 L 375.4 88.9 " fill="#000000"/>
<path class="atom-5" d="M 382.1 88.9 L 384.2 92.2 Q 384.4 92.6, 384.7 93.2 Q 385.0 93.8, 385.0 93.8 L 385.0 88.9 L 385.9 88.9 L 385.9 95.2 L 385.0 95.2 L 382.8 91.5 Q 382.5 91.1, 382.2 90.6 Q 382.0 90.1, 381.9 90.0 L 381.9 95.2 L 381.1 95.2 L 381.1 88.9 L 382.1 88.9 " fill="#000000"/>
<path class="atom-14" d="M 261.4 106.9 Q 261.4 105.4, 262.1 104.5 Q 262.9 103.7, 264.3 103.7 Q 265.7 103.7, 266.4 104.5 Q 267.2 105.4, 267.2 106.9 Q 267.2 108.5, 266.4 109.3 Q 265.7 110.2, 264.3 110.2 Q 262.9 110.2, 262.1 109.3 Q 261.4 108.5, 261.4 106.9 M 264.3 109.5 Q 265.2 109.5, 265.8 108.8 Q 266.3 108.2, 266.3 106.9 Q 266.3 105.7, 265.8 105.0 Q 265.2 104.4, 264.3 104.4 Q 263.3 104.4, 262.8 105.0 Q 262.3 105.7, 262.3 106.9 Q 262.3 108.2, 262.8 108.8 Q 263.3 109.5, 264.3 109.5 " fill="#000000"/>
<path class="atom-16" d="M 296.4 98.2 Q 296.4 96.6, 297.2 95.8 Q 297.9 94.9, 299.4 94.9 Q 300.8 94.9, 301.5 95.8 Q 302.3 96.6, 302.3 98.2 Q 302.3 99.7, 301.5 100.6 Q 300.7 101.4, 299.4 101.4 Q 298.0 101.4, 297.2 100.6 Q 296.4 99.7, 296.4 98.2 M 299.4 100.7 Q 300.3 100.7, 300.8 100.1 Q 301.4 99.4, 301.4 98.2 Q 301.4 96.9, 300.8 96.3 Q 300.3 95.7, 299.4 95.7 Q 298.4 95.7, 297.9 96.3 Q 297.3 96.9, 297.3 98.2 Q 297.3 99.4, 297.9 100.1 Q 298.4 100.7, 299.4 100.7 " fill="#000000"/>
<path class="atom-22" d="M 461.0 151.6 L 463.1 154.9 Q 463.3 155.3, 463.6 155.9 Q 463.9 156.5, 463.9 156.5 L 463.9 151.6 L 464.8 151.6 L 464.8 157.9 L 463.9 157.9 L 461.7 154.3 Q 461.4 153.8, 461.1 153.3 Q 460.9 152.8, 460.8 152.7 L 460.8 157.9 L 460.0 157.9 L 460.0 151.6 L 461.0 151.6 " fill="#000000"/>
<path class="atom-22" d="M 459.9 158.6 L 460.8 158.6 L 460.8 161.2 L 464.0 161.2 L 464.0 158.6 L 464.9 158.6 L 464.9 164.9 L 464.0 164.9 L 464.0 162.0 L 460.8 162.0 L 460.8 164.9 L 459.9 164.9 L 459.9 158.6 " fill="#000000"/>
<path class="atom-26" d="M 477.0 86.2 Q 478.1 86.2, 478.6 86.7 Q 479.2 87.2, 479.2 88.1 Q 479.2 88.9, 478.6 89.4 Q 478.0 89.9, 477.0 89.9 L 476.0 89.9 L 476.0 92.5 L 475.1 92.5 L 475.1 86.2 L 477.0 86.2 M 477.0 89.2 Q 477.6 89.2, 477.9 88.9 Q 478.3 88.6, 478.3 88.1 Q 478.3 87.5, 477.9 87.2 Q 477.6 86.9, 477.0 86.9 L 476.0 86.9 L 476.0 89.2 L 477.0 89.2 " fill="#000000"/>
<path class="atom-26" d="M 480.9,90.3 L 480.9,90.3 L 480.9,90.3 L 480.9,90.4 L 480.9,90.4 L 480.9,90.4 L 480.9,90.5 L 480.9,90.5 L 480.8,90.5 L 480.8,90.6 L 480.8,90.6 L 480.8,90.6 L 480.7,90.6 L 480.7,90.7 L 480.7,90.7 L 480.6,90.7 L 480.6,90.7 L 480.6,90.7 L 480.5,90.7 L 480.5,90.7 L 480.4,90.7 L 480.4,90.7 L 480.4,90.7 L 480.3,90.7 L 480.3,90.6 L 480.3,90.6 L 480.2,90.6 L 480.2,90.6 L 480.2,90.6 L 480.1,90.5 L 480.1,90.5 L 480.1,90.5 L 480.1,90.4 L 480.1,90.4 L 480.1,90.3 L 480.1,90.3 L 480.1,90.3 L 480.1,90.2 L 480.1,90.2 L 480.1,90.2 L 480.1,90.1 L 480.1,90.1 L 480.1,90.0 L 480.1,90.0 L 480.1,90.0 L 480.2,90.0 L 480.2,89.9 L 480.2,89.9 L 480.3,89.9 L 480.3,89.9 L 480.3,89.8 L 480.4,89.8 L 480.4,89.8 L 480.4,89.8 L 480.5,89.8 L 480.5,89.8 L 480.6,89.8 L 480.6,89.8 L 480.6,89.8 L 480.7,89.8 L 480.7,89.8 L 480.7,89.9 L 480.8,89.9 L 480.8,89.9 L 480.8,89.9 L 480.8,90.0 L 480.9,90.0 L 480.9,90.0 L 480.9,90.1 L 480.9,90.1 L 480.9,90.1 L 480.9,90.2 L 480.9,90.2 L 480.9,90.3 L 480.5,90.3 Z" style="fill:#000000;fill-rule:evenodd;fill-opacity:1;stroke:#000000;stroke-width:0.0px;stroke-linecap:butt;stroke-linejoin:miter;stroke-opacity:1;"/>
<path class="atom-26" d="M 480.9,88.5 L 480.9,88.5 L 480.9,88.5 L 480.9,88.6 L 480.9,88.6 L 480.9,88.7 L 480.9,88.7 L 480.9,88.7 L 480.8,88.7 L 480.8,88.8 L 480.8,88.8 L 480.8,88.8 L 480.7,88.8 L 480.7,88.9 L 480.7,88.9 L 480.6,88.9 L 480.6,88.9 L 480.6,88.9 L 480.5,88.9 L 480.5,88.9 L 480.4,88.9 L 480.4,88.9 L 480.4,88.9 L 480.3,88.9 L 480.3,88.9 L 480.3,88.8 L 480.2,88.8 L 480.2,88.8 L 480.2,88.8 L 480.1,88.7 L 480.1,88.7 L 480.1,88.7 L 480.1,88.6 L 480.1,88.6 L 480.1,88.6 L 480.1,88.5 L 480.1,88.5 L 480.1,88.4 L 480.1,88.4 L 480.1,88.4 L 480.1,88.3 L 480.1,88.3 L 480.1,88.3 L 480.1,88.2 L 480.1,88.2 L 480.2,88.2 L 480.2,88.1 L 480.2,88.1 L 480.3,88.1 L 480.3,88.1 L 480.3,88.1 L 480.4,88.0 L 480.4,88.0 L 480.4,88.0 L 480.5,88.0 L 480.5,88.0 L 480.6,88.0 L 480.6,88.0 L 480.6,88.0 L 480.7,88.0 L 480.7,88.1 L 480.7,88.1 L 480.8,88.1 L 480.8,88.1 L 480.8,88.2 L 480.8,88.2 L 480.9,88.2 L 480.9,88.2 L 480.9,88.3 L 480.9,88.3 L 480.9,88.3 L 480.9,88.4 L 480.9,88.4 L 480.9,88.5 L 480.5,88.5 Z" style="fill:#000000;fill-rule:evenodd;fill-opacity:1;stroke:#000000;stroke-width:0.0px;stroke-linecap:butt;stroke-linejoin:miter;stroke-opacity:1;"/>
<path class="bond-0 atom-0 atom-1" d="M 558.1,167.1 L 511.4,120.4" style="fill:none;fill-rule:evenodd;stroke:#000000;stroke-width:2.0px;stroke-linecap:butt;stroke-linejoin:miter;stroke-opacity:1"/>
<path class="bond-0 atom-0 atom-1" d="M 560.5,150.8 L 527.7,118.0" style="fill:none;fill-rule:evenodd;stroke:#000000;stroke-width:2.0px;stroke-linecap:butt;stroke-linejoin:miter;stroke-opacity:1"/>
<path class="bond-1 atom-1 atom-2" d="M 511.4,120.4 L 549.9,81.8" style="fill:none;fill-rule:evenodd;stroke:#000000;stroke-width:2.0px;stroke-linecap:butt;stroke-linejoin:miter;stroke-opacity:1"/>
<path class="bond-2 atom-2 atom-3" d="M 566.3,81.8 L 604.9,120.4" style="fill:none;fill-rule:evenodd;stroke:#000000;stroke-width:2.0px;stroke-linecap:butt;stroke-linejoin:miter;stroke-opacity:1"/>
<path class="bond-3 atom-3 atom-4" d="M 604.9,120.4 L 671.0,120.4" style="fill:none;fill-rule:evenodd;stroke:#000000;stroke-width:2.0px;stroke-linecap:butt;stroke-linejoin:miter;stroke-opacity:1"/>
<path class="bond-4 atom-4 atom-5" d="M 671.0,120.4 L 697.4,166.1" style="fill:none;fill-rule:evenodd;stroke:#000000;stroke-width:2.0px;stroke-linecap:butt;stroke-linejoin:miter;stroke-opacity:1"/>
<path class="bond-5 atom-4 atom-6" d="M 665.3,117.1 L 691.5,71.7" style="fill:none;fill-rule:evenodd;stroke:#000000;stroke-width:2.0px;stroke-linecap:butt;stroke-linejoin:miter;stroke-opacity:1"/>
<path class="bond-5 atom-4 atom-6" d="M 676.8,123.7 L 702.9,78.3" style="fill:none;fill-rule:evenodd;stroke:#000000;stroke-width:2.0px;stroke-linecap:butt;stroke-linejoin:miter;stroke-opacity:1"/>
<path class="bond-6 atom-0 atom-3" d="M 558.1,167.1 L 604.9,120.4" style="fill:none;fill-rule:evenodd;stroke:#000000;stroke-width:2.0px;stroke-linecap:butt;stroke-linejoin:miter;stroke-opacity:1"/>
<path class="bond-6 atom-0 atom-3" d="M 555.8,150.8 L 588.5,118.0" style="fill:none;fill-rule:evenodd;stroke:#000000;stroke-width:2.0px;stroke-linecap:butt;stroke-linejoin:miter;stroke-opacity:1"/>
<path class="atom-2" d="M 552.8 80.0 Q 553.1 80.1, 553.9 80.5 Q 554.8 80.9, 555.7 81.1 Q 556.7 81.3, 557.7 81.3 Q 559.5 81.3, 560.5 80.5 Q 561.5 79.6, 561.5 78.1 Q 561.5 77.0, 561.0 76.4 Q 560.5 75.8, 559.7 75.4 Q 558.9 75.1, 557.6 74.7 Q 555.9 74.2, 554.9 73.7 Q 553.9 73.2, 553.2 72.2 Q 552.5 71.2, 552.5 69.5 Q 552.5 67.2, 554.1 65.7 Q 555.7 64.3, 558.9 64.3 Q 561.1 64.3, 563.5 65.3 L 562.9 67.3 Q 560.7 66.4, 559.0 66.4 Q 557.2 66.4, 556.1 67.2 Q 555.1 67.9, 555.2 69.2 Q 555.2 70.2, 555.7 70.8 Q 556.2 71.4, 556.9 71.8 Q 557.7 72.1, 559.0 72.5 Q 560.7 73.0, 561.7 73.6 Q 562.7 74.1, 563.4 75.2 Q 564.1 76.2, 564.1 78.1 Q 564.1 80.7, 562.4 82.1 Q 560.7 83.4, 557.8 83.4 Q 556.1 83.4, 554.8 83.1 Q 553.6 82.7, 552.1 82.1 L 552.8 80.0 " fill="#000000"/>
<path class="atom-5" d="M 700.0 168.3 L 706.1 178.2 Q 706.7 179.2, 707.7 181.0 Q 708.7 182.7, 708.7 182.8 L 708.7 168.3 L 711.2 168.3 L 711.2 187.0 L 708.6 187.0 L 702.1 176.2 Q 701.3 174.9, 700.5 173.4 Q 699.7 172.0, 699.4 171.5 L 699.4 187.0 L 697.0 187.0 L 697.0 168.3 L 700.0 168.3 " fill="#000000"/>
<path class="atom-5" d="M 713.4 168.3 L 715.9 168.3 L 715.9 176.2 L 725.5 176.2 L 725.5 168.3 L 728.1 168.3 L 728.1 187.0 L 725.5 187.0 L 725.5 178.4 L 715.9 178.4 L 715.9 187.0 L 713.4 187.0 L 713.4 168.3 " fill="#000000"/>
<path class="atom-5" d="M 730.3 186.4 Q 730.8 185.2, 731.9 184.5 Q 733.0 183.9, 734.5 183.9 Q 736.3 183.9, 737.4 184.9 Q 738.4 185.9, 738.4 187.7 Q 738.4 189.5, 737.1 191.2 Q 735.7 193.0, 732.9 195.0 L 738.6 195.0 L 738.6 196.4 L 730.3 196.4 L 730.3 195.2 Q 732.6 193.6, 734.0 192.3 Q 735.4 191.1, 736.0 190.0 Q 736.7 188.9, 736.7 187.8 Q 736.7 186.6, 736.1 185.9 Q 735.5 185.3, 734.5 185.3 Q 733.5 185.3, 732.8 185.7 Q 732.1 186.1, 731.7 187.0 L 730.3 186.4 " fill="#000000"/>
<path class="atom-6" d="M 695.5 63.1 Q 695.5 58.6, 697.7 56.1 Q 700.0 53.6, 704.1 53.6 Q 708.3 53.6, 710.5 56.1 Q 712.7 58.6, 712.7 63.1 Q 712.7 67.7, 710.5 70.3 Q 708.2 72.9, 704.1 72.9 Q 700.0 72.9, 697.7 70.3 Q 695.5 67.7, 695.5 63.1 M 704.1 70.7 Q 707.0 70.7, 708.5 68.8 Q 710.1 66.9, 710.1 63.1 Q 710.1 59.5, 708.5 57.6 Q 707.0 55.7, 704.1 55.7 Q 701.2 55.7, 699.7 57.6 Q 698.2 59.4, 698.2 63.1 Q 698.2 66.9, 699.7 68.8 Q 701.2 70.7, 704.1 70.7 " fill="#000000"/>
<path class="bond-0 atom-0 atom-1" d="M 231.8,385.0 L 212.6,384.4" style="fill:none;fill-rule:evenodd;stroke:#000000;stroke-width:2.0px;stroke-linecap:butt;stroke-linejoin:miter;stroke-opacity:1"/>
<path class="bond-1 atom-1 atom-2" d="M 212.6,384.4 L 200.9,403.5" style="fill:none;fill-rule:evenodd;stroke:#000000;stroke-width:2.0px;stroke-linecap:butt;stroke-linejoin:miter;stroke-opacity:1"/>
<path class="bond-1 atom-1 atom-2" d="M 214.7,389.6 L 206.5,403.0" style="fill:none;fill-rule:evenodd;stroke:#000000;stroke-width:2.0px;stroke-linecap:butt;stroke-linejoin:miter;stroke-opacity:1"/>
<path class="bond-2 atom-2 atom-3" d="M 200.9,403.5 L 178.5,402.8" style="fill:none;fill-rule:evenodd;stroke:#000000;stroke-width:2.0px;stroke-linecap:butt;stroke-linejoin:miter;stroke-opacity:1"/>
<path class="bond-3 atom-3 atom-4" d="M 178.5,402.8 L 166.8,421.9" style="fill:none;fill-rule:evenodd;stroke:#000000;stroke-width:2.0px;stroke-linecap:butt;stroke-linejoin:miter;stroke-opacity:1"/>
<path class="bond-3 atom-3 atom-4" d="M 180.6,408.0 L 172.4,421.4" style="fill:none;fill-rule:evenodd;stroke:#000000;stroke-width:2.0px;stroke-linecap:butt;stroke-linejoin:miter;stroke-opacity:1"/>
<path class="bond-4 atom-4 atom-5" d="M 166.8,421.9 L 147.2,421.3" style="fill:none;fill-rule:evenodd;stroke:#000000;stroke-width:2.0px;stroke-linecap:butt;stroke-linejoin:miter;stroke-opacity:1"/>
<path class="bond-5 atom-5 atom-6" d="M 142.3,417.3 L 142.7,402.8" style="fill:none;fill-rule:evenodd;stroke:#000000;stroke-width:2.0px;stroke-linecap:butt;stroke-linejoin:miter;stroke-opacity:1"/>
<path class="bond-5 atom-5 atom-6" d="M 146.8,417.4 L 147.2,403.0" style="fill:none;fill-rule:evenodd;stroke:#000000;stroke-width:2.0px;stroke-linecap:butt;stroke-linejoin:miter;stroke-opacity:1"/>
<path class="bond-6 atom-5 atom-7" d="M 146.5,425.4 L 146.1,439.7" style="fill:none;fill-rule:evenodd;stroke:#000000;stroke-width:2.0px;stroke-linecap:butt;stroke-linejoin:miter;stroke-opacity:1"/>
<path class="bond-6 atom-5 atom-7" d="M 142.1,425.2 L 141.7,439.6" style="fill:none;fill-rule:evenodd;stroke:#000000;stroke-width:2.0px;stroke-linecap:butt;stroke-linejoin:miter;stroke-opacity:1"/>
<path class="bond-7 atom-5 atom-8" d="M 141.7,421.1 L 125.2,420.7" style="fill:none;fill-rule:evenodd;stroke:#000000;stroke-width:2.0px;stroke-linecap:butt;stroke-linejoin:miter;stroke-opacity:1"/>
<path class="bond-8 atom-8 atom-9" d="M 120.0,416.7 L 111.4,400.9" style="fill:none;fill-rule:evenodd;stroke:#000000;stroke-width:2.0px;stroke-linecap:butt;stroke-linejoin:miter;stroke-opacity:1"/>
<path class="bond-9 atom-9 atom-10" d="M 111.4,400.9 L 89.1,400.2" style="fill:none;fill-rule:evenodd;stroke:#000000;stroke-width:2.0px;stroke-linecap:butt;stroke-linejoin:miter;stroke-opacity:1"/>
<path class="bond-10 atom-10 atom-11" d="M 89.1,400.2 L 80.6,384.5" style="fill:none;fill-rule:evenodd;stroke:#000000;stroke-width:2.0px;stroke-linecap:butt;stroke-linejoin:miter;stroke-opacity:1"/>
<path class="bond-11 atom-11 atom-12" d="M 75.3,380.5 L 56.1,379.9" style="fill:none;fill-rule:evenodd;stroke:#000000;stroke-width:2.0px;stroke-linecap:butt;stroke-linejoin:miter;stroke-opacity:1"/>
<path class="bond-12 atom-12 atom-13" d="M 56.1,379.9 L 44.3,398.9" style="fill:none;fill-rule:evenodd;stroke:#000000;stroke-width:2.0px;stroke-linecap:butt;stroke-linejoin:miter;stroke-opacity:1"/>
<path class="bond-12 atom-12 atom-13" d="M 50.5,380.4 L 42.3,393.7" style="fill:none;fill-rule:evenodd;stroke:#000000;stroke-width:2.0px;stroke-linecap:butt;stroke-linejoin:miter;stroke-opacity:1"/>
<path class="bond-13 atom-13 atom-14" d="M 44.3,398.9 L 22.0,398.3" style="fill:none;fill-rule:evenodd;stroke:#000000;stroke-width:2.0px;stroke-linecap:butt;stroke-linejoin:miter;stroke-opacity:1"/>
<path class="bond-14 atom-14 atom-15" d="M 22.0,398.3 L 11.4,378.6" style="fill:none;fill-rule:evenodd;stroke:#000000;stroke-width:2.0px;stroke-linecap:butt;stroke-linejoin:miter;stroke-opacity:1"/>
<path class="bond-14 atom-14 atom-15" d="M 24.3,393.2 L 16.9,379.4" style="fill:none;fill-rule:evenodd;stroke:#000000;stroke-width:2.0px;stroke-linecap:butt;stroke-linejoin:miter;stroke-opacity:1"/>
<path class="bond-15 atom-15 atom-16" d="M 11.4,378.6 L 23.1,359.6" style="fill:none;fill-rule:evenodd;stroke:#000000;stroke-width:2.0px;stroke-linecap:butt;stroke-linejoin:miter;stroke-opacity:1"/>
<path class="bond-16 atom-16 atom-17" d="M 23.1,359.6 L 45.5,360.2" style="fill:none;fill-rule:evenodd;stroke:#000000;stroke-width:2.0px;stroke-linecap:butt;stroke-linejoin:miter;stroke-opacity:1"/>
<path class="bond-16 atom-16 atom-17" d="M 26.3,364.1 L 42.0,364.6" style="fill:none;fill-rule:evenodd;stroke:#000000;stroke-width:2.0px;stroke-linecap:butt;stroke-linejoin:miter;stroke-opacity:1"/>
<path class="bond-17 atom-17 atom-18" d="M 45.5,360.2 L 54.8,345.1" style="fill:none;fill-rule:evenodd;stroke:#000000;stroke-width:2.0px;stroke-linecap:butt;stroke-linejoin:miter;stroke-opacity:1"/>
<path class="bond-18 atom-11 atom-19" d="M 80.9,376.6 L 87.7,365.6" style="fill:none;fill-rule:evenodd;stroke:#000000;stroke-width:2.0px;stroke-linecap:butt;stroke-linejoin:miter;stroke-opacity:1"/>
<path class="bond-19 atom-19 atom-20" d="M 93.0,361.6 L 109.4,362.1" style="fill:none;fill-rule:evenodd;stroke:#000000;stroke-width:2.0px;stroke-linecap:butt;stroke-linejoin:miter;stroke-opacity:1"/>
<path class="bond-19 atom-19 atom-20" d="M 95.3,366.1 L 106.8,366.5" style="fill:none;fill-rule:evenodd;stroke:#000000;stroke-width:2.0px;stroke-linecap:butt;stroke-linejoin:miter;stroke-opacity:1"/>
<path class="bond-20 atom-20 atom-21" d="M 115.0,358.2 L 124.3,343.1" style="fill:none;fill-rule:evenodd;stroke:#000000;stroke-width:2.0px;stroke-linecap:butt;stroke-linejoin:miter;stroke-opacity:1"/>
<path class="bond-21 atom-21 atom-22" d="M 124.3,343.1 L 146.7,343.8" style="fill:none;fill-rule:evenodd;stroke:#000000;stroke-width:2.0px;stroke-linecap:butt;stroke-linejoin:miter;stroke-opacity:1"/>
<path class="bond-21 atom-21 atom-22" d="M 127.5,347.7 L 143.2,348.1" style="fill:none;fill-rule:evenodd;stroke:#000000;stroke-width:2.0px;stroke-linecap:butt;stroke-linejoin:miter;stroke-opacity:1"/>
<path class="bond-22 atom-22 atom-23" d="M 146.7,343.8 L 158.4,324.7" style="fill:none;fill-rule:evenodd;stroke:#000000;stroke-width:2.0px;stroke-linecap:butt;stroke-linejoin:miter;stroke-opacity:1"/>
<path class="bond-23 atom-23 atom-24" d="M 158.4,324.7 L 180.8,325.4" style="fill:none;fill-rule:evenodd;stroke:#000000;stroke-width:2.0px;stroke-linecap:butt;stroke-linejoin:miter;stroke-opacity:1"/>
<path class="bond-23 atom-23 atom-24" d="M 161.6,329.3 L 177.3,329.7" style="fill:none;fill-rule:evenodd;stroke:#000000;stroke-width:2.0px;stroke-linecap:butt;stroke-linejoin:miter;stroke-opacity:1"/>
<path class="bond-24 atom-24 atom-25" d="M 180.8,325.4 L 190.0,310.4" style="fill:none;fill-rule:evenodd;stroke:#000000;stroke-width:2.0px;stroke-linecap:butt;stroke-linejoin:miter;stroke-opacity:1"/>
<path class="bond-25 atom-17 atom-12" d="M 45.5,360.2 L 56.1,379.9" style="fill:none;fill-rule:evenodd;stroke:#000000;stroke-width:2.0px;stroke-linecap:butt;stroke-linejoin:miter;stroke-opacity:1"/>
<path class="atom-0" d="M 232.6 385.3 Q 232.6 383.7, 233.3 382.9 Q 234.0 382.1, 235.5 382.1 Q 236.8 382.1, 237.5 383.0 L 236.9 383.5 Q 236.4 382.8, 235.5 382.8 Q 234.5 382.8, 234.0 383.4 Q 233.5 384.1, 233.5 385.3 Q 233.5 386.6, 234.0 387.2 Q 234.5 387.8, 235.5 387.8 Q 236.2 387.8, 237.1 387.4 L 237.3 388.1 Q 237.0 388.3, 236.5 388.4 Q 236.0 388.6, 235.4 388.6 Q 234.0 388.6, 233.3 387.7 Q 232.6 386.9, 232.6 385.3 " fill="#000000"/>
<path class="atom-0" d="M 237.8 381.7 L 238.6 381.7 L 238.6 388.5 L 237.8 388.5 L 237.8 381.7 " fill="#000000"/>
<path class="atom-5" d="M 142.6 423.4 Q 142.7 423.4, 143.0 423.6 Q 143.3 423.7, 143.6 423.8 Q 144.0 423.8, 144.3 423.8 Q 144.9 423.8, 145.2 423.5 Q 145.6 423.2, 145.6 422.7 Q 145.6 422.4, 145.4 422.2 Q 145.2 422.0, 145.0 421.8 Q 144.7 421.7, 144.2 421.6 Q 143.7 421.4, 143.3 421.3 Q 143.0 421.1, 142.8 420.8 Q 142.5 420.4, 142.5 419.8 Q 142.5 419.1, 143.1 418.6 Q 143.6 418.1, 144.7 418.1 Q 145.4 418.1, 146.3 418.4 L 146.1 419.1 Q 145.3 418.8, 144.7 418.8 Q 144.1 418.8, 143.8 419.1 Q 143.4 419.3, 143.4 419.7 Q 143.4 420.1, 143.6 420.3 Q 143.8 420.5, 144.0 420.6 Q 144.3 420.7, 144.7 420.9 Q 145.3 421.0, 145.6 421.2 Q 146.0 421.4, 146.2 421.8 Q 146.5 422.1, 146.5 422.7 Q 146.5 423.6, 145.9 424.1 Q 145.3 424.6, 144.3 424.6 Q 143.8 424.6, 143.3 424.4 Q 142.9 424.3, 142.4 424.1 L 142.6 423.4 " fill="#000000"/>
<path class="atom-6" d="M 142.2 398.9 Q 142.2 397.4, 142.9 396.5 Q 143.7 395.7, 145.1 395.7 Q 146.5 395.7, 147.2 396.5 Q 148.0 397.4, 148.0 398.9 Q 148.0 400.4, 147.2 401.3 Q 146.5 402.2, 145.1 402.2 Q 143.7 402.2, 142.9 401.3 Q 142.2 400.4, 142.2 398.9 M 145.1 401.4 Q 146.0 401.4, 146.6 400.8 Q 147.1 400.2, 147.1 398.9 Q 147.1 397.6, 146.6 397.0 Q 146.0 396.4, 145.1 396.4 Q 144.1 396.4, 143.6 397.0 Q 143.1 397.6, 143.1 398.9 Q 143.1 400.2, 143.6 400.8 Q 144.1 401.4, 145.1 401.4 " fill="#000000"/>
<path class="atom-7" d="M 140.9 443.6 Q 140.9 442.1, 141.6 441.2 Q 142.4 440.4, 143.8 440.4 Q 145.2 440.4, 145.9 441.2 Q 146.7 442.1, 146.7 443.6 Q 146.7 445.1, 145.9 446.0 Q 145.2 446.9, 143.8 446.9 Q 142.4 446.9, 141.6 446.0 Q 140.9 445.2, 140.9 443.6 M 143.8 446.2 Q 144.7 446.2, 145.3 445.5 Q 145.8 444.9, 145.8 443.6 Q 145.8 442.4, 145.3 441.7 Q 144.7 441.1, 143.8 441.1 Q 142.8 441.1, 142.3 441.7 Q 141.8 442.4, 141.8 443.6 Q 141.8 444.9, 142.3 445.5 Q 142.8 446.2, 143.8 446.2 " fill="#000000"/>
<path class="atom-8" d="M 113.9 417.4 L 114.8 417.4 L 114.8 420.1 L 118.0 420.1 L 118.0 417.4 L 118.9 417.4 L 118.9 423.7 L 118.0 423.7 L 118.0 420.8 L 114.8 420.8 L 114.8 423.7 L 113.9 423.7 L 113.9 417.4 " fill="#000000"/>
<path class="atom-8" d="M 120.7 417.4 L 122.7 420.8 Q 122.9 421.1, 123.3 421.7 Q 123.6 422.3, 123.6 422.3 L 123.6 417.4 L 124.5 417.4 L 124.5 423.7 L 123.6 423.7 L 121.4 420.1 Q 121.1 419.6, 120.8 419.2 Q 120.6 418.7, 120.5 418.5 L 120.5 423.7 L 119.7 423.7 L 119.7 417.4 L 120.7 417.4 " fill="#000000"/>
<path class="atom-11" d="M 77.1 377.4 L 79.1 380.7 Q 79.3 381.1, 79.7 381.7 Q 80.0 382.3, 80.0 382.3 L 80.0 377.4 L 80.9 377.4 L 80.9 383.7 L 80.0 383.7 L 77.8 380.0 Q 77.5 379.6, 77.2 379.1 Q 77.0 378.6, 76.9 378.5 L 76.9 383.7 L 76.1 383.7 L 76.1 377.4 L 77.1 377.4 " fill="#000000"/>
<path class="atom-18" d="M 55.3 338.0 L 59.1 338.0 L 59.1 338.7 L 56.2 338.7 L 56.2 340.6 L 58.8 340.6 L 58.8 341.4 L 56.2 341.4 L 56.2 344.3 L 55.3 344.3 L 55.3 338.0 " fill="#000000"/>
<path class="atom-19" d="M 82.5 358.3 L 83.3 358.3 L 83.3 361.0 L 86.5 361.0 L 86.5 358.3 L 87.4 358.3 L 87.4 364.7 L 86.5 364.7 L 86.5 361.7 L 83.3 361.7 L 83.3 364.7 L 82.5 364.7 L 82.5 358.3 " fill="#000000"/>
<path class="atom-19" d="M 88.4 363.7 Q 88.5 363.7, 88.8 363.8 Q 89.1 364.0, 89.4 364.0 Q 89.7 364.1, 90.0 364.1 Q 90.6 364.1, 91.0 363.8 Q 91.3 363.5, 91.3 363.0 Q 91.3 362.7, 91.2 362.5 Q 91.0 362.2, 90.7 362.1 Q 90.5 362.0, 90.0 361.9 Q 89.4 361.7, 89.1 361.5 Q 88.8 361.4, 88.5 361.0 Q 88.3 360.7, 88.3 360.1 Q 88.3 359.3, 88.8 358.8 Q 89.4 358.4, 90.5 358.4 Q 91.2 358.4, 92.0 358.7 L 91.8 359.4 Q 91.1 359.1, 90.5 359.1 Q 89.9 359.1, 89.5 359.3 Q 89.2 359.6, 89.2 360.0 Q 89.2 360.4, 89.4 360.6 Q 89.5 360.8, 89.8 360.9 Q 90.1 361.0, 90.5 361.1 Q 91.1 361.3, 91.4 361.5 Q 91.7 361.7, 92.0 362.0 Q 92.2 362.4, 92.2 363.0 Q 92.2 363.9, 91.6 364.4 Q 91.1 364.8, 90.1 364.8 Q 89.5 364.8, 89.1 364.7 Q 88.7 364.6, 88.2 364.4 L 88.4 363.7 " fill="#000000"/>
<path class="atom-20" d="M 111.2 359.0 L 113.2 362.3 Q 113.4 362.7, 113.8 363.3 Q 114.1 363.9, 114.1 363.9 L 114.1 359.0 L 115.0 359.0 L 115.0 365.3 L 114.1 365.3 L 111.9 361.6 Q 111.6 361.2, 111.3 360.7 Q 111.1 360.2, 111.0 360.1 L 111.0 365.3 L 110.2 365.3 L 110.2 359.0 L 111.2 359.0 " fill="#000000"/>
<path class="atom-25" d="M 189.6 306.3 Q 189.6 304.8, 190.4 304.0 Q 191.1 303.1, 192.5 303.1 Q 193.9 303.1, 194.7 304.0 Q 195.4 304.8, 195.4 306.3 Q 195.4 307.9, 194.7 308.7 Q 193.9 309.6, 192.5 309.6 Q 191.1 309.6, 190.4 308.7 Q 189.6 307.9, 189.6 306.3 M 192.5 308.9 Q 193.5 308.9, 194.0 308.3 Q 194.5 307.6, 194.5 306.3 Q 194.5 305.1, 194.0 304.5 Q 193.5 303.8, 192.5 303.8 Q 191.6 303.8, 191.0 304.4 Q 190.5 305.1, 190.5 306.3 Q 190.5 307.6, 191.0 308.3 Q 191.6 308.9, 192.5 308.9 " fill="#000000"/>
<path class="atom-25" d="M 195.9 303.2 L 196.7 303.2 L 196.7 305.9 L 200.0 305.9 L 200.0 303.2 L 200.8 303.2 L 200.8 309.5 L 200.0 309.5 L 200.0 306.6 L 196.7 306.6 L 196.7 309.5 L 195.9 309.5 L 195.9 303.2 " fill="#000000"/>
<path class="bond-0 atom-0 atom-1" d="M 483.6,334.3 L 475.7,351.5" style="fill:none;fill-rule:evenodd;stroke:#000000;stroke-width:2.0px;stroke-linecap:butt;stroke-linejoin:miter;stroke-opacity:1"/>
<path class="bond-1 atom-1 atom-2" d="M 468.9,357.2 L 442.6,359.6" style="fill:none;fill-rule:evenodd;stroke:#000000;stroke-width:2.0px;stroke-linecap:butt;stroke-linejoin:miter;stroke-opacity:1"/>
<path class="bond-2 atom-2 atom-3" d="M 442.6,359.6 L 429.7,387.5" style="fill:none;fill-rule:evenodd;stroke:#000000;stroke-width:2.0px;stroke-linecap:butt;stroke-linejoin:miter;stroke-opacity:1"/>
<path class="bond-2 atom-2 atom-3" d="M 446.2,366.4 L 437.2,385.9" style="fill:none;fill-rule:evenodd;stroke:#000000;stroke-width:2.0px;stroke-linecap:butt;stroke-linejoin:miter;stroke-opacity:1"/>
<path class="bond-3 atom-3 atom-4" d="M 429.7,387.5 L 402.9,389.9" style="fill:none;fill-rule:evenodd;stroke:#000000;stroke-width:2.0px;stroke-linecap:butt;stroke-linejoin:miter;stroke-opacity:1"/>
<path class="bond-4 atom-4 atom-5" d="M 395.6,385.2 L 393.8,365.5" style="fill:none;fill-rule:evenodd;stroke:#000000;stroke-width:2.0px;stroke-linecap:butt;stroke-linejoin:miter;stroke-opacity:1"/>
<path class="bond-4 atom-4 atom-5" d="M 401.7,384.7 L 399.9,365.0" style="fill:none;fill-rule:evenodd;stroke:#000000;stroke-width:2.0px;stroke-linecap:butt;stroke-linejoin:miter;stroke-opacity:1"/>
<path class="bond-5 atom-4 atom-6" d="M 402.7,395.6 L 404.5,415.2" style="fill:none;fill-rule:evenodd;stroke:#000000;stroke-width:2.0px;stroke-linecap:butt;stroke-linejoin:miter;stroke-opacity:1"/>
<path class="bond-5 atom-4 atom-6" d="M 396.6,396.1 L 398.4,415.7" style="fill:none;fill-rule:evenodd;stroke:#000000;stroke-width:2.0px;stroke-linecap:butt;stroke-linejoin:miter;stroke-opacity:1"/>
<path class="bond-6 atom-4 atom-7" d="M 395.3,390.6 L 368.6,393.1" style="fill:none;fill-rule:evenodd;stroke:#000000;stroke-width:2.0px;stroke-linecap:butt;stroke-linejoin:miter;stroke-opacity:1"/>
<path class="bond-7 atom-7 atom-8" d="M 368.6,393.1 L 350.9,368.0" style="fill:none;fill-rule:evenodd;stroke:#000000;stroke-width:2.0px;stroke-linecap:butt;stroke-linejoin:miter;stroke-opacity:1"/>
<path class="bond-7 atom-7 atom-8" d="M 370.9,385.8 L 358.5,368.2" style="fill:none;fill-rule:evenodd;stroke:#000000;stroke-width:2.0px;stroke-linecap:butt;stroke-linejoin:miter;stroke-opacity:1"/>
<path class="bond-8 atom-8 atom-9" d="M 350.9,368.0 L 320.3,370.8" style="fill:none;fill-rule:evenodd;stroke:#000000;stroke-width:2.0px;stroke-linecap:butt;stroke-linejoin:miter;stroke-opacity:1"/>
<path class="bond-9 atom-9 atom-10" d="M 320.3,370.8 L 302.6,345.7" style="fill:none;fill-rule:evenodd;stroke:#000000;stroke-width:2.0px;stroke-linecap:butt;stroke-linejoin:miter;stroke-opacity:1"/>
<path class="bond-9 atom-9 atom-10" d="M 322.6,363.5 L 310.3,345.9" style="fill:none;fill-rule:evenodd;stroke:#000000;stroke-width:2.0px;stroke-linecap:butt;stroke-linejoin:miter;stroke-opacity:1"/>
<path class="bond-10 atom-10 atom-11" d="M 302.6,345.7 L 275.8,348.1" style="fill:none;fill-rule:evenodd;stroke:#000000;stroke-width:2.0px;stroke-linecap:butt;stroke-linejoin:miter;stroke-opacity:1"/>
<path class="atom-0" d="M 483.5 324.6 L 488.6 324.6 L 488.6 325.6 L 484.6 325.6 L 484.6 328.2 L 488.2 328.2 L 488.2 329.2 L 484.6 329.2 L 484.6 333.3 L 483.5 333.3 L 483.5 324.6 " fill="#000000"/>
<path class="atom-1" d="M 471.3 352.5 L 474.1 357.1 Q 474.4 357.5, 474.8 358.4 Q 475.3 359.2, 475.3 359.2 L 475.3 352.5 L 476.5 352.5 L 476.5 361.2 L 475.3 361.2 L 472.2 356.1 Q 471.9 355.6, 471.5 354.9 Q 471.1 354.2, 471.0 354.0 L 471.0 361.2 L 469.9 361.2 L 469.9 352.5 L 471.3 352.5 " fill="#000000"/>
<path class="atom-1" d="M 477.5 352.5 L 478.7 352.5 L 478.7 356.2 L 483.1 356.2 L 483.1 352.5 L 484.3 352.5 L 484.3 361.2 L 483.1 361.2 L 483.1 357.2 L 478.7 357.2 L 478.7 361.2 L 477.5 361.2 L 477.5 352.5 " fill="#000000"/>
<path class="atom-4" d="M 396.7 393.3 Q 396.8 393.3, 397.2 393.5 Q 397.6 393.7, 398.0 393.8 Q 398.5 393.9, 398.9 393.9 Q 399.8 393.9, 400.2 393.5 Q 400.7 393.1, 400.7 392.4 Q 400.7 391.9, 400.5 391.6 Q 400.2 391.3, 399.9 391.1 Q 399.5 391.0, 398.9 390.8 Q 398.1 390.6, 397.6 390.3 Q 397.2 390.1, 396.9 389.6 Q 396.5 389.2, 396.5 388.4 Q 396.5 387.3, 397.3 386.6 Q 398.0 386.0, 399.5 386.0 Q 400.5 386.0, 401.7 386.4 L 401.4 387.4 Q 400.3 386.9, 399.5 386.9 Q 398.7 386.9, 398.2 387.3 Q 397.8 387.6, 397.8 388.2 Q 397.8 388.7, 398.0 389.0 Q 398.3 389.3, 398.6 389.4 Q 399.0 389.6, 399.5 389.8 Q 400.3 390.0, 400.8 390.3 Q 401.3 390.5, 401.6 391.0 Q 401.9 391.5, 401.9 392.4 Q 401.9 393.6, 401.1 394.2 Q 400.3 394.9, 399.0 394.9 Q 398.2 394.9, 397.6 394.7 Q 397.0 394.5, 396.4 394.2 L 396.7 393.3 " fill="#000000"/>
<path class="atom-5" d="M 392.4 359.7 Q 392.4 357.6, 393.4 356.5 Q 394.4 355.3, 396.4 355.3 Q 398.3 355.3, 399.3 356.5 Q 400.3 357.6, 400.3 359.7 Q 400.3 361.8, 399.3 363.0 Q 398.3 364.2, 396.4 364.2 Q 394.4 364.2, 393.4 363.0 Q 392.4 361.9, 392.4 359.7 M 396.4 363.3 Q 397.7 363.3, 398.4 362.4 Q 399.1 361.5, 399.1 359.7 Q 399.1 358.0, 398.4 357.2 Q 397.7 356.3, 396.4 356.3 Q 395.0 356.3, 394.3 357.2 Q 393.6 358.0, 393.6 359.7 Q 393.6 361.5, 394.3 362.4 Q 395.0 363.3, 396.4 363.3 " fill="#000000"/>
<path class="atom-6" d="M 397.9 420.9 Q 397.9 418.8, 399.0 417.6 Q 400.0 416.5, 401.9 416.5 Q 403.9 416.5, 404.9 417.6 Q 405.9 418.8, 405.9 420.9 Q 405.9 423.0, 404.9 424.2 Q 403.8 425.4, 401.9 425.4 Q 400.0 425.4, 399.0 424.2 Q 397.9 423.0, 397.9 420.9 M 401.9 424.4 Q 403.3 424.4, 404.0 423.5 Q 404.7 422.6, 404.7 420.9 Q 404.7 419.2, 404.0 418.3 Q 403.3 417.5, 401.9 417.5 Q 400.6 417.5, 399.9 418.3 Q 399.2 419.2, 399.2 420.9 Q 399.2 422.6, 399.9 423.5 Q 400.6 424.4, 401.9 424.4 " fill="#000000"/>
<path class="atom-11" d="M 261.4 344.1 L 262.5 344.1 L 262.5 347.8 L 267.0 347.8 L 267.0 344.1 L 268.2 344.1 L 268.2 352.8 L 267.0 352.8 L 267.0 348.8 L 262.5 348.8 L 262.5 352.8 L 261.4 352.8 L 261.4 344.1 " fill="#000000"/>
<path class="atom-11" d="M 269.5 351.5 Q 269.6 351.5, 270.0 351.7 Q 270.5 351.9, 270.9 352.0 Q 271.3 352.1, 271.8 352.1 Q 272.6 352.1, 273.1 351.7 Q 273.6 351.3, 273.6 350.6 Q 273.6 350.1, 273.3 349.8 Q 273.1 349.5, 272.7 349.3 Q 272.4 349.2, 271.7 349.0 Q 271.0 348.8, 270.5 348.5 Q 270.0 348.3, 269.7 347.9 Q 269.4 347.4, 269.4 346.6 Q 269.4 345.5, 270.1 344.8 Q 270.9 344.2, 272.4 344.2 Q 273.4 344.2, 274.5 344.6 L 274.2 345.6 Q 273.2 345.2, 272.4 345.2 Q 271.5 345.2, 271.1 345.5 Q 270.6 345.9, 270.6 346.5 Q 270.6 346.9, 270.9 347.2 Q 271.1 347.5, 271.4 347.6 Q 271.8 347.8, 272.4 348.0 Q 273.2 348.2, 273.6 348.5 Q 274.1 348.7, 274.4 349.2 Q 274.8 349.7, 274.8 350.6 Q 274.8 351.8, 274.0 352.4 Q 273.2 353.1, 271.8 353.1 Q 271.1 353.1, 270.5 352.9 Q 269.9 352.7, 269.2 352.5 L 269.5 351.5 " fill="#000000"/>
<path class="bond-0 atom-0 atom-1" d="M 723.1,388.1 L 707.5,362.8" style="fill:none;fill-rule:evenodd;stroke:#000000;stroke-width:2.0px;stroke-linecap:butt;stroke-linejoin:miter;stroke-opacity:1"/>
<path class="bond-1 atom-1 atom-2" d="M 707.5,362.8 L 670.2,364.0" style="fill:none;fill-rule:evenodd;stroke:#000000;stroke-width:2.0px;stroke-linecap:butt;stroke-linejoin:miter;stroke-opacity:1"/>
<path class="bond-2 atom-2 atom-3" d="M 670.2,364.0 L 654.6,338.7" style="fill:none;fill-rule:evenodd;stroke:#000000;stroke-width:2.0px;stroke-linecap:butt;stroke-linejoin:miter;stroke-opacity:1"/>
<path class="bond-3 atom-3 atom-4" d="M 645.4,332.0 L 613.2,330.8" style="fill:none;fill-rule:evenodd;stroke:#000000;stroke-width:2.0px;stroke-linecap:butt;stroke-linejoin:miter;stroke-opacity:1"/>
<path class="bond-3 atom-3 atom-4" d="M 640.3,339.3 L 617.7,338.4" style="fill:none;fill-rule:evenodd;stroke:#000000;stroke-width:2.0px;stroke-linecap:butt;stroke-linejoin:miter;stroke-opacity:1"/>
<path class="bond-4 atom-4 atom-5" d="M 613.2,330.8 L 627.1,357.4" style="fill:none;fill-rule:evenodd;stroke:#000000;stroke-width:2.0px;stroke-linecap:butt;stroke-linejoin:miter;stroke-opacity:1"/>
<path class="bond-5 atom-5 atom-6" d="M 633.4,358.3 L 640.5,354.7" style="fill:none;fill-rule:evenodd;stroke:#000000;stroke-width:2.0px;stroke-linecap:butt;stroke-linejoin:miter;stroke-opacity:1"/>
<path class="bond-5 atom-5 atom-6" d="M 636.7,364.9 L 643.8,361.4" style="fill:none;fill-rule:evenodd;stroke:#000000;stroke-width:2.0px;stroke-linecap:butt;stroke-linejoin:miter;stroke-opacity:1"/>
<path class="bond-6 atom-5 atom-7" d="M 636.5,362.4 L 660.2,372.4" style="fill:none;fill-rule:evenodd;stroke:#000000;stroke-width:2.0px;stroke-linecap:butt;stroke-linejoin:miter;stroke-opacity:1"/>
<path class="bond-6 atom-5 atom-7" d="M 633.6,369.2 L 657.3,379.2" style="fill:none;fill-rule:evenodd;stroke:#000000;stroke-width:2.0px;stroke-linecap:butt;stroke-linejoin:miter;stroke-opacity:1"/>
<path class="bond-7 atom-5 atom-8" d="M 627.4,370.6 L 615.3,398.0" style="fill:none;fill-rule:evenodd;stroke:#000000;stroke-width:2.0px;stroke-linecap:butt;stroke-linejoin:miter;stroke-opacity:1"/>
<path class="bond-8 atom-8 atom-9" d="M 615.3,398.0 L 579.2,407.4" style="fill:none;fill-rule:evenodd;stroke:#000000;stroke-width:2.0px;stroke-linecap:butt;stroke-linejoin:miter;stroke-opacity:1"/>
<path class="bond-9 atom-8 atom-10" d="M 615.3,398.0 L 639.4,426.4" style="fill:none;fill-rule:evenodd;stroke:#000000;stroke-width:2.0px;stroke-linecap:butt;stroke-linejoin:miter;stroke-opacity:1"/>
<path class="bond-10 atom-8 atom-11" d="M 615.3,398.0 L 647.4,397.0" style="fill:none;fill-rule:evenodd;stroke:#000000;stroke-width:2.0px;stroke-linecap:butt;stroke-linejoin:miter;stroke-opacity:1"/>
<path class="bond-11 atom-4 atom-12" d="M 613.2,330.8 L 576.6,323.6" style="fill:none;fill-rule:evenodd;stroke:#000000;stroke-width:2.0px;stroke-linecap:butt;stroke-linejoin:miter;stroke-opacity:1"/>
<path class="bond-12 atom-12 atom-13" d="M 576.6,323.6 L 548.2,347.7" style="fill:none;fill-rule:evenodd;stroke:#000000;stroke-width:2.0px;stroke-linecap:butt;stroke-linejoin:miter;stroke-opacity:1"/>
<path class="bond-12 atom-12 atom-13" d="M 577.2,332.9 L 557.3,349.8" style="fill:none;fill-rule:evenodd;stroke:#000000;stroke-width:2.0px;stroke-linecap:butt;stroke-linejoin:miter;stroke-opacity:1"/>
<path class="bond-13 atom-13 atom-14" d="M 548.2,347.7 L 549.3,385.0" style="fill:none;fill-rule:evenodd;stroke:#000000;stroke-width:2.0px;stroke-linecap:butt;stroke-linejoin:miter;stroke-opacity:1"/>
<path class="bond-14 atom-14 atom-15" d="M 551.0,388.3 L 524.0,402.4" style="fill:none;fill-rule:evenodd;stroke:#000000;stroke-width:2.0px;stroke-linecap:butt;stroke-linejoin:miter;stroke-opacity:1"/>
<path class="bond-14 atom-14 atom-15" d="M 547.6,381.7 L 520.5,395.8" style="fill:none;fill-rule:evenodd;stroke:#000000;stroke-width:2.0px;stroke-linecap:butt;stroke-linejoin:miter;stroke-opacity:1"/>
<path class="bond-15 atom-2 atom-11" d="M 670.2,364.0 L 656.1,390.3" style="fill:none;fill-rule:evenodd;stroke:#000000;stroke-width:2.0px;stroke-linecap:butt;stroke-linejoin:miter;stroke-opacity:1"/>
<path class="bond-15 atom-2 atom-11" d="M 661.5,364.4 L 651.6,382.9" style="fill:none;fill-rule:evenodd;stroke:#000000;stroke-width:2.0px;stroke-linecap:butt;stroke-linejoin:miter;stroke-opacity:1"/>
<path class="bond-16 atom-14 atom-9" d="M 549.3,385.0 L 579.2,407.4" style="fill:none;fill-rule:evenodd;stroke:#000000;stroke-width:2.0px;stroke-linecap:butt;stroke-linejoin:miter;stroke-opacity:1"/>
<path class="atom-0" d="M 724.2 398.2 Q 724.3 398.2, 724.8 398.4 Q 725.3 398.6, 725.8 398.7 Q 726.4 398.9, 726.9 398.9 Q 727.9 398.9, 728.5 398.4 Q 729.1 397.9, 729.1 397.0 Q 729.1 396.5, 728.8 396.1 Q 728.5 395.7, 728.0 395.6 Q 727.6 395.4, 726.8 395.1 Q 725.9 394.9, 725.3 394.6 Q 724.8 394.3, 724.4 393.7 Q 724.0 393.2, 724.0 392.2 Q 724.0 390.9, 724.9 390.1 Q 725.8 389.3, 727.6 389.3 Q 728.8 389.3, 730.2 389.8 L 729.9 391.0 Q 728.6 390.5, 727.6 390.5 Q 726.6 390.5, 726.0 390.9 Q 725.5 391.3, 725.5 392.0 Q 725.5 392.6, 725.8 393.0 Q 726.1 393.3, 726.5 393.5 Q 726.9 393.7, 727.6 393.9 Q 728.6 394.2, 729.1 394.5 Q 729.7 394.8, 730.1 395.4 Q 730.5 396.0, 730.5 397.0 Q 730.5 398.5, 729.6 399.3 Q 728.6 400.1, 727.0 400.1 Q 726.0 400.1, 725.3 399.9 Q 724.6 399.7, 723.8 399.3 L 724.2 398.2 " fill="#000000"/>
<path class="atom-0" d="M 731.2 391.0 L 733.1 391.0 L 733.1 389.0 L 733.9 389.0 L 733.9 391.0 L 735.8 391.0 L 735.8 391.7 L 733.9 391.7 L 733.9 393.7 L 733.1 393.7 L 733.1 391.7 L 731.2 391.7 L 731.2 391.0 " fill="#000000"/>
<path class="atom-3" d="M 648.2 326.9 L 651.7 332.5 Q 652.1 333.1, 652.6 334.1 Q 653.2 335.1, 653.2 335.2 L 653.2 326.9 L 654.6 326.9 L 654.6 337.5 L 653.1 337.5 L 649.4 331.4 Q 649.0 330.7, 648.5 329.9 Q 648.1 329.0, 647.9 328.8 L 647.9 337.5 L 646.6 337.5 L 646.6 326.9 L 648.2 326.9 " fill="#000000"/>
<path class="atom-5" d="M 627.4 367.5 Q 627.6 367.5, 628.1 367.8 Q 628.5 368.0, 629.1 368.1 Q 629.6 368.2, 630.2 368.2 Q 631.2 368.2, 631.8 367.7 Q 632.3 367.2, 632.3 366.4 Q 632.3 365.8, 632.0 365.5 Q 631.8 365.1, 631.3 364.9 Q 630.9 364.7, 630.1 364.5 Q 629.2 364.2, 628.6 363.9 Q 628.1 363.7, 627.7 363.1 Q 627.3 362.5, 627.3 361.6 Q 627.3 360.2, 628.2 359.4 Q 629.1 358.6, 630.9 358.6 Q 632.1 358.6, 633.5 359.2 L 633.1 360.3 Q 631.9 359.8, 630.9 359.8 Q 629.9 359.8, 629.3 360.2 Q 628.7 360.7, 628.8 361.4 Q 628.8 362.0, 629.0 362.3 Q 629.3 362.6, 629.8 362.8 Q 630.2 363.0, 630.9 363.3 Q 631.9 363.6, 632.4 363.9 Q 633.0 364.2, 633.4 364.8 Q 633.8 365.4, 633.8 366.4 Q 633.8 367.9, 632.8 368.6 Q 631.9 369.4, 630.2 369.4 Q 629.3 369.4, 628.6 369.2 Q 627.9 369.0, 627.0 368.7 L 627.4 367.5 " fill="#000000"/>
<path class="atom-6" d="M 643.3 355.1 Q 643.3 352.6, 644.6 351.2 Q 645.9 349.7, 648.2 349.7 Q 650.5 349.7, 651.8 351.2 Q 653.0 352.6, 653.0 355.1 Q 653.0 357.7, 651.8 359.1 Q 650.5 360.6, 648.2 360.6 Q 645.9 360.6, 644.6 359.1 Q 643.3 357.7, 643.3 355.1 M 648.2 359.4 Q 649.8 359.4, 650.7 358.3 Q 651.6 357.2, 651.6 355.1 Q 651.6 353.0, 650.7 352.0 Q 649.8 350.9, 648.2 350.9 Q 646.6 350.9, 645.7 352.0 Q 644.8 353.0, 644.8 355.1 Q 644.8 357.2, 645.7 358.3 Q 646.6 359.4, 648.2 359.4 " fill="#000000"/>
<path class="atom-7" d="M 660.0 378.4 Q 660.0 375.8, 661.2 374.4 Q 662.5 373.0, 664.8 373.0 Q 667.2 373.0, 668.4 374.4 Q 669.7 375.8, 669.7 378.4 Q 669.7 380.9, 668.4 382.4 Q 667.1 383.8, 664.8 383.8 Q 662.5 383.8, 661.2 382.4 Q 660.0 380.9, 660.0 378.4 M 664.8 382.6 Q 666.4 382.6, 667.3 381.6 Q 668.2 380.5, 668.2 378.4 Q 668.2 376.3, 667.3 375.2 Q 666.4 374.2, 664.8 374.2 Q 663.2 374.2, 662.3 375.2 Q 661.5 376.3, 661.5 378.4 Q 661.5 380.5, 662.3 381.6 Q 663.2 382.6, 664.8 382.6 " fill="#000000"/>
<path class="atom-11" d="M 650.2 391.5 L 653.7 397.1 Q 654.0 397.7, 654.6 398.7 Q 655.1 399.7, 655.2 399.7 L 655.2 391.5 L 656.6 391.5 L 656.6 402.1 L 655.1 402.1 L 651.4 396.0 Q 651.0 395.3, 650.5 394.4 Q 650.1 393.6, 649.9 393.4 L 649.9 402.1 L 648.6 402.1 L 648.6 391.5 L 650.2 391.5 " fill="#000000"/>
<path class="atom-15" d="M 511.4 402.3 Q 511.4 399.7, 512.6 398.3 Q 513.9 396.9, 516.2 396.9 Q 518.6 396.9, 519.8 398.3 Q 521.1 399.7, 521.1 402.3 Q 521.1 404.8, 519.8 406.3 Q 518.5 407.7, 516.2 407.7 Q 513.9 407.7, 512.6 406.3 Q 511.4 404.9, 511.4 402.3 M 516.2 406.6 Q 517.8 406.6, 518.7 405.5 Q 519.6 404.4, 519.6 402.3 Q 519.6 400.2, 518.7 399.2 Q 517.8 398.1, 516.2 398.1 Q 514.6 398.1, 513.7 399.1 Q 512.9 400.2, 512.9 402.3 Q 512.9 404.4, 513.7 405.5 Q 514.6 406.6, 516.2 406.6 " fill="#000000"/>
<path class="atom-0" d="M 738.8,396.0 L 738.8,396.1 L 738.8,396.1 L 738.8,396.2 L 738.8,396.3 L 738.8,396.3 L 738.7,396.4 L 738.7,396.4 L 738.7,396.5 L 738.6,396.5 L 738.6,396.6 L 738.5,396.6 L 738.5,396.7 L 738.4,396.7 L 738.3,396.7 L 738.3,396.7 L 738.2,396.7 L 738.2,396.8 L 738.1,396.8 L 738.0,396.8 L 738.0,396.8 L 737.9,396.7 L 737.8,396.7 L 737.8,396.7 L 737.7,396.7 L 737.7,396.6 L 737.6,396.6 L 737.6,396.6 L 737.5,396.5 L 737.5,396.5 L 737.4,396.4 L 737.4,396.4 L 737.4,396.3 L 737.4,396.2 L 737.3,396.2 L 737.3,396.1 L 737.3,396.0 L 737.3,396.0 L 737.3,395.9 L 737.3,395.9 L 737.4,395.8 L 737.4,395.7 L 737.4,395.7 L 737.4,395.6 L 737.5,395.6 L 737.5,395.5 L 737.6,395.5 L 737.6,395.4 L 737.7,395.4 L 737.7,395.4 L 737.8,395.3 L 737.8,395.3 L 737.9,395.3 L 738.0,395.3 L 738.0,395.3 L 738.1,395.3 L 738.2,395.3 L 738.2,395.3 L 738.3,395.3 L 738.3,395.3 L 738.4,395.3 L 738.5,395.4 L 738.5,395.4 L 738.6,395.5 L 738.6,395.5 L 738.7,395.5 L 738.7,395.6 L 738.7,395.6 L 738.8,395.7 L 738.8,395.8 L 738.8,395.8 L 738.8,395.9 L 738.8,396.0 L 738.8,396.0 L 738.1,396.0 Z" style="fill:#000000;fill-rule:evenodd;fill-opacity:1;stroke:#000000;stroke-width:0.0px;stroke-linecap:butt;stroke-linejoin:miter;stroke-opacity:1;"/>
<path class="atom-0" d="M 738.8,393.0 L 738.8,393.1 L 738.8,393.2 L 738.8,393.2 L 738.8,393.3 L 738.8,393.3 L 738.7,393.4 L 738.7,393.5 L 738.7,393.5 L 738.6,393.6 L 738.6,393.6 L 738.5,393.6 L 738.5,393.7 L 738.4,393.7 L 738.3,393.7 L 738.3,393.8 L 738.2,393.8 L 738.2,393.8 L 738.1,393.8 L 738.0,393.8 L 738.0,393.8 L 737.9,393.8 L 737.8,393.7 L 737.8,393.7 L 737.7,393.7 L 737.7,393.7 L 737.6,393.6 L 737.6,393.6 L 737.5,393.5 L 737.5,393.5 L 737.4,393.4 L 737.4,393.4 L 737.4,393.3 L 737.4,393.3 L 737.3,393.2 L 737.3,393.1 L 737.3,393.1 L 737.3,393.0 L 737.3,392.9 L 737.3,392.9 L 737.4,392.8 L 737.4,392.8 L 737.4,392.7 L 737.4,392.6 L 737.5,392.6 L 737.5,392.5 L 737.6,392.5 L 737.6,392.4 L 737.7,392.4 L 737.7,392.4 L 737.8,392.3 L 737.8,392.3 L 737.9,392.3 L 738.0,392.3 L 738.0,392.3 L 738.1,392.3 L 738.2,392.3 L 738.2,392.3 L 738.3,392.3 L 738.3,392.3 L 738.4,392.4 L 738.5,392.4 L 738.5,392.4 L 738.6,392.5 L 738.6,392.5 L 738.7,392.6 L 738.7,392.6 L 738.7,392.7 L 738.8,392.7 L 738.8,392.8 L 738.8,392.8 L 738.8,392.9 L 738.8,393.0 L 738.8,393.0 L 738.1,393.0 Z" style="fill:#000000;fill-rule:evenodd;fill-opacity:1;stroke:#000000;stroke-width:0.0px;stroke-linecap:butt;stroke-linejoin:miter;stroke-opacity:1;"/>
<path class="bond-0 atom-0 atom-1" d="M 34.4,614.4 L 60.9,633.8" style="fill:none;fill-rule:evenodd;stroke:#000000;stroke-width:2.0px;stroke-linecap:butt;stroke-linejoin:miter;stroke-opacity:1"/>
<path class="bond-1 atom-1 atom-2" d="M 60.9,633.8 L 97.3,617.7" style="fill:none;fill-rule:evenodd;stroke:#000000;stroke-width:2.0px;stroke-linecap:butt;stroke-linejoin:miter;stroke-opacity:1"/>
<path class="bond-2 atom-2 atom-3" d="M 97.3,617.7 L 129.5,641.1" style="fill:none;fill-rule:evenodd;stroke:#000000;stroke-width:2.0px;stroke-linecap:butt;stroke-linejoin:miter;stroke-opacity:1"/>
<path class="bond-3 atom-3 atom-4" d="M 129.5,641.1 L 165.9,625.0" style="fill:none;fill-rule:evenodd;stroke:#000000;stroke-width:2.0px;stroke-linecap:butt;stroke-linejoin:miter;stroke-opacity:1"/>
<path class="bond-4 atom-4 atom-5" d="M 165.9,625.0 L 170.1,585.4" style="fill:none;fill-rule:evenodd;stroke:#000000;stroke-width:2.0px;stroke-linecap:butt;stroke-linejoin:miter;stroke-opacity:1"/>
<path class="bond-4 atom-4 atom-5" d="M 174.4,619.9 L 177.4,592.2" style="fill:none;fill-rule:evenodd;stroke:#000000;stroke-width:2.0px;stroke-linecap:butt;stroke-linejoin:miter;stroke-opacity:1"/>
<path class="bond-5 atom-5 atom-6" d="M 170.1,585.4 L 142.6,565.4" style="fill:none;fill-rule:evenodd;stroke:#000000;stroke-width:2.0px;stroke-linecap:butt;stroke-linejoin:miter;stroke-opacity:1"/>
<path class="bond-6 atom-5 atom-7" d="M 170.1,585.4 L 206.5,569.3" style="fill:none;fill-rule:evenodd;stroke:#000000;stroke-width:2.0px;stroke-linecap:butt;stroke-linejoin:miter;stroke-opacity:1"/>
<path class="bond-7 atom-7 atom-8" d="M 206.5,569.3 L 238.6,592.8" style="fill:none;fill-rule:evenodd;stroke:#000000;stroke-width:2.0px;stroke-linecap:butt;stroke-linejoin:miter;stroke-opacity:1"/>
<path class="bond-7 atom-7 atom-8" d="M 206.6,579.3 L 229.1,595.7" style="fill:none;fill-rule:evenodd;stroke:#000000;stroke-width:2.0px;stroke-linecap:butt;stroke-linejoin:miter;stroke-opacity:1"/>
<path class="bond-8 atom-8 atom-9" d="M 238.6,592.8 L 234.4,632.3" style="fill:none;fill-rule:evenodd;stroke:#000000;stroke-width:2.0px;stroke-linecap:butt;stroke-linejoin:miter;stroke-opacity:1"/>
<path class="bond-9 atom-9 atom-10" d="M 234.4,632.3 L 198.0,648.5" style="fill:none;fill-rule:evenodd;stroke:#000000;stroke-width:2.0px;stroke-linecap:butt;stroke-linejoin:miter;stroke-opacity:1"/>
<path class="bond-9 atom-9 atom-10" d="M 225.7,627.5 L 200.3,638.8" style="fill:none;fill-rule:evenodd;stroke:#000000;stroke-width:2.0px;stroke-linecap:butt;stroke-linejoin:miter;stroke-opacity:1"/>
<path class="bond-10 atom-10 atom-11" d="M 198.0,648.5 L 194.5,681.1" style="fill:none;fill-rule:evenodd;stroke:#000000;stroke-width:2.0px;stroke-linecap:butt;stroke-linejoin:miter;stroke-opacity:1"/>
<path class="bond-11 atom-10 atom-4" d="M 198.0,648.5 L 165.9,625.0" style="fill:none;fill-rule:evenodd;stroke:#000000;stroke-width:2.0px;stroke-linecap:butt;stroke-linejoin:miter;stroke-opacity:1"/>
<path class="atom-0" d="M 14.3 604.7 L 15.9 604.7 L 15.9 609.5 L 21.6 609.5 L 21.6 604.7 L 23.2 604.7 L 23.2 616.0 L 21.6 616.0 L 21.6 610.8 L 15.9 610.8 L 15.9 616.0 L 14.3 616.0 L 14.3 604.7 " fill="#000000"/>
<path class="atom-0" d="M 26.3 604.7 L 30.0 610.7 Q 30.4 611.3, 31.0 612.3 Q 31.5 613.4, 31.6 613.5 L 31.6 604.7 L 33.1 604.7 L 33.1 616.0 L 31.5 616.0 L 27.6 609.4 Q 27.1 608.7, 26.6 607.8 Q 26.1 606.9, 26.0 606.7 L 26.0 616.0 L 24.5 616.0 L 24.5 604.7 L 26.3 604.7 " fill="#000000"/>
<path class="atom-6" d="M 134.6 556.3 L 141.3 556.3 L 141.3 557.6 L 136.1 557.6 L 136.1 561.1 L 140.7 561.1 L 140.7 562.4 L 136.1 562.4 L 136.1 567.6 L 134.6 567.6 L 134.6 556.3 " fill="#000000"/>
<path class="atom-11" d="M 190.4 682.4 L 197.1 682.4 L 197.1 683.7 L 191.9 683.7 L 191.9 687.1 L 196.6 687.1 L 196.6 688.4 L 191.9 688.4 L 191.9 693.7 L 190.4 693.7 L 190.4 682.4 " fill="#000000"/>
<path class="atom-0" d="M 12.8,610.3 L 12.8,610.4 L 12.7,610.5 L 12.7,610.5 L 12.7,610.6 L 12.7,610.7 L 12.7,610.7 L 12.6,610.8 L 12.6,610.8 L 12.5,610.9 L 12.5,610.9 L 12.4,611.0 L 12.4,611.0 L 12.3,611.0 L 12.2,611.1 L 12.2,611.1 L 12.1,611.1 L 12.0,611.1 L 12.0,611.1 L 11.9,611.1 L 11.8,611.1 L 11.8,611.1 L 11.7,611.1 L 11.6,611.1 L 11.6,611.0 L 11.5,611.0 L 11.5,611.0 L 11.4,610.9 L 11.4,610.9 L 11.3,610.8 L 11.3,610.8 L 11.3,610.7 L 11.2,610.6 L 11.2,610.6 L 11.2,610.5 L 11.2,610.4 L 11.2,610.4 L 11.2,610.3 L 11.2,610.2 L 11.2,610.2 L 11.2,610.1 L 11.2,610.0 L 11.3,610.0 L 11.3,609.9 L 11.3,609.9 L 11.4,609.8 L 11.4,609.8 L 11.5,609.7 L 11.5,609.7 L 11.6,609.6 L 11.6,609.6 L 11.7,609.6 L 11.8,609.6 L 11.8,609.5 L 11.9,609.5 L 12.0,609.5 L 12.0,609.5 L 12.1,609.6 L 12.2,609.6 L 12.2,609.6 L 12.3,609.6 L 12.4,609.6 L 12.4,609.7 L 12.5,609.7 L 12.5,609.8 L 12.6,609.8 L 12.6,609.9 L 12.7,609.9 L 12.7,610.0 L 12.7,610.1 L 12.7,610.1 L 12.7,610.2 L 12.8,610.3 L 12.8,610.3 L 12.0,610.3 Z" style="fill:#000000;fill-rule:evenodd;fill-opacity:1;stroke:#000000;stroke-width:0.0px;stroke-linecap:butt;stroke-linejoin:miter;stroke-opacity:1;"/>
<path class="atom-1" d="M 61.7,637.4 L 61.7,637.4 L 61.7,637.5 L 61.7,637.6 L 61.7,637.6 L 61.7,637.7 L 61.6,637.8 L 61.6,637.8 L 61.6,637.9 L 61.5,637.9 L 61.5,638.0 L 61.4,638.0 L 61.4,638.0 L 61.3,638.1 L 61.2,638.1 L 61.2,638.1 L 61.1,638.1 L 61.0,638.2 L 61.0,638.2 L 60.9,638.2 L 60.8,638.2 L 60.8,638.1 L 60.7,638.1 L 60.6,638.1 L 60.6,638.1 L 60.5,638.0 L 60.5,638.0 L 60.4,637.9 L 60.4,637.9 L 60.3,637.8 L 60.3,637.8 L 60.2,637.7 L 60.2,637.7 L 60.2,637.6 L 60.2,637.5 L 60.2,637.5 L 60.1,637.4 L 60.1,637.3 L 60.2,637.3 L 60.2,637.2 L 60.2,637.1 L 60.2,637.1 L 60.2,637.0 L 60.3,636.9 L 60.3,636.9 L 60.4,636.8 L 60.4,636.8 L 60.5,636.7 L 60.5,636.7 L 60.6,636.7 L 60.6,636.6 L 60.7,636.6 L 60.8,636.6 L 60.8,636.6 L 60.9,636.6 L 61.0,636.6 L 61.0,636.6 L 61.1,636.6 L 61.2,636.6 L 61.2,636.6 L 61.3,636.6 L 61.4,636.7 L 61.4,636.7 L 61.5,636.8 L 61.5,636.8 L 61.6,636.9 L 61.6,636.9 L 61.6,637.0 L 61.7,637.0 L 61.7,637.1 L 61.7,637.2 L 61.7,637.2 L 61.7,637.3 L 61.7,637.4 L 60.9,637.4 Z" style="fill:#000000;fill-rule:evenodd;fill-opacity:1;stroke:#000000;stroke-width:0.0px;stroke-linecap:butt;stroke-linejoin:miter;stroke-opacity:1;"/>
<path class="bond-0 atom-0 atom-1" d="M 265.1,637.9 L 289.9,625.3" style="fill:none;fill-rule:evenodd;stroke:#000000;stroke-width:2.0px;stroke-linecap:butt;stroke-linejoin:miter;stroke-opacity:1"/>
<path class="bond-1 atom-1 atom-2" d="M 289.9,625.3 L 309.3,638.0" style="fill:none;fill-rule:evenodd;stroke:#000000;stroke-width:2.0px;stroke-linecap:butt;stroke-linejoin:miter;stroke-opacity:1"/>
<path class="bond-1 atom-1 atom-2" d="M 289.8,631.9 L 303.3,640.7" style="fill:none;fill-rule:evenodd;stroke:#000000;stroke-width:2.0px;stroke-linecap:butt;stroke-linejoin:miter;stroke-opacity:1"/>
<path class="bond-2 atom-2 atom-3" d="M 317.1,638.5 L 334.1,629.9" style="fill:none;fill-rule:evenodd;stroke:#000000;stroke-width:2.0px;stroke-linecap:butt;stroke-linejoin:miter;stroke-opacity:1"/>
<path class="bond-3 atom-3 atom-4" d="M 341.9,630.5 L 361.2,643.2" style="fill:none;fill-rule:evenodd;stroke:#000000;stroke-width:2.0px;stroke-linecap:butt;stroke-linejoin:miter;stroke-opacity:1"/>
<path class="bond-3 atom-3 atom-4" d="M 341.7,637.1 L 355.3,645.9" style="fill:none;fill-rule:evenodd;stroke:#000000;stroke-width:2.0px;stroke-linecap:butt;stroke-linejoin:miter;stroke-opacity:1"/>
<path class="bond-4 atom-4 atom-5" d="M 361.2,643.2 L 382.6,632.4" style="fill:none;fill-rule:evenodd;stroke:#000000;stroke-width:2.0px;stroke-linecap:butt;stroke-linejoin:miter;stroke-opacity:1"/>
<path class="bond-5 atom-5 atom-6" d="M 389.5,632.9 L 409.3,645.8" style="fill:none;fill-rule:evenodd;stroke:#000000;stroke-width:2.0px;stroke-linecap:butt;stroke-linejoin:miter;stroke-opacity:1"/>
<path class="bond-6 atom-6 atom-7" d="M 409.3,645.8 L 434.1,633.3" style="fill:none;fill-rule:evenodd;stroke:#000000;stroke-width:2.0px;stroke-linecap:butt;stroke-linejoin:miter;stroke-opacity:1"/>
<path class="bond-7 atom-7 atom-8" d="M 434.1,633.3 L 432.5,611.3 L 438.1,611.6 Z" style="fill:#000000;fill-rule:evenodd;fill-opacity:1;stroke:#000000;stroke-width:1.0px;stroke-linecap:butt;stroke-linejoin:miter;stroke-opacity:1;"/>
<path class="bond-8 atom-7 atom-9" d="M 434.1,633.3 L 457.4,648.5" style="fill:none;fill-rule:evenodd;stroke:#000000;stroke-width:2.0px;stroke-linecap:butt;stroke-linejoin:miter;stroke-opacity:1"/>
<path class="bond-9 atom-9 atom-10" d="M 457.4,648.5 L 478.6,637.7" style="fill:none;fill-rule:evenodd;stroke:#000000;stroke-width:2.0px;stroke-linecap:butt;stroke-linejoin:miter;stroke-opacity:1"/>
<path class="atom-2" d="M 311.4 636.6 L 314.0 640.8 Q 314.3 641.2, 314.7 641.9 Q 315.1 642.7, 315.1 642.7 L 315.1 636.6 L 316.2 636.6 L 316.2 644.5 L 315.1 644.5 L 312.3 639.9 Q 312.0 639.4, 311.7 638.8 Q 311.3 638.1, 311.2 638.0 L 311.2 644.5 L 310.2 644.5 L 310.2 636.6 L 311.4 636.6 " fill="#000000"/>
<path class="atom-3" d="M 336.2 624.0 L 338.8 628.2 Q 339.1 628.6, 339.5 629.4 Q 339.9 630.1, 339.9 630.1 L 339.9 624.0 L 341.0 624.0 L 341.0 631.9 L 339.9 631.9 L 337.1 627.3 Q 336.8 626.8, 336.4 626.2 Q 336.1 625.6, 336.0 625.4 L 336.0 631.9 L 335.0 631.9 L 335.0 624.0 L 336.2 624.0 " fill="#000000"/>
<path class="atom-5" d="M 383.8 633.3 Q 383.9 633.4, 384.3 633.5 Q 384.6 633.7, 385.0 633.8 Q 385.5 633.9, 385.9 633.9 Q 386.6 633.9, 387.0 633.5 Q 387.5 633.1, 387.5 632.5 Q 387.5 632.1, 387.2 631.8 Q 387.0 631.5, 386.7 631.4 Q 386.4 631.2, 385.8 631.1 Q 385.1 630.9, 384.7 630.7 Q 384.3 630.5, 384.0 630.0 Q 383.7 629.6, 383.7 628.9 Q 383.7 627.9, 384.4 627.3 Q 385.0 626.7, 386.4 626.7 Q 387.3 626.7, 388.3 627.1 L 388.1 628.0 Q 387.1 627.6, 386.4 627.6 Q 385.6 627.6, 385.2 627.9 Q 384.8 628.2, 384.8 628.8 Q 384.8 629.2, 385.0 629.4 Q 385.2 629.7, 385.5 629.8 Q 385.9 630.0, 386.4 630.2 Q 387.1 630.4, 387.5 630.6 Q 388.0 630.8, 388.3 631.3 Q 388.6 631.7, 388.6 632.5 Q 388.6 633.6, 387.8 634.2 Q 387.1 634.8, 385.9 634.8 Q 385.2 634.8, 384.7 634.6 Q 384.1 634.5, 383.5 634.2 L 383.8 633.3 " fill="#000000"/>
<path class="atom-8" d="M 432.0 605.5 Q 432.0 603.6, 433.0 602.6 Q 433.9 601.5, 435.6 601.5 Q 437.4 601.5, 438.3 602.6 Q 439.2 603.6, 439.2 605.5 Q 439.2 607.4, 438.3 608.5 Q 437.4 609.6, 435.6 609.6 Q 433.9 609.6, 433.0 608.5 Q 432.0 607.5, 432.0 605.5 M 435.6 608.7 Q 436.8 608.7, 437.5 607.9 Q 438.1 607.1, 438.1 605.5 Q 438.1 604.0, 437.5 603.2 Q 436.8 602.4, 435.6 602.4 Q 434.4 602.4, 433.8 603.2 Q 433.1 604.0, 433.1 605.5 Q 433.1 607.1, 433.8 607.9 Q 434.4 608.7, 435.6 608.7 " fill="#000000"/>
<path class="atom-8" d="M 439.8 601.6 L 440.9 601.6 L 440.9 605.0 L 444.9 605.0 L 444.9 601.6 L 446.0 601.6 L 446.0 609.5 L 444.9 609.5 L 444.9 605.9 L 440.9 605.9 L 440.9 609.5 L 439.8 609.5 L 439.8 601.6 " fill="#000000"/>
<path class="atom-10" d="M 483.3 635.7 Q 484.1 635.9, 484.5 636.4 Q 484.8 636.8, 484.8 637.5 Q 484.8 638.6, 484.1 639.2 Q 483.5 639.8, 482.1 639.8 L 479.5 639.8 L 479.5 632.0 L 481.8 632.0 Q 483.2 632.0, 483.8 632.5 Q 484.5 633.1, 484.5 634.1 Q 484.5 635.3, 483.3 635.7 M 480.6 632.9 L 480.6 635.3 L 481.8 635.3 Q 482.6 635.3, 483.0 635.0 Q 483.4 634.7, 483.4 634.1 Q 483.4 632.9, 481.8 632.9 L 480.6 632.9 M 482.1 639.0 Q 482.9 639.0, 483.3 638.6 Q 483.7 638.2, 483.7 637.5 Q 483.7 636.9, 483.3 636.6 Q 482.8 636.2, 482.0 636.2 L 480.6 636.2 L 480.6 639.0 L 482.1 639.0 " fill="#000000"/>
<path class="atom-10" d="M 486.2 634.1 L 486.3 634.9 Q 486.9 634.0, 487.9 634.0 Q 488.2 634.0, 488.6 634.1 L 488.5 635.1 Q 488.0 635.0, 487.7 635.0 Q 487.3 635.0, 486.9 635.2 Q 486.6 635.3, 486.4 635.8 L 486.4 639.8 L 485.4 639.8 L 485.4 634.1 L 486.2 634.1 " fill="#000000"/>
<path class="atom-0" d="M 262.3,639.0 L 262.3,639.0 L 262.3,639.1 L 262.3,639.1 L 262.3,639.2 L 262.3,639.2 L 262.3,639.3 L 262.2,639.3 L 262.2,639.3 L 262.2,639.4 L 262.1,639.4 L 262.1,639.4 L 262.1,639.5 L 262.0,639.5 L 262.0,639.5 L 261.9,639.5 L 261.9,639.5 L 261.8,639.5 L 261.8,639.5 L 261.7,639.5 L 261.7,639.5 L 261.7,639.5 L 261.6,639.5 L 261.6,639.5 L 261.5,639.5 L 261.5,639.4 L 261.4,639.4 L 261.4,639.4 L 261.4,639.4 L 261.3,639.3 L 261.3,639.3 L 261.3,639.2 L 261.3,639.2 L 261.2,639.1 L 261.2,639.1 L 261.2,639.1 L 261.2,639.0 L 261.2,639.0 L 261.2,638.9 L 261.2,638.9 L 261.2,638.8 L 261.3,638.8 L 261.3,638.7 L 261.3,638.7 L 261.3,638.6 L 261.4,638.6 L 261.4,638.6 L 261.4,638.5 L 261.5,638.5 L 261.5,638.5 L 261.6,638.5 L 261.6,638.5 L 261.7,638.4 L 261.7,638.4 L 261.7,638.4 L 261.8,638.4 L 261.8,638.4 L 261.9,638.4 L 261.9,638.4 L 262.0,638.5 L 262.0,638.5 L 262.1,638.5 L 262.1,638.5 L 262.1,638.6 L 262.2,638.6 L 262.2,638.6 L 262.2,638.7 L 262.3,638.7 L 262.3,638.7 L 262.3,638.8 L 262.3,638.8 L 262.3,638.9 L 262.3,638.9 L 262.3,639.0 L 261.8,639.0 Z" style="fill:#000000;fill-rule:evenodd;fill-opacity:1;stroke:#000000;stroke-width:0.0px;stroke-linecap:butt;stroke-linejoin:miter;stroke-opacity:1;"/>
<path class="atom-0" d="M 262.3,636.8 L 262.3,636.8 L 262.3,636.9 L 262.3,636.9 L 262.3,636.9 L 262.3,637.0 L 262.3,637.0 L 262.2,637.1 L 262.2,637.1 L 262.2,637.1 L 262.1,637.2 L 262.1,637.2 L 262.1,637.2 L 262.0,637.3 L 262.0,637.3 L 261.9,637.3 L 261.9,637.3 L 261.8,637.3 L 261.8,637.3 L 261.7,637.3 L 261.7,637.3 L 261.7,637.3 L 261.6,637.3 L 261.6,637.3 L 261.5,637.2 L 261.5,637.2 L 261.4,637.2 L 261.4,637.2 L 261.4,637.1 L 261.3,637.1 L 261.3,637.1 L 261.3,637.0 L 261.3,637.0 L 261.2,636.9 L 261.2,636.9 L 261.2,636.8 L 261.2,636.8 L 261.2,636.7 L 261.2,636.7 L 261.2,636.6 L 261.2,636.6 L 261.3,636.5 L 261.3,636.5 L 261.3,636.5 L 261.3,636.4 L 261.4,636.4 L 261.4,636.4 L 261.4,636.3 L 261.5,636.3 L 261.5,636.3 L 261.6,636.2 L 261.6,636.2 L 261.7,636.2 L 261.7,636.2 L 261.7,636.2 L 261.8,636.2 L 261.8,636.2 L 261.9,636.2 L 261.9,636.2 L 262.0,636.2 L 262.0,636.3 L 262.1,636.3 L 262.1,636.3 L 262.1,636.3 L 262.2,636.4 L 262.2,636.4 L 262.2,636.4 L 262.3,636.5 L 262.3,636.5 L 262.3,636.6 L 262.3,636.6 L 262.3,636.7 L 262.3,636.7 L 262.3,636.8 L 261.8,636.8 Z" style="fill:#000000;fill-rule:evenodd;fill-opacity:1;stroke:#000000;stroke-width:0.0px;stroke-linecap:butt;stroke-linejoin:miter;stroke-opacity:1;"/>
<path class="bond-0 atom-0 atom-1" d="M 576.3,609.8 L 694.7,609.8" style="fill:none;fill-rule:evenodd;stroke:#000000;stroke-width:2.0px;stroke-linecap:butt;stroke-linejoin:miter;stroke-opacity:1"/>
<path class="bond-0 atom-0 atom-1" d="M 576.3,640.2 L 694.7,640.2" style="fill:none;fill-rule:evenodd;stroke:#000000;stroke-width:2.0px;stroke-linecap:butt;stroke-linejoin:miter;stroke-opacity:1"/>
<path class="atom-0" d="M 524.2 610.8 L 528.1 610.8 L 528.1 622.9 L 542.6 622.9 L 542.6 610.8 L 546.4 610.8 L 546.4 639.2 L 542.6 639.2 L 542.6 626.1 L 528.1 626.1 L 528.1 639.2 L 524.2 639.2 L 524.2 610.8 " fill="#000000"/>
<path class="atom-0" d="M 554.3 610.8 L 563.6 625.8 Q 564.5 627.3, 566.0 630.0 Q 567.4 632.7, 567.5 632.8 L 567.5 610.8 L 571.3 610.8 L 571.3 639.2 L 567.4 639.2 L 557.4 622.8 Q 556.3 620.8, 555.0 618.6 Q 553.8 616.4, 553.5 615.8 L 553.5 639.2 L 549.8 639.2 L 549.8 610.8 L 554.3 610.8 " fill="#000000"/>
<path class="atom-1" d="M 699.8 625.1 Q 699.8 618.3, 703.1 614.5 Q 706.5 610.7, 712.8 610.7 Q 719.0 610.7, 722.4 614.5 Q 725.8 618.3, 725.8 625.1 Q 725.8 632.0, 722.4 635.9 Q 719.0 639.8, 712.8 639.8 Q 706.5 639.8, 703.1 635.9 Q 699.8 632.0, 699.8 625.1 M 712.8 636.6 Q 717.1 636.6, 719.4 633.7 Q 721.8 630.8, 721.8 625.1 Q 721.8 619.5, 719.4 616.7 Q 717.1 613.9, 712.8 613.9 Q 708.4 613.9, 706.1 616.7 Q 703.8 619.5, 703.8 625.1 Q 703.8 630.8, 706.1 633.7 Q 708.4 636.6, 712.8 636.6 " fill="#000000"/>
</svg>