<svg xmlns="http://www.w3.org/2000/svg" xmlns:rdkit="http://www.rdkit.org/xml" xmlns:xlink="http://www.w3.org/1999/xlink" version="1.1" baseProfile="full" xml:space="preserve" width="750px" height="750px" viewBox="0 0 750 750">
<!-- END OF HEADER -->
<rect style="opacity:1.0;fill:#FFFFFF;stroke:none" width="750.0" height="750.0" x="0.0" y="0.0"> </rect>
<path class="bond-0 atom-0 atom-1" d="M 216.1,126.1 L 199.3,166.6" style="fill:none;fill-rule:evenodd;stroke:#000000;stroke-width:2.0px;stroke-linecap:butt;stroke-linejoin:miter;stroke-opacity:1"/>
<path class="bond-1 atom-0 atom-2" d="M 216.3,100.7 L 199.5,60.2" style="fill:none;fill-rule:evenodd;stroke:#000000;stroke-width:2.0px;stroke-linecap:butt;stroke-linejoin:miter;stroke-opacity:1"/>
<path class="bond-2 atom-2 atom-3" d="M 185.3,43.6 L 128.3,19.9" style="fill:none;fill-rule:evenodd;stroke:#000000;stroke-width:2.0px;stroke-linecap:butt;stroke-linejoin:miter;stroke-opacity:1"/>
<path class="bond-3 atom-3 atom-4" d="M 128.3,19.9 L 72.4,43.1" style="fill:none;fill-rule:evenodd;stroke:#000000;stroke-width:2.0px;stroke-linecap:butt;stroke-linejoin:miter;stroke-opacity:1"/>
<path class="bond-4 atom-4 atom-5" d="M 57.2,59.7 L 40.2,100.7" style="fill:none;fill-rule:evenodd;stroke:#000000;stroke-width:2.0px;stroke-linecap:butt;stroke-linejoin:miter;stroke-opacity:1"/>
<path class="bond-5 atom-5 atom-6" d="M 40.2,125.6 L 57.2,166.6" style="fill:none;fill-rule:evenodd;stroke:#000000;stroke-width:2.0px;stroke-linecap:butt;stroke-linejoin:miter;stroke-opacity:1"/>
<path class="bond-6 atom-6 atom-7" d="M 71.2,182.7 L 118.3,202.2" style="fill:none;fill-rule:evenodd;stroke:#000000;stroke-width:2.0px;stroke-linecap:butt;stroke-linejoin:miter;stroke-opacity:1"/>
<path class="bond-6 atom-6 atom-7" d="M 83.7,172.4 L 116.7,186.1" style="fill:none;fill-rule:evenodd;stroke:#000000;stroke-width:2.0px;stroke-linecap:butt;stroke-linejoin:miter;stroke-opacity:1"/>
<path class="bond-7 atom-7 atom-1" d="M 149.4,197.5 L 185.3,182.7" style="fill:none;fill-rule:evenodd;stroke:#000000;stroke-width:2.0px;stroke-linecap:butt;stroke-linejoin:miter;stroke-opacity:1"/>
<path class="atom-0" d="M 215.8 120.1 Q 216.0 120.1, 216.9 120.5 Q 217.9 120.9, 218.9 121.2 Q 220.0 121.4, 221.0 121.4 Q 222.9 121.4, 224.0 120.5 Q 225.1 119.6, 225.1 117.9 Q 225.1 116.8, 224.5 116.1 Q 224.0 115.5, 223.1 115.1 Q 222.3 114.7, 220.9 114.3 Q 219.1 113.7, 218.0 113.2 Q 216.9 112.7, 216.2 111.6 Q 215.4 110.6, 215.4 108.7 Q 215.4 106.2, 217.1 104.6 Q 218.9 103.0, 222.3 103.0 Q 224.6 103.0, 227.3 104.2 L 226.6 106.4 Q 224.2 105.4, 222.4 105.4 Q 220.4 105.4, 219.3 106.2 Q 218.2 107.0, 218.3 108.4 Q 218.3 109.5, 218.8 110.1 Q 219.4 110.8, 220.2 111.2 Q 221.0 111.5, 222.4 111.9 Q 224.2 112.5, 225.3 113.1 Q 226.4 113.7, 227.1 114.8 Q 227.9 116.0, 227.9 117.9 Q 227.9 120.7, 226.1 122.2 Q 224.2 123.7, 221.1 123.7 Q 219.3 123.7, 217.9 123.3 Q 216.6 123.0, 215.0 122.3 L 215.8 120.1 " fill="#000000"/>
<path class="atom-1" d="M 188.5 186.0 Q 188.7 186.0, 189.6 186.4 Q 190.6 186.8, 191.6 187.1 Q 192.7 187.3, 193.7 187.3 Q 195.6 187.3, 196.7 186.4 Q 197.8 185.5, 197.8 183.8 Q 197.8 182.7, 197.2 182.0 Q 196.7 181.4, 195.8 181.0 Q 195.0 180.6, 193.6 180.2 Q 191.8 179.6, 190.7 179.1 Q 189.6 178.6, 188.9 177.5 Q 188.1 176.5, 188.1 174.6 Q 188.1 172.1, 189.8 170.5 Q 191.6 168.9, 195.0 168.9 Q 197.3 168.9, 200.0 170.1 L 199.3 172.3 Q 196.9 171.3, 195.1 171.3 Q 193.1 171.3, 192.0 172.1 Q 190.9 172.9, 191.0 174.3 Q 191.0 175.4, 191.5 176.0 Q 192.1 176.7, 192.9 177.1 Q 193.7 177.4, 195.1 177.8 Q 196.9 178.4, 198.0 179.0 Q 199.1 179.6, 199.8 180.7 Q 200.6 181.9, 200.6 183.8 Q 200.6 186.6, 198.8 188.1 Q 196.9 189.6, 193.8 189.6 Q 192.0 189.6, 190.6 189.2 Q 189.3 188.9, 187.7 188.2 L 188.5 186.0 " fill="#000000"/>
<path class="atom-2" d="M 188.5 54.2 Q 188.7 54.2, 189.6 54.6 Q 190.6 55.0, 191.6 55.3 Q 192.7 55.5, 193.7 55.5 Q 195.6 55.5, 196.7 54.6 Q 197.8 53.7, 197.8 52.0 Q 197.8 50.9, 197.2 50.2 Q 196.7 49.6, 195.8 49.2 Q 195.0 48.8, 193.6 48.4 Q 191.8 47.8, 190.7 47.3 Q 189.6 46.8, 188.9 45.7 Q 188.1 44.7, 188.1 42.8 Q 188.1 40.3, 189.8 38.7 Q 191.6 37.1, 195.0 37.1 Q 197.3 37.1, 200.0 38.3 L 199.3 40.5 Q 196.9 39.5, 195.1 39.5 Q 193.1 39.5, 192.0 40.3 Q 190.9 41.1, 191.0 42.5 Q 191.0 43.6, 191.5 44.2 Q 192.1 44.9, 192.9 45.3 Q 193.7 45.6, 195.1 46.0 Q 196.9 46.6, 198.0 47.2 Q 199.1 47.8, 199.8 48.9 Q 200.6 50.1, 200.6 52.0 Q 200.6 54.8, 198.8 56.3 Q 196.9 57.8, 193.8 57.8 Q 192.0 57.8, 190.6 57.4 Q 189.3 57.1, 187.7 56.4 L 188.5 54.2 " fill="#000000"/>
<path class="atom-2" d="M 202.0 40.5 L 205.5 40.5 L 205.5 36.7 L 207.1 36.7 L 207.1 40.5 L 210.8 40.5 L 210.8 41.8 L 207.1 41.8 L 207.1 45.6 L 205.5 45.6 L 205.5 41.8 L 202.0 41.8 L 202.0 40.5 " fill="#000000"/>
<path class="atom-4" d="M 36.5 37.1 L 39.2 37.1 L 39.2 45.7 L 49.5 45.7 L 49.5 37.1 L 52.3 37.1 L 52.3 57.3 L 49.5 57.3 L 49.5 48.0 L 39.2 48.0 L 39.2 57.3 L 36.5 57.3 L 36.5 37.1 " fill="#000000"/>
<path class="atom-4" d="M 57.9 37.1 L 64.5 47.8 Q 65.2 48.9, 66.2 50.8 Q 67.3 52.7, 67.3 52.8 L 67.3 37.1 L 70.0 37.1 L 70.0 57.3 L 67.3 57.3 L 60.2 45.6 Q 59.3 44.3, 58.4 42.7 Q 57.6 41.1, 57.3 40.6 L 57.3 57.3 L 54.7 57.3 L 54.7 37.1 L 57.9 37.1 " fill="#000000"/>
<path class="atom-5" d="M 30.6 103.0 L 37.2 113.7 Q 37.9 114.8, 38.9 116.7 Q 40.0 118.6, 40.0 118.7 L 40.0 103.0 L 42.7 103.0 L 42.7 123.2 L 40.0 123.2 L 32.9 111.5 Q 32.0 110.2, 31.1 108.6 Q 30.3 107.0, 30.0 106.5 L 30.0 123.2 L 27.4 123.2 L 27.4 103.0 L 30.6 103.0 " fill="#000000"/>
<path class="atom-5" d="M 45.1 106.7 L 48.7 106.7 L 48.7 102.9 L 50.2 102.9 L 50.2 106.7 L 53.9 106.7 L 53.9 108.0 L 50.2 108.0 L 50.2 111.8 L 48.7 111.8 L 48.7 108.0 L 45.1 108.0 L 45.1 106.7 " fill="#000000"/>
<path class="atom-6" d="M 37.7 168.9 L 40.4 168.9 L 40.4 177.5 L 50.7 177.5 L 50.7 168.9 L 53.5 168.9 L 53.5 189.1 L 50.7 189.1 L 50.7 179.8 L 40.4 179.8 L 40.4 189.1 L 37.7 189.1 L 37.7 168.9 " fill="#000000"/>
<path class="atom-6" d="M 56.7 186.0 Q 56.9 186.1, 57.8 186.5 Q 58.8 186.9, 59.8 187.1 Q 60.9 187.4, 61.9 187.4 Q 63.8 187.4, 64.9 186.4 Q 66.0 185.5, 66.0 183.9 Q 66.0 182.8, 65.4 182.1 Q 64.9 181.4, 64.1 181.0 Q 63.2 180.6, 61.8 180.2 Q 60.0 179.7, 58.9 179.2 Q 57.8 178.6, 57.1 177.6 Q 56.3 176.5, 56.3 174.7 Q 56.3 172.1, 58.0 170.5 Q 59.8 169.0, 63.2 169.0 Q 65.5 169.0, 68.2 170.1 L 67.5 172.3 Q 65.1 171.3, 63.3 171.3 Q 61.3 171.3, 60.2 172.1 Q 59.1 172.9, 59.2 174.3 Q 59.2 175.4, 59.7 176.1 Q 60.3 176.7, 61.1 177.1 Q 61.9 177.4, 63.3 177.9 Q 65.1 178.4, 66.2 179.0 Q 67.3 179.6, 68.0 180.8 Q 68.8 181.9, 68.8 183.9 Q 68.8 186.7, 67.0 188.2 Q 65.1 189.7, 62.0 189.7 Q 60.2 189.7, 58.8 189.3 Q 57.5 188.9, 55.9 188.2 L 56.7 186.0 " fill="#000000"/>
<path class="atom-7" d="M 123.8 196.2 L 130.4 206.9 Q 131.1 208.0, 132.1 209.9 Q 133.2 211.8, 133.2 211.9 L 133.2 196.2 L 135.9 196.2 L 135.9 216.4 L 133.2 216.4 L 126.1 204.7 Q 125.2 203.3, 124.3 201.8 Q 123.5 200.2, 123.2 199.7 L 123.2 216.4 L 120.6 216.4 L 120.6 196.2 L 123.8 196.2 " fill="#000000"/>
<path class="atom-7" d="M 138.3 199.9 L 141.9 199.9 L 141.9 196.1 L 143.4 196.1 L 143.4 199.9 L 147.1 199.9 L 147.1 201.2 L 143.4 201.2 L 143.4 205.0 L 141.9 205.0 L 141.9 201.2 L 138.3 201.2 L 138.3 199.9 " fill="#000000"/>
<path class="atom-7" d="M 120.4 218.4 L 123.1 218.4 L 123.1 227.0 L 133.4 227.0 L 133.4 218.4 L 136.2 218.4 L 136.2 238.6 L 133.4 238.6 L 133.4 229.3 L 123.1 229.3 L 123.1 238.6 L 120.4 238.6 L 120.4 218.4 " fill="#000000"/>
<path class="atom-2" d="M 216.5,47.2 L 216.5,47.3 L 216.5,47.5 L 216.4,47.6 L 216.4,47.7 L 216.4,47.8 L 216.3,47.9 L 216.2,48.0 L 216.2,48.1 L 216.1,48.2 L 216.0,48.3 L 215.9,48.4 L 215.8,48.4 L 215.7,48.5 L 215.6,48.6 L 215.5,48.6 L 215.3,48.6 L 215.2,48.6 L 215.1,48.6 L 215.0,48.6 L 214.8,48.6 L 214.7,48.6 L 214.6,48.6 L 214.5,48.5 L 214.4,48.5 L 214.3,48.4 L 214.2,48.3 L 214.1,48.3 L 214.0,48.2 L 213.9,48.1 L 213.8,48.0 L 213.8,47.9 L 213.7,47.8 L 213.7,47.6 L 213.7,47.5 L 213.6,47.4 L 213.6,47.3 L 213.6,47.2 L 213.6,47.0 L 213.7,46.9 L 213.7,46.8 L 213.7,46.7 L 213.8,46.6 L 213.8,46.5 L 213.9,46.4 L 214.0,46.3 L 214.1,46.2 L 214.2,46.1 L 214.3,46.0 L 214.4,46.0 L 214.5,45.9 L 214.6,45.9 L 214.7,45.8 L 214.8,45.8 L 215.0,45.8 L 215.1,45.8 L 215.2,45.8 L 215.3,45.8 L 215.5,45.8 L 215.6,45.9 L 215.7,45.9 L 215.8,46.0 L 215.9,46.1 L 216.0,46.1 L 216.1,46.2 L 216.2,46.3 L 216.2,46.4 L 216.3,46.5 L 216.4,46.6 L 216.4,46.7 L 216.4,46.9 L 216.5,47.0 L 216.5,47.1 L 216.5,47.2 L 215.1,47.2 Z" style="fill:#000000;fill-rule:evenodd;fill-opacity:1;stroke:#000000;stroke-width:0.0px;stroke-linecap:butt;stroke-linejoin:miter;stroke-opacity:1;"/>
<path class="atom-3" d="M 132.5,13.5 L 132.5,13.6 L 132.5,13.7 L 132.5,13.9 L 132.5,14.0 L 132.4,14.1 L 132.4,14.2 L 132.3,14.3 L 132.2,14.4 L 132.1,14.5 L 132.1,14.6 L 132.0,14.7 L 131.9,14.7 L 131.7,14.8 L 131.6,14.8 L 131.5,14.9 L 131.4,14.9 L 131.3,14.9 L 131.2,14.9 L 131.0,14.9 L 130.9,14.9 L 130.8,14.9 L 130.7,14.9 L 130.6,14.8 L 130.4,14.8 L 130.3,14.7 L 130.2,14.6 L 130.1,14.5 L 130.1,14.5 L 130.0,14.4 L 129.9,14.3 L 129.9,14.2 L 129.8,14.0 L 129.8,13.9 L 129.7,13.8 L 129.7,13.7 L 129.7,13.6 L 129.7,13.4 L 129.7,13.3 L 129.7,13.2 L 129.8,13.1 L 129.8,13.0 L 129.9,12.9 L 129.9,12.7 L 130.0,12.6 L 130.1,12.6 L 130.1,12.5 L 130.2,12.4 L 130.3,12.3 L 130.4,12.2 L 130.6,12.2 L 130.7,12.2 L 130.8,12.1 L 130.9,12.1 L 131.0,12.1 L 131.2,12.1 L 131.3,12.1 L 131.4,12.1 L 131.5,12.1 L 131.6,12.2 L 131.7,12.2 L 131.9,12.3 L 132.0,12.3 L 132.1,12.4 L 132.1,12.5 L 132.2,12.6 L 132.3,12.7 L 132.4,12.8 L 132.4,12.9 L 132.5,13.0 L 132.5,13.1 L 132.5,13.3 L 132.5,13.4 L 132.5,13.5 L 131.1,13.5 Z" style="fill:#000000;fill-rule:evenodd;fill-opacity:1;stroke:#000000;stroke-width:0.0px;stroke-linecap:butt;stroke-linejoin:miter;stroke-opacity:1;"/>
<path class="atom-3" d="M 126.8,13.5 L 126.8,13.6 L 126.8,13.7 L 126.8,13.9 L 126.8,14.0 L 126.7,14.1 L 126.7,14.2 L 126.6,14.3 L 126.5,14.4 L 126.4,14.5 L 126.3,14.6 L 126.2,14.7 L 126.1,14.7 L 126.0,14.8 L 125.9,14.8 L 125.8,14.9 L 125.7,14.9 L 125.6,14.9 L 125.4,14.9 L 125.3,14.9 L 125.2,14.9 L 125.1,14.9 L 125.0,14.9 L 124.8,14.8 L 124.7,14.8 L 124.6,14.7 L 124.5,14.6 L 124.4,14.5 L 124.4,14.5 L 124.3,14.4 L 124.2,14.3 L 124.1,14.2 L 124.1,14.0 L 124.1,13.9 L 124.0,13.8 L 124.0,13.7 L 124.0,13.6 L 124.0,13.4 L 124.0,13.3 L 124.0,13.2 L 124.1,13.1 L 124.1,13.0 L 124.1,12.9 L 124.2,12.7 L 124.3,12.6 L 124.4,12.6 L 124.4,12.5 L 124.5,12.4 L 124.6,12.3 L 124.7,12.2 L 124.8,12.2 L 125.0,12.2 L 125.1,12.1 L 125.2,12.1 L 125.3,12.1 L 125.4,12.1 L 125.6,12.1 L 125.7,12.1 L 125.8,12.1 L 125.9,12.2 L 126.0,12.2 L 126.1,12.3 L 126.2,12.3 L 126.3,12.4 L 126.4,12.5 L 126.5,12.6 L 126.6,12.7 L 126.7,12.8 L 126.7,12.9 L 126.8,13.0 L 126.8,13.1 L 126.8,13.3 L 126.8,13.4 L 126.8,13.5 L 125.4,13.5 Z" style="fill:#000000;fill-rule:evenodd;fill-opacity:1;stroke:#000000;stroke-width:0.0px;stroke-linecap:butt;stroke-linejoin:miter;stroke-opacity:1;"/>
<path class="atom-5" d="M 24.6,116.0 L 24.6,116.1 L 24.5,116.2 L 24.5,116.3 L 24.5,116.5 L 24.4,116.6 L 24.4,116.7 L 24.3,116.8 L 24.2,116.9 L 24.1,117.0 L 24.1,117.1 L 24.0,117.1 L 23.9,117.2 L 23.8,117.3 L 23.6,117.3 L 23.5,117.3 L 23.4,117.4 L 23.3,117.4 L 23.2,117.4 L 23.0,117.4 L 22.9,117.4 L 22.8,117.4 L 22.7,117.3 L 22.6,117.3 L 22.5,117.2 L 22.3,117.2 L 22.2,117.1 L 22.2,117.0 L 22.1,116.9 L 22.0,116.8 L 21.9,116.7 L 21.9,116.6 L 21.8,116.5 L 21.8,116.4 L 21.7,116.3 L 21.7,116.2 L 21.7,116.0 L 21.7,115.9 L 21.7,115.8 L 21.7,115.7 L 21.8,115.5 L 21.8,115.4 L 21.9,115.3 L 21.9,115.2 L 22.0,115.1 L 22.1,115.0 L 22.2,114.9 L 22.2,114.9 L 22.3,114.8 L 22.5,114.7 L 22.6,114.7 L 22.7,114.6 L 22.8,114.6 L 22.9,114.6 L 23.0,114.5 L 23.2,114.5 L 23.3,114.6 L 23.4,114.6 L 23.5,114.6 L 23.6,114.6 L 23.8,114.7 L 23.9,114.7 L 24.0,114.8 L 24.1,114.9 L 24.1,115.0 L 24.2,115.1 L 24.3,115.2 L 24.4,115.3 L 24.4,115.4 L 24.5,115.5 L 24.5,115.6 L 24.5,115.7 L 24.6,115.8 L 24.6,116.0 L 23.1,116.0 Z" style="fill:#000000;fill-rule:evenodd;fill-opacity:1;stroke:#000000;stroke-width:0.0px;stroke-linecap:butt;stroke-linejoin:miter;stroke-opacity:1;"/>
<path class="atom-5" d="M 24.6,110.3 L 24.6,110.4 L 24.5,110.5 L 24.5,110.6 L 24.5,110.7 L 24.4,110.9 L 24.4,111.0 L 24.3,111.1 L 24.2,111.2 L 24.1,111.3 L 24.1,111.3 L 24.0,111.4 L 23.9,111.5 L 23.8,111.5 L 23.6,111.6 L 23.5,111.6 L 23.4,111.7 L 23.3,111.7 L 23.2,111.7 L 23.0,111.7 L 22.9,111.7 L 22.8,111.7 L 22.7,111.6 L 22.6,111.6 L 22.5,111.5 L 22.3,111.5 L 22.2,111.4 L 22.2,111.3 L 22.1,111.2 L 22.0,111.1 L 21.9,111.0 L 21.9,110.9 L 21.8,110.8 L 21.8,110.7 L 21.7,110.6 L 21.7,110.4 L 21.7,110.3 L 21.7,110.2 L 21.7,110.1 L 21.7,110.0 L 21.8,109.8 L 21.8,109.7 L 21.9,109.6 L 21.9,109.5 L 22.0,109.4 L 22.1,109.3 L 22.2,109.2 L 22.2,109.1 L 22.3,109.1 L 22.5,109.0 L 22.6,109.0 L 22.7,108.9 L 22.8,108.9 L 22.9,108.9 L 23.0,108.8 L 23.2,108.8 L 23.3,108.8 L 23.4,108.9 L 23.5,108.9 L 23.6,108.9 L 23.8,109.0 L 23.9,109.0 L 24.0,109.1 L 24.1,109.2 L 24.1,109.3 L 24.2,109.4 L 24.3,109.5 L 24.4,109.6 L 24.4,109.7 L 24.5,109.8 L 24.5,109.9 L 24.5,110.0 L 24.6,110.1 L 24.6,110.3 L 23.1,110.3 Z" style="fill:#000000;fill-rule:evenodd;fill-opacity:1;stroke:#000000;stroke-width:0.0px;stroke-linecap:butt;stroke-linejoin:miter;stroke-opacity:1;"/>
<path class="bond-0 atom-0 atom-1" d="M 305.3,122.8 L 327.6,109.9" style="fill:none;fill-rule:evenodd;stroke:#000000;stroke-width:2.0px;stroke-linecap:butt;stroke-linejoin:miter;stroke-opacity:1"/>
<path class="bond-1 atom-1 atom-2" d="M 340.0,109.9 L 371.0,127.8" style="fill:none;fill-rule:evenodd;stroke:#000000;stroke-width:2.0px;stroke-linecap:butt;stroke-linejoin:miter;stroke-opacity:1"/>
<path class="bond-2 atom-2 atom-3" d="M 383.4,127.8 L 414.4,109.9" style="fill:none;fill-rule:evenodd;stroke:#000000;stroke-width:2.0px;stroke-linecap:butt;stroke-linejoin:miter;stroke-opacity:1"/>
<path class="bond-3 atom-3 atom-4" d="M 426.8,109.9 L 456.9,127.3" style="fill:none;fill-rule:evenodd;stroke:#000000;stroke-width:2.0px;stroke-linecap:butt;stroke-linejoin:miter;stroke-opacity:1"/>
<path class="atom-0" d="M 265.1 124.3 L 267.0 124.3 L 267.0 130.3 L 274.3 130.3 L 274.3 124.3 L 276.2 124.3 L 276.2 138.4 L 274.3 138.4 L 274.3 131.9 L 267.0 131.9 L 267.0 138.4 L 265.1 138.4 L 265.1 124.3 " fill="#000000"/>
<path class="atom-0" d="M 278.0 138.0 Q 278.3 137.1, 279.1 136.6 Q 279.9 136.1, 281.1 136.1 Q 282.5 136.1, 283.3 136.8 Q 284.1 137.6, 284.1 139.0 Q 284.1 140.4, 283.0 141.7 Q 282.0 143.0, 279.9 144.5 L 284.2 144.5 L 284.2 145.5 L 277.9 145.5 L 277.9 144.7 Q 279.7 143.4, 280.7 142.5 Q 281.7 141.6, 282.2 140.7 Q 282.8 139.9, 282.8 139.0 Q 282.8 138.1, 282.3 137.6 Q 281.9 137.1, 281.1 137.1 Q 280.3 137.1, 279.8 137.4 Q 279.3 137.7, 279.0 138.4 L 278.0 138.0 " fill="#000000"/>
<path class="atom-0" d="M 287.3 124.3 L 291.9 131.8 Q 292.4 132.5, 293.1 133.9 Q 293.9 135.2, 293.9 135.3 L 293.9 124.3 L 295.8 124.3 L 295.8 138.4 L 293.8 138.4 L 288.9 130.2 Q 288.3 129.3, 287.7 128.2 Q 287.1 127.1, 286.9 126.7 L 286.9 138.4 L 285.0 138.4 L 285.0 124.3 L 287.3 124.3 " fill="#000000"/>
<path class="atom-0" d="M 297.4 126.8 L 299.9 126.8 L 299.9 124.2 L 301.1 124.2 L 301.1 126.8 L 303.6 126.8 L 303.6 127.8 L 301.1 127.8 L 301.1 130.4 L 299.9 130.4 L 299.9 127.8 L 297.4 127.8 L 297.4 126.8 " fill="#000000"/>
<path class="atom-1" d="M 329.8 111.2 Q 329.9 111.2, 330.6 111.5 Q 331.3 111.8, 332.0 112.0 Q 332.7 112.1, 333.4 112.1 Q 334.8 112.1, 335.6 111.5 Q 336.4 110.8, 336.4 109.7 Q 336.4 108.9, 336.0 108.4 Q 335.6 108.0, 335.0 107.7 Q 334.4 107.4, 333.4 107.1 Q 332.1 106.8, 331.3 106.4 Q 330.6 106.0, 330.1 105.3 Q 329.5 104.5, 329.5 103.2 Q 329.5 101.4, 330.7 100.3 Q 332.0 99.2, 334.4 99.2 Q 336.0 99.2, 337.9 100.0 L 337.4 101.6 Q 335.7 100.9, 334.4 100.9 Q 333.0 100.9, 332.3 101.4 Q 331.5 102.0, 331.5 103.0 Q 331.5 103.7, 331.9 104.2 Q 332.3 104.7, 332.9 104.9 Q 333.5 105.2, 334.4 105.5 Q 335.7 105.9, 336.5 106.3 Q 337.2 106.7, 337.8 107.5 Q 338.3 108.3, 338.3 109.7 Q 338.3 111.7, 337.0 112.7 Q 335.7 113.8, 333.5 113.8 Q 332.3 113.8, 331.3 113.5 Q 330.4 113.2, 329.2 112.8 L 329.8 111.2 " fill="#000000"/>
<path class="atom-1" d="M 339.3 101.6 L 341.8 101.6 L 341.8 99.0 L 342.9 99.0 L 342.9 101.6 L 345.5 101.6 L 345.5 102.5 L 342.9 102.5 L 342.9 105.2 L 341.8 105.2 L 341.8 102.5 L 339.3 102.5 L 339.3 101.6 " fill="#000000"/>
<path class="atom-2" d="M 376.8 124.3 Q 379.3 124.3, 380.5 125.4 Q 381.7 126.4, 381.7 128.4 Q 381.7 130.4, 380.4 131.5 Q 379.2 132.6, 376.8 132.6 L 374.6 132.6 L 374.6 138.4 L 372.6 138.4 L 372.6 124.3 L 376.8 124.3 M 376.8 131.0 Q 378.2 131.0, 379.0 130.4 Q 379.7 129.7, 379.7 128.4 Q 379.7 127.2, 379.0 126.5 Q 378.2 125.9, 376.8 125.9 L 374.6 125.9 L 374.6 131.0 L 376.8 131.0 " fill="#000000"/>
<path class="atom-2" d="M 371.6 139.9 L 373.5 139.9 L 373.5 145.9 L 380.8 145.9 L 380.8 139.9 L 382.7 139.9 L 382.7 154.1 L 380.8 154.1 L 380.8 147.5 L 373.5 147.5 L 373.5 154.1 L 371.6 154.1 L 371.6 139.9 " fill="#000000"/>
<path class="atom-3" d="M 416.5 111.2 Q 416.7 111.2, 417.4 111.5 Q 418.0 111.8, 418.8 112.0 Q 419.5 112.1, 420.2 112.1 Q 421.6 112.1, 422.3 111.5 Q 423.1 110.8, 423.1 109.7 Q 423.1 108.9, 422.7 108.4 Q 422.3 108.0, 421.7 107.7 Q 421.1 107.4, 420.1 107.1 Q 418.9 106.8, 418.1 106.4 Q 417.4 106.0, 416.8 105.3 Q 416.3 104.5, 416.3 103.2 Q 416.3 101.4, 417.5 100.3 Q 418.7 99.2, 421.1 99.2 Q 422.8 99.2, 424.6 100.0 L 424.2 101.6 Q 422.5 100.9, 421.2 100.9 Q 419.8 100.9, 419.1 101.4 Q 418.3 102.0, 418.3 103.0 Q 418.3 103.7, 418.7 104.2 Q 419.1 104.7, 419.7 104.9 Q 420.2 105.2, 421.2 105.5 Q 422.5 105.9, 423.2 106.3 Q 424.0 106.7, 424.5 107.5 Q 425.1 108.3, 425.1 109.7 Q 425.1 111.7, 423.8 112.7 Q 422.5 113.8, 420.3 113.8 Q 419.0 113.8, 418.1 113.5 Q 417.1 113.2, 416.0 112.8 L 416.5 111.2 " fill="#000000"/>
<path class="atom-4" d="M 460.8 124.3 L 465.4 131.8 Q 465.9 132.5, 466.7 133.9 Q 467.4 135.2, 467.4 135.3 L 467.4 124.3 L 469.3 124.3 L 469.3 138.4 L 467.4 138.4 L 462.4 130.2 Q 461.8 129.3, 461.2 128.2 Q 460.6 127.1, 460.4 126.7 L 460.4 138.4 L 458.6 138.4 L 458.6 124.3 L 460.8 124.3 " fill="#000000"/>
<path class="atom-4" d="M 471.0 124.3 L 472.9 124.3 L 472.9 130.3 L 480.2 130.3 L 480.2 124.3 L 482.1 124.3 L 482.1 138.4 L 480.2 138.4 L 480.2 131.9 L 472.9 131.9 L 472.9 138.4 L 471.0 138.4 L 471.0 124.3 " fill="#000000"/>
<path class="atom-4" d="M 483.8 126.6 L 488.6 126.6 L 488.6 127.7 L 483.8 127.7 L 483.8 126.6 " fill="#000000"/>
<path class="atom-0" d="M 263.1,131.4 L 263.1,131.4 L 263.1,131.5 L 263.1,131.6 L 263.1,131.7 L 263.0,131.8 L 263.0,131.9 L 262.9,131.9 L 262.9,132.0 L 262.8,132.1 L 262.8,132.1 L 262.7,132.2 L 262.6,132.2 L 262.6,132.3 L 262.5,132.3 L 262.4,132.3 L 262.3,132.3 L 262.2,132.4 L 262.1,132.4 L 262.1,132.4 L 262.0,132.3 L 261.9,132.3 L 261.8,132.3 L 261.7,132.3 L 261.6,132.2 L 261.6,132.2 L 261.5,132.1 L 261.4,132.1 L 261.4,132.0 L 261.3,132.0 L 261.3,131.9 L 261.2,131.8 L 261.2,131.7 L 261.2,131.7 L 261.1,131.6 L 261.1,131.5 L 261.1,131.4 L 261.1,131.3 L 261.1,131.2 L 261.1,131.1 L 261.2,131.1 L 261.2,131.0 L 261.2,130.9 L 261.3,130.8 L 261.3,130.8 L 261.4,130.7 L 261.4,130.6 L 261.5,130.6 L 261.6,130.5 L 261.6,130.5 L 261.7,130.4 L 261.8,130.4 L 261.9,130.4 L 262.0,130.4 L 262.1,130.4 L 262.1,130.4 L 262.2,130.4 L 262.3,130.4 L 262.4,130.4 L 262.5,130.4 L 262.6,130.5 L 262.6,130.5 L 262.7,130.5 L 262.8,130.6 L 262.8,130.7 L 262.9,130.7 L 262.9,130.8 L 263.0,130.9 L 263.0,130.9 L 263.1,131.0 L 263.1,131.1 L 263.1,131.2 L 263.1,131.3 L 263.1,131.4 L 262.1,131.4 Z" style="fill:#000000;fill-rule:evenodd;fill-opacity:1;stroke:#000000;stroke-width:0.0px;stroke-linecap:butt;stroke-linejoin:miter;stroke-opacity:1;"/>
<path class="atom-1" d="M 334.8,97.4 L 334.8,97.5 L 334.8,97.6 L 334.8,97.7 L 334.7,97.8 L 334.7,97.9 L 334.7,97.9 L 334.6,98.0 L 334.6,98.1 L 334.5,98.1 L 334.4,98.2 L 334.4,98.3 L 334.3,98.3 L 334.2,98.3 L 334.1,98.4 L 334.1,98.4 L 334.0,98.4 L 333.9,98.4 L 333.8,98.4 L 333.7,98.4 L 333.6,98.4 L 333.6,98.4 L 333.5,98.4 L 333.4,98.4 L 333.3,98.3 L 333.2,98.3 L 333.2,98.2 L 333.1,98.2 L 333.0,98.1 L 333.0,98.1 L 332.9,98.0 L 332.9,97.9 L 332.9,97.8 L 332.8,97.7 L 332.8,97.7 L 332.8,97.6 L 332.8,97.5 L 332.8,97.4 L 332.8,97.3 L 332.8,97.2 L 332.8,97.2 L 332.9,97.1 L 332.9,97.0 L 332.9,96.9 L 333.0,96.8 L 333.0,96.8 L 333.1,96.7 L 333.2,96.7 L 333.2,96.6 L 333.3,96.6 L 333.4,96.5 L 333.5,96.5 L 333.6,96.5 L 333.6,96.5 L 333.7,96.4 L 333.8,96.4 L 333.9,96.5 L 334.0,96.5 L 334.1,96.5 L 334.1,96.5 L 334.2,96.5 L 334.3,96.6 L 334.4,96.6 L 334.4,96.7 L 334.5,96.7 L 334.6,96.8 L 334.6,96.9 L 334.7,97.0 L 334.7,97.0 L 334.7,97.1 L 334.8,97.2 L 334.8,97.3 L 334.8,97.4 L 334.8,97.4 L 333.8,97.4 Z" style="fill:#000000;fill-rule:evenodd;fill-opacity:1;stroke:#000000;stroke-width:0.0px;stroke-linecap:butt;stroke-linejoin:miter;stroke-opacity:1;"/>
<path class="bond-0 atom-0 atom-1" d="M 687.0,113.0 L 645.4,130.7" style="fill:none;fill-rule:evenodd;stroke:#000000;stroke-width:2.0px;stroke-linecap:butt;stroke-linejoin:miter;stroke-opacity:1"/>
<path class="bond-1 atom-1 atom-2" d="M 626.5,127.6 L 590.5,100.5" style="fill:none;fill-rule:evenodd;stroke:#000000;stroke-width:2.0px;stroke-linecap:butt;stroke-linejoin:miter;stroke-opacity:1"/>
<path class="bond-2 atom-2 atom-3" d="M 573.8,97.8 L 539.0,112.6" style="fill:none;fill-rule:evenodd;stroke:#000000;stroke-width:2.0px;stroke-linecap:butt;stroke-linejoin:miter;stroke-opacity:1"/>
<path class="atom-0" d="M 689.2 108.4 Q 689.2 103.8, 691.5 101.3 Q 693.7 98.7, 698.0 98.7 Q 702.2 98.7, 704.4 101.3 Q 706.7 103.8, 706.7 108.4 Q 706.7 113.1, 704.4 115.7 Q 702.1 118.3, 698.0 118.3 Q 693.7 118.3, 691.5 115.7 Q 689.2 113.1, 689.2 108.4 M 698.0 116.1 Q 700.9 116.1, 702.4 114.2 Q 704.0 112.2, 704.0 108.4 Q 704.0 104.7, 702.4 102.8 Q 700.9 100.9, 698.0 100.9 Q 695.0 100.9, 693.5 102.8 Q 691.9 104.6, 691.9 108.4 Q 691.9 112.3, 693.5 114.2 Q 695.0 116.1, 698.0 116.1 " fill="#000000"/>
<path class="atom-0" d="M 708.1 98.9 L 710.6 98.9 L 710.6 107.0 L 720.4 107.0 L 720.4 98.9 L 723.0 98.9 L 723.0 118.0 L 720.4 118.0 L 720.4 109.2 L 710.6 109.2 L 710.6 118.0 L 708.1 118.0 L 708.1 98.9 " fill="#000000"/>
<path class="atom-0" d="M 725.3 102.4 L 728.6 102.4 L 728.6 98.8 L 730.1 98.8 L 730.1 102.4 L 733.6 102.4 L 733.6 103.6 L 730.1 103.6 L 730.1 107.2 L 728.6 107.2 L 728.6 103.6 L 725.3 103.6 L 725.3 102.4 " fill="#000000"/>
<path class="atom-1" d="M 631.7 125.2 L 638.0 135.3 Q 638.6 136.3, 639.6 138.1 Q 640.6 139.9, 640.7 140.0 L 640.7 125.2 L 643.2 125.2 L 643.2 144.3 L 640.6 144.3 L 633.9 133.2 Q 633.1 131.9, 632.3 130.5 Q 631.4 129.0, 631.2 128.5 L 631.2 144.3 L 628.7 144.3 L 628.7 125.2 L 631.7 125.2 " fill="#000000"/>
<path class="atom-1" d="M 628.5 146.2 L 631.1 146.2 L 631.1 154.3 L 640.8 154.3 L 640.8 146.2 L 643.4 146.2 L 643.4 165.3 L 640.8 165.3 L 640.8 156.5 L 631.1 156.5 L 631.1 165.3 L 628.5 165.3 L 628.5 146.2 " fill="#000000"/>
<path class="atom-2" d="M 576.7 100.8 Q 576.9 100.9, 577.8 101.3 Q 578.7 101.6, 579.7 101.9 Q 580.7 102.1, 581.7 102.1 Q 583.5 102.1, 584.5 101.2 Q 585.6 100.3, 585.6 98.8 Q 585.6 97.7, 585.0 97.1 Q 584.5 96.5, 583.7 96.1 Q 582.9 95.8, 581.5 95.3 Q 579.9 94.8, 578.8 94.4 Q 577.8 93.9, 577.1 92.8 Q 576.4 91.8, 576.4 90.1 Q 576.4 87.7, 578.0 86.2 Q 579.7 84.7, 582.9 84.7 Q 585.1 84.7, 587.6 85.8 L 587.0 87.9 Q 584.7 86.9, 583.0 86.9 Q 581.1 86.9, 580.1 87.7 Q 579.1 88.4, 579.1 89.8 Q 579.1 90.8, 579.6 91.4 Q 580.1 92.0, 580.9 92.4 Q 581.7 92.7, 583.0 93.1 Q 584.7 93.7, 585.7 94.2 Q 586.8 94.8, 587.5 95.9 Q 588.2 96.9, 588.2 98.8 Q 588.2 101.4, 586.5 102.9 Q 584.7 104.3, 581.8 104.3 Q 580.1 104.3, 578.8 103.9 Q 577.5 103.5, 576.0 102.9 L 576.7 100.8 " fill="#000000"/>
<path class="atom-3" d="M 511.4 120.7 Q 511.4 116.1, 513.6 113.5 Q 515.9 111.0, 520.1 111.0 Q 524.4 111.0, 526.6 113.5 Q 528.9 116.1, 528.9 120.7 Q 528.9 125.3, 526.6 128.0 Q 524.3 130.6, 520.1 130.6 Q 515.9 130.6, 513.6 128.0 Q 511.4 125.3, 511.4 120.7 M 520.1 128.4 Q 523.0 128.4, 524.6 126.5 Q 526.2 124.5, 526.2 120.7 Q 526.2 116.9, 524.6 115.0 Q 523.0 113.1, 520.1 113.1 Q 517.2 113.1, 515.6 115.0 Q 514.1 116.9, 514.1 120.7 Q 514.1 124.5, 515.6 126.5 Q 517.2 128.4, 520.1 128.4 " fill="#000000"/>
<path class="atom-3" d="M 530.2 114.1 L 536.8 114.1 L 536.8 115.5 L 530.2 115.5 L 530.2 114.1 " fill="#000000"/>
<path class="atom-0" d="M 739.0,108.4 L 739.0,108.5 L 739.0,108.6 L 738.9,108.7 L 738.9,108.8 L 738.9,108.9 L 738.8,109.0 L 738.7,109.1 L 738.7,109.2 L 738.6,109.3 L 738.5,109.4 L 738.4,109.5 L 738.3,109.5 L 738.2,109.6 L 738.1,109.6 L 738.0,109.7 L 737.9,109.7 L 737.8,109.7 L 737.7,109.7 L 737.5,109.7 L 737.4,109.7 L 737.3,109.7 L 737.2,109.6 L 737.1,109.6 L 737.0,109.5 L 736.9,109.5 L 736.8,109.4 L 736.7,109.3 L 736.6,109.3 L 736.5,109.2 L 736.5,109.1 L 736.4,109.0 L 736.4,108.9 L 736.3,108.8 L 736.3,108.6 L 736.3,108.5 L 736.3,108.4 L 736.3,108.3 L 736.3,108.2 L 736.3,108.1 L 736.3,108.0 L 736.4,107.9 L 736.4,107.7 L 736.5,107.6 L 736.5,107.6 L 736.6,107.5 L 736.7,107.4 L 736.8,107.3 L 736.9,107.2 L 737.0,107.2 L 737.1,107.1 L 737.2,107.1 L 737.3,107.1 L 737.4,107.0 L 737.5,107.0 L 737.7,107.0 L 737.8,107.0 L 737.9,107.0 L 738.0,107.1 L 738.1,107.1 L 738.2,107.1 L 738.3,107.2 L 738.4,107.3 L 738.5,107.3 L 738.6,107.4 L 738.7,107.5 L 738.7,107.6 L 738.8,107.7 L 738.9,107.8 L 738.9,107.9 L 738.9,108.0 L 739.0,108.1 L 739.0,108.2 L 739.0,108.4 L 737.6,108.4 Z" style="fill:#000000;fill-rule:evenodd;fill-opacity:1;stroke:#000000;stroke-width:0.0px;stroke-linecap:butt;stroke-linejoin:miter;stroke-opacity:1;"/>
<path class="bond-0 atom-0 atom-1" d="M 112.4,368.0 L 205.1,368.0" style="fill:none;fill-rule:evenodd;stroke:#000000;stroke-width:2.0px;stroke-linecap:butt;stroke-linejoin:miter;stroke-opacity:1"/>
<path class="atom-0" d="M 31.0 353.8 L 34.8 353.8 L 34.8 365.9 L 49.3 365.9 L 49.3 353.8 L 53.2 353.8 L 53.2 382.2 L 49.3 382.2 L 49.3 369.1 L 34.8 369.1 L 34.8 382.2 L 31.0 382.2 L 31.0 353.8 " fill="#000000"/>
<path class="atom-0" d="M 56.6 381.2 Q 57.3 379.4, 58.9 378.4 Q 60.6 377.4, 62.9 377.4 Q 65.7 377.4, 67.3 378.9 Q 68.8 380.5, 68.8 383.2 Q 68.8 386.0, 66.8 388.6 Q 64.8 391.1, 60.5 394.2 L 69.2 394.2 L 69.2 396.3 L 56.6 396.3 L 56.6 394.5 Q 60.1 392.1, 62.1 390.2 Q 64.2 388.4, 65.2 386.7 Q 66.2 385.0, 66.2 383.3 Q 66.2 381.5, 65.3 380.5 Q 64.4 379.5, 62.9 379.5 Q 61.3 379.5, 60.3 380.1 Q 59.3 380.7, 58.6 382.1 L 56.6 381.2 " fill="#000000"/>
<path class="atom-0" d="M 75.2 353.8 L 84.5 368.8 Q 85.4 370.3, 86.9 373.0 Q 88.4 375.7, 88.5 375.8 L 88.5 353.8 L 92.2 353.8 L 92.2 382.2 L 88.3 382.2 L 78.4 365.8 Q 77.2 363.8, 76.0 361.6 Q 74.8 359.4, 74.4 358.8 L 74.4 382.2 L 70.7 382.2 L 70.7 353.8 L 75.2 353.8 " fill="#000000"/>
<path class="atom-0" d="M 95.5 358.9 L 100.5 358.9 L 100.5 353.7 L 102.8 353.7 L 102.8 358.9 L 107.9 358.9 L 107.9 360.8 L 102.8 360.8 L 102.8 366.1 L 100.5 366.1 L 100.5 360.8 L 95.5 360.8 L 95.5 358.9 " fill="#000000"/>
<path class="atom-1" d="M 209.7 353.8 L 226.5 353.8 L 226.5 357.1 L 213.5 357.1 L 213.5 365.7 L 225.1 365.7 L 225.1 369.0 L 213.5 369.0 L 213.5 382.2 L 209.7 382.2 L 209.7 353.8 " fill="#000000"/>
<path class="atom-0" d="M 27.0,368.0 L 27.0,368.2 L 27.0,368.3 L 26.9,368.5 L 26.9,368.7 L 26.8,368.8 L 26.7,369.0 L 26.7,369.1 L 26.6,369.3 L 26.4,369.4 L 26.3,369.5 L 26.2,369.6 L 26.0,369.7 L 25.9,369.8 L 25.7,369.9 L 25.6,369.9 L 25.4,370.0 L 25.2,370.0 L 25.1,370.0 L 24.9,370.0 L 24.7,370.0 L 24.5,369.9 L 24.4,369.9 L 24.2,369.8 L 24.1,369.8 L 23.9,369.7 L 23.8,369.6 L 23.6,369.5 L 23.5,369.3 L 23.4,369.2 L 23.3,369.1 L 23.2,368.9 L 23.2,368.7 L 23.1,368.6 L 23.1,368.4 L 23.0,368.3 L 23.0,368.1 L 23.0,367.9 L 23.0,367.7 L 23.1,367.6 L 23.1,367.4 L 23.2,367.2 L 23.2,367.1 L 23.3,366.9 L 23.4,366.8 L 23.5,366.7 L 23.6,366.5 L 23.8,366.4 L 23.9,366.3 L 24.1,366.2 L 24.2,366.2 L 24.4,366.1 L 24.5,366.1 L 24.7,366.0 L 24.9,366.0 L 25.1,366.0 L 25.2,366.0 L 25.4,366.0 L 25.6,366.1 L 25.7,366.1 L 25.9,366.2 L 26.0,366.3 L 26.2,366.4 L 26.3,366.5 L 26.4,366.6 L 26.6,366.7 L 26.7,366.9 L 26.7,367.0 L 26.8,367.2 L 26.9,367.3 L 26.9,367.5 L 27.0,367.7 L 27.0,367.8 L 27.0,368.0 L 25.0,368.0 Z" style="fill:#000000;fill-rule:evenodd;fill-opacity:1;stroke:#000000;stroke-width:0.0px;stroke-linecap:butt;stroke-linejoin:miter;stroke-opacity:1;"/>
<path class="bond-0 atom-0 atom-1" d="M 451.1,391.5 L 421.1,374.2" style="fill:none;fill-rule:evenodd;stroke:#000000;stroke-width:2.0px;stroke-linecap:butt;stroke-linejoin:miter;stroke-opacity:1"/>
<path class="bond-1 atom-1 atom-2" d="M 406.8,374.2 L 369.7,395.6" style="fill:none;fill-rule:evenodd;stroke:#000000;stroke-width:2.0px;stroke-linecap:butt;stroke-linejoin:miter;stroke-opacity:1"/>
<path class="bond-2 atom-2 atom-3" d="M 369.7,395.6 L 331.7,373.7" style="fill:none;fill-rule:evenodd;stroke:#000000;stroke-width:2.0px;stroke-linecap:butt;stroke-linejoin:miter;stroke-opacity:1"/>
<path class="bond-3 atom-3 atom-4" d="M 321.6,378.1 L 299.3,391.0" style="fill:none;fill-rule:evenodd;stroke:#000000;stroke-width:2.0px;stroke-linecap:butt;stroke-linejoin:miter;stroke-opacity:1"/>
<path class="bond-3 atom-3 atom-4" d="M 316.5,369.3 L 294.2,382.1" style="fill:none;fill-rule:evenodd;stroke:#000000;stroke-width:2.0px;stroke-linecap:butt;stroke-linejoin:miter;stroke-opacity:1"/>
<path class="atom-0" d="M 455.0 388.4 L 459.8 396.0 Q 460.2 396.8, 461.0 398.2 Q 461.8 399.5, 461.8 399.6 L 461.8 388.4 L 463.7 388.4 L 463.7 402.8 L 461.7 402.8 L 456.6 394.5 Q 456.1 393.5, 455.4 392.3 Q 454.8 391.2, 454.6 390.9 L 454.6 402.8 L 452.7 402.8 L 452.7 388.4 L 455.0 388.4 " fill="#000000"/>
<path class="atom-0" d="M 465.4 388.4 L 467.4 388.4 L 467.4 394.5 L 474.8 394.5 L 474.8 388.4 L 476.8 388.4 L 476.8 402.8 L 474.8 402.8 L 474.8 396.1 L 467.4 396.1 L 467.4 402.8 L 465.4 402.8 L 465.4 388.4 " fill="#000000"/>
<path class="atom-0" d="M 478.5 391.0 L 481.0 391.0 L 481.0 388.3 L 482.2 388.3 L 482.2 391.0 L 484.8 391.0 L 484.8 391.9 L 482.2 391.9 L 482.2 394.6 L 481.0 394.6 L 481.0 391.9 L 478.5 391.9 L 478.5 391.0 " fill="#000000"/>
<path class="atom-1" d="M 410.7 362.8 L 415.5 370.5 Q 416.0 371.2, 416.7 372.6 Q 417.5 374.0, 417.5 374.0 L 417.5 362.8 L 419.4 362.8 L 419.4 377.3 L 417.5 377.3 L 412.4 368.9 Q 411.8 367.9, 411.1 366.8 Q 410.5 365.6, 410.3 365.3 L 410.3 377.3 L 408.5 377.3 L 408.5 362.8 L 410.7 362.8 " fill="#000000"/>
<path class="atom-1" d="M 408.3 346.9 L 410.2 346.9 L 410.2 353.0 L 417.6 353.0 L 417.6 346.9 L 419.6 346.9 L 419.6 361.3 L 417.6 361.3 L 417.6 354.6 L 410.2 354.6 L 410.2 361.3 L 408.3 361.3 L 408.3 346.9 " fill="#000000"/>
<path class="atom-3" d="M 321.3 375.0 Q 321.4 375.1, 322.1 375.3 Q 322.8 375.6, 323.5 375.8 Q 324.3 376.0, 325.0 376.0 Q 326.4 376.0, 327.2 375.3 Q 328.0 374.7, 328.0 373.5 Q 328.0 372.7, 327.6 372.2 Q 327.2 371.7, 326.6 371.4 Q 326.0 371.2, 324.9 370.9 Q 323.7 370.5, 322.9 370.1 Q 322.1 369.7, 321.6 369.0 Q 321.0 368.2, 321.0 366.9 Q 321.0 365.1, 322.3 363.9 Q 323.5 362.8, 326.0 362.8 Q 327.6 362.8, 329.5 363.6 L 329.1 365.2 Q 327.3 364.5, 326.0 364.5 Q 324.6 364.5, 323.8 365.1 Q 323.1 365.6, 323.1 366.6 Q 323.1 367.4, 323.5 367.9 Q 323.9 368.3, 324.5 368.6 Q 325.0 368.9, 326.0 369.2 Q 327.3 369.6, 328.1 370.0 Q 328.9 370.4, 329.4 371.3 Q 330.0 372.1, 330.0 373.5 Q 330.0 375.5, 328.7 376.6 Q 327.3 377.6, 325.1 377.6 Q 323.8 377.6, 322.8 377.4 Q 321.9 377.1, 320.7 376.6 L 321.3 375.0 " fill="#000000"/>
<path class="atom-3" d="M 331.0 365.0 L 335.9 365.0 L 335.9 366.1 L 331.0 366.1 L 331.0 365.0 " fill="#000000"/>
<path class="atom-4" d="M 261.4 388.4 L 263.3 388.4 L 263.3 394.6 L 270.7 394.6 L 270.7 388.4 L 272.7 388.4 L 272.7 402.9 L 270.7 402.9 L 270.7 396.2 L 263.3 396.2 L 263.3 402.9 L 261.4 402.9 L 261.4 388.4 " fill="#000000"/>
<path class="atom-4" d="M 274.4 395.6 Q 274.4 392.2, 276.2 390.2 Q 277.9 388.3, 281.1 388.3 Q 284.3 388.3, 286.0 390.2 Q 287.7 392.2, 287.7 395.6 Q 287.7 399.2, 286.0 401.2 Q 284.3 403.1, 281.1 403.1 Q 277.9 403.1, 276.2 401.2 Q 274.4 399.2, 274.4 395.6 M 281.1 401.5 Q 283.3 401.5, 284.5 400.0 Q 285.7 398.5, 285.7 395.6 Q 285.7 392.8, 284.5 391.4 Q 283.3 389.9, 281.1 389.9 Q 278.9 389.9, 277.7 391.3 Q 276.5 392.8, 276.5 395.6 Q 276.5 398.6, 277.7 400.0 Q 278.9 401.5, 281.1 401.5 " fill="#000000"/>
<path class="atom-4" d="M 288.8 390.9 L 291.3 390.9 L 291.3 388.2 L 292.4 388.2 L 292.4 390.9 L 295.1 390.9 L 295.1 391.8 L 292.4 391.8 L 292.4 394.5 L 291.3 394.5 L 291.3 391.8 L 288.8 391.8 L 288.8 390.9 " fill="#000000"/>
<path class="atom-0" d="M 488.9,397.6 L 488.9,397.7 L 488.9,397.8 L 488.9,397.9 L 488.8,398.0 L 488.8,398.1 L 488.8,398.1 L 488.7,398.2 L 488.7,398.3 L 488.6,398.4 L 488.5,398.4 L 488.5,398.5 L 488.4,398.5 L 488.3,398.6 L 488.2,398.6 L 488.2,398.6 L 488.1,398.6 L 488.0,398.7 L 487.9,398.7 L 487.8,398.7 L 487.7,398.7 L 487.6,398.6 L 487.5,398.6 L 487.5,398.6 L 487.4,398.5 L 487.3,398.5 L 487.2,398.4 L 487.2,398.4 L 487.1,398.3 L 487.1,398.3 L 487.0,398.2 L 487.0,398.1 L 486.9,398.0 L 486.9,397.9 L 486.9,397.9 L 486.9,397.8 L 486.8,397.7 L 486.8,397.6 L 486.9,397.5 L 486.9,397.4 L 486.9,397.3 L 486.9,397.3 L 487.0,397.2 L 487.0,397.1 L 487.1,397.0 L 487.1,397.0 L 487.2,396.9 L 487.2,396.8 L 487.3,396.8 L 487.4,396.7 L 487.5,396.7 L 487.5,396.7 L 487.6,396.6 L 487.7,396.6 L 487.8,396.6 L 487.9,396.6 L 488.0,396.6 L 488.1,396.6 L 488.2,396.7 L 488.2,396.7 L 488.3,396.7 L 488.4,396.8 L 488.5,396.8 L 488.5,396.9 L 488.6,396.9 L 488.7,397.0 L 488.7,397.1 L 488.8,397.1 L 488.8,397.2 L 488.8,397.3 L 488.9,397.4 L 488.9,397.5 L 488.9,397.6 L 488.9,397.6 L 487.9,397.6 Z" style="fill:#000000;fill-rule:evenodd;fill-opacity:1;stroke:#000000;stroke-width:0.0px;stroke-linecap:butt;stroke-linejoin:miter;stroke-opacity:1;"/>
<path class="atom-0" d="M 488.9,393.6 L 488.9,393.6 L 488.9,393.7 L 488.9,393.8 L 488.8,393.9 L 488.8,394.0 L 488.8,394.1 L 488.7,394.1 L 488.7,394.2 L 488.6,394.3 L 488.5,394.3 L 488.5,394.4 L 488.4,394.4 L 488.3,394.5 L 488.2,394.5 L 488.2,394.5 L 488.1,394.6 L 488.0,394.6 L 487.9,394.6 L 487.8,394.6 L 487.7,394.6 L 487.6,394.5 L 487.5,394.5 L 487.5,394.5 L 487.4,394.5 L 487.3,394.4 L 487.2,394.4 L 487.2,394.3 L 487.1,394.2 L 487.1,394.2 L 487.0,394.1 L 487.0,394.0 L 486.9,393.9 L 486.9,393.9 L 486.9,393.8 L 486.9,393.7 L 486.8,393.6 L 486.8,393.5 L 486.9,393.4 L 486.9,393.3 L 486.9,393.2 L 486.9,393.2 L 487.0,393.1 L 487.0,393.0 L 487.1,392.9 L 487.1,392.9 L 487.2,392.8 L 487.2,392.7 L 487.3,392.7 L 487.4,392.7 L 487.5,392.6 L 487.5,392.6 L 487.6,392.6 L 487.7,392.5 L 487.8,392.5 L 487.9,392.5 L 488.0,392.5 L 488.1,392.5 L 488.2,392.6 L 488.2,392.6 L 488.3,392.6 L 488.4,392.7 L 488.5,392.7 L 488.5,392.8 L 488.6,392.8 L 488.7,392.9 L 488.7,393.0 L 488.8,393.0 L 488.8,393.1 L 488.8,393.2 L 488.9,393.3 L 488.9,393.4 L 488.9,393.5 L 488.9,393.6 L 487.9,393.6 Z" style="fill:#000000;fill-rule:evenodd;fill-opacity:1;stroke:#000000;stroke-width:0.0px;stroke-linecap:butt;stroke-linejoin:miter;stroke-opacity:1;"/>
<path class="atom-2" d="M 370.7,400.2 L 370.7,400.3 L 370.7,400.4 L 370.6,400.5 L 370.6,400.5 L 370.6,400.6 L 370.5,400.7 L 370.5,400.8 L 370.4,400.8 L 370.4,400.9 L 370.3,401.0 L 370.3,401.0 L 370.2,401.1 L 370.1,401.1 L 370.0,401.2 L 369.9,401.2 L 369.9,401.2 L 369.8,401.2 L 369.7,401.2 L 369.6,401.2 L 369.5,401.2 L 369.4,401.2 L 369.3,401.2 L 369.3,401.1 L 369.2,401.1 L 369.1,401.1 L 369.0,401.0 L 369.0,400.9 L 368.9,400.9 L 368.8,400.8 L 368.8,400.7 L 368.7,400.7 L 368.7,400.6 L 368.7,400.5 L 368.7,400.4 L 368.6,400.3 L 368.6,400.2 L 368.6,400.2 L 368.6,400.1 L 368.7,400.0 L 368.7,399.9 L 368.7,399.8 L 368.7,399.7 L 368.8,399.7 L 368.8,399.6 L 368.9,399.5 L 369.0,399.5 L 369.0,399.4 L 369.1,399.3 L 369.2,399.3 L 369.3,399.3 L 369.3,399.2 L 369.4,399.2 L 369.5,399.2 L 369.6,399.2 L 369.7,399.2 L 369.8,399.2 L 369.9,399.2 L 369.9,399.2 L 370.0,399.2 L 370.1,399.3 L 370.2,399.3 L 370.3,399.4 L 370.3,399.4 L 370.4,399.5 L 370.4,399.5 L 370.5,399.6 L 370.5,399.7 L 370.6,399.8 L 370.6,399.9 L 370.6,399.9 L 370.7,400.0 L 370.7,400.1 L 370.7,400.2 L 369.7,400.2 Z" style="fill:#000000;fill-rule:evenodd;fill-opacity:1;stroke:#000000;stroke-width:0.0px;stroke-linecap:butt;stroke-linejoin:miter;stroke-opacity:1;"/>
<path class="bond-0 atom-0 atom-1" d="M 719.3,387.2 L 694.7,401.0" style="fill:none;fill-rule:evenodd;stroke:#000000;stroke-width:2.0px;stroke-linecap:butt;stroke-linejoin:miter;stroke-opacity:1"/>
<path class="bond-1 atom-1 atom-2" d="M 694.7,401.0 L 670.0,386.3" style="fill:none;fill-rule:evenodd;stroke:#000000;stroke-width:2.0px;stroke-linecap:butt;stroke-linejoin:miter;stroke-opacity:1"/>
<path class="bond-2 atom-2 atom-3" d="M 661.7,386.2 L 642.1,397.2" style="fill:none;fill-rule:evenodd;stroke:#000000;stroke-width:2.0px;stroke-linecap:butt;stroke-linejoin:miter;stroke-opacity:1"/>
<path class="bond-3 atom-3 atom-4" d="M 631.1,397.0 L 607.8,383.1" style="fill:none;fill-rule:evenodd;stroke:#000000;stroke-width:2.0px;stroke-linecap:butt;stroke-linejoin:miter;stroke-opacity:1"/>
<path class="bond-4 atom-4 atom-5" d="M 607.8,383.1 L 608.1,355.6" style="fill:none;fill-rule:evenodd;stroke:#000000;stroke-width:2.0px;stroke-linecap:butt;stroke-linejoin:miter;stroke-opacity:1"/>
<path class="bond-5 atom-4 atom-6" d="M 607.8,383.1 L 578.5,399.5" style="fill:none;fill-rule:evenodd;stroke:#000000;stroke-width:2.0px;stroke-linecap:butt;stroke-linejoin:miter;stroke-opacity:1"/>
<path class="bond-6 atom-6 atom-7" d="M 578.5,399.5 L 549.7,382.3" style="fill:none;fill-rule:evenodd;stroke:#000000;stroke-width:2.0px;stroke-linecap:butt;stroke-linejoin:miter;stroke-opacity:1"/>
<path class="bond-7 atom-7 atom-8" d="M 549.7,382.3 L 523.5,397.0" style="fill:none;fill-rule:evenodd;stroke:#000000;stroke-width:2.0px;stroke-linecap:butt;stroke-linejoin:miter;stroke-opacity:1"/>
<path class="atom-0" d="M 721.9 379.8 L 725.0 384.9 Q 725.3 385.4, 725.8 386.3 Q 726.3 387.2, 726.3 387.2 L 726.3 379.8 L 727.6 379.8 L 727.6 389.3 L 726.3 389.3 L 722.9 383.8 Q 722.5 383.2, 722.1 382.5 Q 721.7 381.7, 721.6 381.5 L 721.6 389.3 L 720.4 389.3 L 720.4 379.8 L 721.9 379.8 " fill="#000000"/>
<path class="atom-0" d="M 728.7 379.8 L 730.0 379.8 L 730.0 383.9 L 734.8 383.9 L 734.8 379.8 L 736.1 379.8 L 736.1 389.3 L 734.8 389.3 L 734.8 385.0 L 730.0 385.0 L 730.0 389.3 L 728.7 389.3 L 728.7 379.8 " fill="#000000"/>
<path class="atom-2" d="M 665.6 379.1 Q 667.3 379.1, 668.1 379.8 Q 668.9 380.6, 668.9 381.9 Q 668.9 383.2, 668.1 383.9 Q 667.2 384.7, 665.6 384.7 L 664.1 384.7 L 664.1 388.6 L 662.8 388.6 L 662.8 379.1 L 665.6 379.1 M 665.6 383.6 Q 666.6 383.6, 667.1 383.2 Q 667.6 382.7, 667.6 381.9 Q 667.6 381.0, 667.1 380.6 Q 666.6 380.2, 665.6 380.2 L 664.1 380.2 L 664.1 383.6 L 665.6 383.6 " fill="#000000"/>
<path class="atom-2" d="M 662.2 368.6 L 663.4 368.6 L 663.4 372.7 L 668.3 372.7 L 668.3 368.6 L 669.6 368.6 L 669.6 378.1 L 668.3 378.1 L 668.3 373.8 L 663.4 373.8 L 663.4 378.1 L 662.2 378.1 L 662.2 368.6 " fill="#000000"/>
<path class="atom-2" d="M 670.7 370.4 L 672.4 370.4 L 672.4 368.6 L 673.1 368.6 L 673.1 370.4 L 674.9 370.4 L 674.9 371.0 L 673.1 371.0 L 673.1 372.8 L 672.4 372.8 L 672.4 371.0 L 670.7 371.0 L 670.7 370.4 " fill="#000000"/>
<path class="atom-3" d="M 632.2 400.3 Q 632.2 398.0, 633.4 396.7 Q 634.5 395.4, 636.6 395.4 Q 638.7 395.4, 639.8 396.7 Q 641.0 398.0, 641.0 400.3 Q 641.0 402.6, 639.8 403.9 Q 638.7 405.2, 636.6 405.2 Q 634.5 405.2, 633.4 403.9 Q 632.2 402.6, 632.2 400.3 M 636.6 404.1 Q 638.1 404.1, 638.8 403.1 Q 639.6 402.2, 639.6 400.3 Q 639.6 398.4, 638.8 397.5 Q 638.1 396.5, 636.6 396.5 Q 635.2 396.5, 634.4 397.4 Q 633.6 398.4, 633.6 400.3 Q 633.6 402.2, 634.4 403.1 Q 635.2 404.1, 636.6 404.1 " fill="#000000"/>
<path class="atom-5" d="M 605.5 352.8 Q 605.6 352.8, 606.1 353.0 Q 606.5 353.2, 607.0 353.3 Q 607.5 353.5, 608.0 353.5 Q 608.9 353.5, 609.4 353.0 Q 609.9 352.6, 609.9 351.8 Q 609.9 351.3, 609.7 351.0 Q 609.4 350.6, 609.0 350.5 Q 608.6 350.3, 607.9 350.1 Q 607.1 349.8, 606.6 349.6 Q 606.1 349.4, 605.7 348.9 Q 605.4 348.3, 605.4 347.5 Q 605.4 346.3, 606.2 345.5 Q 607.0 344.8, 608.6 344.8 Q 609.7 344.8, 610.9 345.3 L 610.6 346.4 Q 609.5 345.9, 608.6 345.9 Q 607.7 345.9, 607.2 346.3 Q 606.7 346.7, 606.7 347.3 Q 606.7 347.8, 607.0 348.1 Q 607.2 348.4, 607.6 348.6 Q 608.0 348.8, 608.6 349.0 Q 609.5 349.3, 610.0 349.5 Q 610.5 349.8, 610.9 350.4 Q 611.3 350.9, 611.3 351.8 Q 611.3 353.1, 610.4 353.8 Q 609.5 354.5, 608.0 354.5 Q 607.2 354.5, 606.5 354.4 Q 605.9 354.2, 605.2 353.9 L 605.5 352.8 " fill="#000000"/>
<path class="atom-8" d="M 516.0 398.5 Q 516.9 398.7, 517.3 399.3 Q 517.8 399.9, 517.8 400.7 Q 517.8 402.0, 517.0 402.7 Q 516.1 403.5, 514.6 403.5 L 511.4 403.5 L 511.4 394.0 L 514.2 394.0 Q 515.8 394.0, 516.6 394.6 Q 517.4 395.3, 517.4 396.5 Q 517.4 397.9, 516.0 398.5 M 512.6 395.1 L 512.6 398.0 L 514.2 398.0 Q 515.1 398.0, 515.6 397.7 Q 516.1 397.3, 516.1 396.5 Q 516.1 395.1, 514.2 395.1 L 512.6 395.1 M 514.6 402.4 Q 515.5 402.4, 516.0 402.0 Q 516.5 401.5, 516.5 400.7 Q 516.5 399.9, 515.9 399.5 Q 515.4 399.1, 514.4 399.1 L 512.6 399.1 L 512.6 402.4 L 514.6 402.4 " fill="#000000"/>
<path class="atom-8" d="M 519.5 396.6 L 519.6 397.5 Q 520.3 396.5, 521.5 396.5 Q 521.9 396.5, 522.4 396.6 L 522.2 397.7 Q 521.6 397.6, 521.3 397.6 Q 520.7 397.6, 520.4 397.8 Q 520.0 398.0, 519.7 398.6 L 519.7 403.5 L 518.4 403.5 L 518.4 396.6 L 519.5 396.6 " fill="#000000"/>
<path class="atom-0" d="M 738.8,384.6 L 738.8,384.6 L 738.8,384.7 L 738.8,384.8 L 738.8,384.8 L 738.7,384.9 L 738.7,384.9 L 738.7,385.0 L 738.7,385.0 L 738.6,385.1 L 738.6,385.1 L 738.5,385.1 L 738.5,385.2 L 738.4,385.2 L 738.4,385.2 L 738.3,385.2 L 738.3,385.3 L 738.2,385.3 L 738.1,385.3 L 738.1,385.3 L 738.0,385.3 L 738.0,385.2 L 737.9,385.2 L 737.9,385.2 L 737.8,385.2 L 737.8,385.2 L 737.7,385.1 L 737.7,385.1 L 737.6,385.0 L 737.6,385.0 L 737.6,384.9 L 737.5,384.9 L 737.5,384.8 L 737.5,384.8 L 737.5,384.7 L 737.5,384.7 L 737.5,384.6 L 737.5,384.6 L 737.5,384.5 L 737.5,384.4 L 737.5,384.4 L 737.5,384.3 L 737.5,384.3 L 737.6,384.2 L 737.6,384.2 L 737.6,384.1 L 737.7,384.1 L 737.7,384.1 L 737.8,384.0 L 737.8,384.0 L 737.9,384.0 L 737.9,384.0 L 738.0,383.9 L 738.0,383.9 L 738.1,383.9 L 738.1,383.9 L 738.2,383.9 L 738.3,383.9 L 738.3,383.9 L 738.4,384.0 L 738.4,384.0 L 738.5,384.0 L 738.5,384.0 L 738.6,384.1 L 738.6,384.1 L 738.7,384.2 L 738.7,384.2 L 738.7,384.3 L 738.7,384.3 L 738.8,384.4 L 738.8,384.4 L 738.8,384.5 L 738.8,384.5 L 738.8,384.6 L 738.1,384.6 Z" style="fill:#000000;fill-rule:evenodd;fill-opacity:1;stroke:#000000;stroke-width:0.0px;stroke-linecap:butt;stroke-linejoin:miter;stroke-opacity:1;"/>
<path class="atom-1" d="M 695.4,404.0 L 695.4,404.1 L 695.4,404.1 L 695.4,404.2 L 695.3,404.2 L 695.3,404.3 L 695.3,404.3 L 695.3,404.4 L 695.2,404.4 L 695.2,404.5 L 695.1,404.5 L 695.1,404.6 L 695.0,404.6 L 695.0,404.6 L 694.9,404.6 L 694.9,404.7 L 694.8,404.7 L 694.8,404.7 L 694.7,404.7 L 694.7,404.7 L 694.6,404.7 L 694.5,404.7 L 694.5,404.6 L 694.4,404.6 L 694.4,404.6 L 694.3,404.6 L 694.3,404.5 L 694.2,404.5 L 694.2,404.5 L 694.2,404.4 L 694.1,404.4 L 694.1,404.3 L 694.1,404.3 L 694.1,404.2 L 694.0,404.2 L 694.0,404.1 L 694.0,404.0 L 694.0,404.0 L 694.0,403.9 L 694.0,403.9 L 694.1,403.8 L 694.1,403.8 L 694.1,403.7 L 694.1,403.7 L 694.2,403.6 L 694.2,403.6 L 694.2,403.5 L 694.3,403.5 L 694.3,403.4 L 694.4,403.4 L 694.4,403.4 L 694.5,403.4 L 694.5,403.4 L 694.6,403.3 L 694.7,403.3 L 694.7,403.3 L 694.8,403.3 L 694.8,403.3 L 694.9,403.4 L 694.9,403.4 L 695.0,403.4 L 695.0,403.4 L 695.1,403.5 L 695.1,403.5 L 695.2,403.5 L 695.2,403.6 L 695.3,403.6 L 695.3,403.7 L 695.3,403.7 L 695.3,403.8 L 695.4,403.8 L 695.4,403.9 L 695.4,403.9 L 695.4,404.0 L 694.7,404.0 Z" style="fill:#000000;fill-rule:evenodd;fill-opacity:1;stroke:#000000;stroke-width:0.0px;stroke-linecap:butt;stroke-linejoin:miter;stroke-opacity:1;"/>
<path class="atom-2" d="M 666.5,367.6 L 666.5,367.6 L 666.5,367.7 L 666.5,367.8 L 666.5,367.8 L 666.5,367.9 L 666.5,367.9 L 666.4,368.0 L 666.4,368.0 L 666.4,368.1 L 666.3,368.1 L 666.3,368.1 L 666.2,368.2 L 666.2,368.2 L 666.1,368.2 L 666.1,368.2 L 666.0,368.2 L 665.9,368.3 L 665.9,368.3 L 665.8,368.3 L 665.8,368.2 L 665.7,368.2 L 665.7,368.2 L 665.6,368.2 L 665.6,368.2 L 665.5,368.1 L 665.5,368.1 L 665.4,368.1 L 665.4,368.0 L 665.3,368.0 L 665.3,367.9 L 665.3,367.9 L 665.3,367.8 L 665.2,367.8 L 665.2,367.7 L 665.2,367.7 L 665.2,367.6 L 665.2,367.6 L 665.2,367.5 L 665.2,367.4 L 665.2,367.4 L 665.3,367.3 L 665.3,367.3 L 665.3,367.2 L 665.3,367.2 L 665.4,367.1 L 665.4,367.1 L 665.5,367.1 L 665.5,367.0 L 665.6,367.0 L 665.6,367.0 L 665.7,366.9 L 665.7,366.9 L 665.8,366.9 L 665.8,366.9 L 665.9,366.9 L 665.9,366.9 L 666.0,366.9 L 666.1,366.9 L 666.1,367.0 L 666.2,367.0 L 666.2,367.0 L 666.3,367.0 L 666.3,367.1 L 666.4,367.1 L 666.4,367.2 L 666.4,367.2 L 666.5,367.3 L 666.5,367.3 L 666.5,367.4 L 666.5,367.4 L 666.5,367.5 L 666.5,367.5 L 666.5,367.6 L 665.9,367.6 Z" style="fill:#000000;fill-rule:evenodd;fill-opacity:1;stroke:#000000;stroke-width:0.0px;stroke-linecap:butt;stroke-linejoin:miter;stroke-opacity:1;"/>
<path class="atom-4" d="M 608.4,386.1 L 608.4,386.2 L 608.4,386.2 L 608.4,386.3 L 608.4,386.3 L 608.4,386.4 L 608.4,386.4 L 608.3,386.5 L 608.3,386.5 L 608.3,386.6 L 608.2,386.6 L 608.2,386.7 L 608.1,386.7 L 608.1,386.7 L 608.0,386.7 L 608.0,386.8 L 607.9,386.8 L 607.8,386.8 L 607.8,386.8 L 607.7,386.8 L 607.7,386.8 L 607.6,386.8 L 607.6,386.7 L 607.5,386.7 L 607.5,386.7 L 607.4,386.7 L 607.4,386.6 L 607.3,386.6 L 607.3,386.6 L 607.2,386.5 L 607.2,386.5 L 607.2,386.4 L 607.2,386.4 L 607.1,386.3 L 607.1,386.3 L 607.1,386.2 L 607.1,386.1 L 607.1,386.1 L 607.1,386.0 L 607.1,386.0 L 607.1,385.9 L 607.2,385.9 L 607.2,385.8 L 607.2,385.8 L 607.2,385.7 L 607.3,385.7 L 607.3,385.6 L 607.4,385.6 L 607.4,385.5 L 607.5,385.5 L 607.5,385.5 L 607.6,385.5 L 607.6,385.5 L 607.7,385.4 L 607.7,385.4 L 607.8,385.4 L 607.8,385.4 L 607.9,385.5 L 608.0,385.5 L 608.0,385.5 L 608.1,385.5 L 608.1,385.5 L 608.2,385.6 L 608.2,385.6 L 608.3,385.6 L 608.3,385.7 L 608.3,385.7 L 608.4,385.8 L 608.4,385.8 L 608.4,385.9 L 608.4,385.9 L 608.4,386.0 L 608.4,386.1 L 608.4,386.1 L 607.8,386.1 Z" style="fill:#000000;fill-rule:evenodd;fill-opacity:1;stroke:#000000;stroke-width:0.0px;stroke-linecap:butt;stroke-linejoin:miter;stroke-opacity:1;"/>
<path class="atom-5" d="M 613.9,349.5 L 613.9,349.6 L 613.9,349.7 L 613.9,349.7 L 613.9,349.8 L 613.9,349.8 L 613.9,349.9 L 613.8,349.9 L 613.8,350.0 L 613.7,350.0 L 613.7,350.1 L 613.7,350.1 L 613.6,350.1 L 613.6,350.2 L 613.5,350.2 L 613.5,350.2 L 613.4,350.2 L 613.3,350.2 L 613.3,350.2 L 613.2,350.2 L 613.2,350.2 L 613.1,350.2 L 613.1,350.2 L 613.0,350.2 L 612.9,350.1 L 612.9,350.1 L 612.9,350.1 L 612.8,350.0 L 612.8,350.0 L 612.7,350.0 L 612.7,349.9 L 612.7,349.9 L 612.6,349.8 L 612.6,349.7 L 612.6,349.7 L 612.6,349.6 L 612.6,349.6 L 612.6,349.5 L 612.6,349.5 L 612.6,349.4 L 612.6,349.3 L 612.6,349.3 L 612.7,349.2 L 612.7,349.2 L 612.7,349.1 L 612.8,349.1 L 612.8,349.1 L 612.9,349.0 L 612.9,349.0 L 612.9,349.0 L 613.0,348.9 L 613.1,348.9 L 613.1,348.9 L 613.2,348.9 L 613.2,348.9 L 613.3,348.9 L 613.3,348.9 L 613.4,348.9 L 613.5,348.9 L 613.5,348.9 L 613.6,348.9 L 613.6,349.0 L 613.7,349.0 L 613.7,349.0 L 613.7,349.1 L 613.8,349.1 L 613.8,349.2 L 613.9,349.2 L 613.9,349.3 L 613.9,349.3 L 613.9,349.4 L 613.9,349.4 L 613.9,349.5 L 613.9,349.5 L 613.3,349.5 Z" style="fill:#000000;fill-rule:evenodd;fill-opacity:1;stroke:#000000;stroke-width:0.0px;stroke-linecap:butt;stroke-linejoin:miter;stroke-opacity:1;"/>
<path class="atom-7" d="M 550.4,379.3 L 550.3,379.4 L 550.3,379.4 L 550.3,379.5 L 550.3,379.5 L 550.3,379.6 L 550.3,379.7 L 550.2,379.7 L 550.2,379.7 L 550.2,379.8 L 550.1,379.8 L 550.1,379.9 L 550.0,379.9 L 550.0,379.9 L 549.9,379.9 L 549.9,380.0 L 549.8,380.0 L 549.8,380.0 L 549.7,380.0 L 549.6,380.0 L 549.6,380.0 L 549.5,380.0 L 549.5,380.0 L 549.4,379.9 L 549.4,379.9 L 549.3,379.9 L 549.3,379.8 L 549.2,379.8 L 549.2,379.8 L 549.1,379.7 L 549.1,379.7 L 549.1,379.6 L 549.1,379.6 L 549.0,379.5 L 549.0,379.5 L 549.0,379.4 L 549.0,379.3 L 549.0,379.3 L 549.0,379.2 L 549.0,379.2 L 549.0,379.1 L 549.1,379.1 L 549.1,379.0 L 549.1,379.0 L 549.1,378.9 L 549.2,378.9 L 549.2,378.8 L 549.3,378.8 L 549.3,378.8 L 549.4,378.7 L 549.4,378.7 L 549.5,378.7 L 549.5,378.7 L 549.6,378.7 L 549.6,378.7 L 549.7,378.6 L 549.8,378.7 L 549.8,378.7 L 549.9,378.7 L 549.9,378.7 L 550.0,378.7 L 550.0,378.7 L 550.1,378.8 L 550.1,378.8 L 550.2,378.9 L 550.2,378.9 L 550.2,378.9 L 550.3,379.0 L 550.3,379.0 L 550.3,379.1 L 550.3,379.1 L 550.3,379.2 L 550.3,379.3 L 550.4,379.3 L 549.7,379.3 Z" style="fill:#000000;fill-rule:evenodd;fill-opacity:1;stroke:#000000;stroke-width:0.0px;stroke-linecap:butt;stroke-linejoin:miter;stroke-opacity:1;"/>
<path class="bond-0 atom-0 atom-1" d="M 228.4,621.2 L 200.5,637.3" style="fill:none;fill-rule:evenodd;stroke:#000000;stroke-width:2.0px;stroke-linecap:butt;stroke-linejoin:miter;stroke-opacity:1"/>
<path class="bond-0 atom-0 atom-1" d="M 222.1,610.4 L 194.3,626.5" style="fill:none;fill-rule:evenodd;stroke:#000000;stroke-width:2.0px;stroke-linecap:butt;stroke-linejoin:miter;stroke-opacity:1"/>
<path class="bond-1 atom-1 atom-2" d="M 170.1,637.5 L 135.0,617.3" style="fill:none;fill-rule:evenodd;stroke:#000000;stroke-width:2.0px;stroke-linecap:butt;stroke-linejoin:miter;stroke-opacity:1"/>
<path class="bond-2 atom-2 atom-3" d="M 114.6,617.3 L 70.7,642.6" style="fill:none;fill-rule:evenodd;stroke:#000000;stroke-width:2.0px;stroke-linecap:butt;stroke-linejoin:miter;stroke-opacity:1"/>
<path class="bond-3 atom-3 atom-4" d="M 70.7,642.6 L 23.9,615.6" style="fill:none;fill-rule:evenodd;stroke:#000000;stroke-width:2.0px;stroke-linecap:butt;stroke-linejoin:miter;stroke-opacity:1"/>
<path class="atom-0" d="M 228.0 617.4 Q 228.2 617.5, 229.0 617.9 Q 229.8 618.2, 230.7 618.4 Q 231.6 618.6, 232.5 618.6 Q 234.2 618.6, 235.2 617.8 Q 236.2 617.0, 236.2 615.6 Q 236.2 614.6, 235.7 614.0 Q 235.2 613.4, 234.4 613.1 Q 233.7 612.8, 232.4 612.4 Q 230.9 611.9, 229.9 611.5 Q 229.0 611.0, 228.3 610.1 Q 227.7 609.1, 227.7 607.5 Q 227.7 605.3, 229.2 603.9 Q 230.7 602.6, 233.7 602.6 Q 235.7 602.6, 238.1 603.5 L 237.5 605.5 Q 235.4 604.6, 233.8 604.6 Q 232.0 604.6, 231.1 605.3 Q 230.1 606.0, 230.2 607.2 Q 230.2 608.2, 230.6 608.8 Q 231.1 609.3, 231.8 609.7 Q 232.6 610.0, 233.8 610.4 Q 235.4 610.9, 236.3 611.4 Q 237.3 611.9, 237.9 612.9 Q 238.6 613.9, 238.6 615.6 Q 238.6 618.0, 237.0 619.4 Q 235.4 620.7, 232.6 620.7 Q 231.1 620.7, 229.9 620.3 Q 228.7 620.0, 227.3 619.4 L 228.0 617.4 " fill="#000000"/>
<path class="atom-1" d="M 175.0 633.8 L 180.8 643.1 Q 181.3 644.1, 182.3 645.7 Q 183.2 647.4, 183.2 647.5 L 183.2 633.8 L 185.6 633.8 L 185.6 651.4 L 183.2 651.4 L 176.9 641.2 Q 176.2 640.0, 175.4 638.6 Q 174.7 637.3, 174.5 636.8 L 174.5 651.4 L 172.2 651.4 L 172.2 633.8 L 175.0 633.8 " fill="#000000"/>
<path class="atom-1" d="M 187.7 636.9 L 190.8 636.9 L 190.8 633.7 L 192.2 633.7 L 192.2 636.9 L 195.4 636.9 L 195.4 638.1 L 192.2 638.1 L 192.2 641.4 L 190.8 641.4 L 190.8 638.1 L 187.7 638.1 L 187.7 636.9 " fill="#000000"/>
<path class="atom-2" d="M 116.7 611.4 Q 116.7 607.2, 118.8 604.8 Q 120.9 602.4, 124.8 602.4 Q 128.7 602.4, 130.8 604.8 Q 132.9 607.2, 132.9 611.4 Q 132.9 615.7, 130.8 618.2 Q 128.7 620.6, 124.8 620.6 Q 120.9 620.6, 118.8 618.2 Q 116.7 615.7, 116.7 611.4 M 124.8 618.6 Q 127.5 618.6, 128.9 616.8 Q 130.4 615.0, 130.4 611.4 Q 130.4 608.0, 128.9 606.2 Q 127.5 604.4, 124.8 604.4 Q 122.1 604.4, 120.6 606.2 Q 119.2 607.9, 119.2 611.4 Q 119.2 615.0, 120.6 616.8 Q 122.1 618.6, 124.8 618.6 " fill="#000000"/>
<path class="atom-2" d="M 134.2 605.6 L 137.3 605.6 L 137.3 602.3 L 138.7 602.3 L 138.7 605.6 L 141.9 605.6 L 141.9 606.8 L 138.7 606.8 L 138.7 610.1 L 137.3 610.1 L 137.3 606.8 L 134.2 606.8 L 134.2 605.6 " fill="#000000"/>
<path class="atom-4" d="M 11.4 602.5 L 21.9 602.5 L 21.9 604.6 L 13.7 604.6 L 13.7 609.9 L 21.0 609.9 L 21.0 612.0 L 13.7 612.0 L 13.7 620.2 L 11.4 620.2 L 11.4 602.5 " fill="#000000"/>
<path class="atom-1" d="M 200.4,642.6 L 200.4,642.7 L 200.3,642.8 L 200.3,642.9 L 200.3,643.0 L 200.2,643.1 L 200.2,643.2 L 200.1,643.3 L 200.1,643.4 L 200.0,643.5 L 199.9,643.5 L 199.8,643.6 L 199.7,643.7 L 199.7,643.7 L 199.6,643.8 L 199.5,643.8 L 199.3,643.8 L 199.2,643.8 L 199.1,643.9 L 199.0,643.8 L 198.9,643.8 L 198.8,643.8 L 198.7,643.8 L 198.6,643.7 L 198.5,643.7 L 198.4,643.6 L 198.3,643.6 L 198.3,643.5 L 198.2,643.4 L 198.1,643.4 L 198.0,643.3 L 198.0,643.2 L 198.0,643.1 L 197.9,643.0 L 197.9,642.9 L 197.9,642.8 L 197.9,642.7 L 197.9,642.5 L 197.9,642.4 L 197.9,642.3 L 197.9,642.2 L 198.0,642.1 L 198.0,642.0 L 198.0,641.9 L 198.1,641.9 L 198.2,641.8 L 198.3,641.7 L 198.3,641.6 L 198.4,641.6 L 198.5,641.5 L 198.6,641.5 L 198.7,641.4 L 198.8,641.4 L 198.9,641.4 L 199.0,641.4 L 199.1,641.4 L 199.2,641.4 L 199.3,641.4 L 199.5,641.4 L 199.6,641.4 L 199.7,641.5 L 199.7,641.5 L 199.8,641.6 L 199.9,641.7 L 200.0,641.7 L 200.1,641.8 L 200.1,641.9 L 200.2,642.0 L 200.2,642.1 L 200.3,642.2 L 200.3,642.3 L 200.3,642.4 L 200.4,642.5 L 200.4,642.6 L 199.1,642.6 Z" style="fill:#000000;fill-rule:evenodd;fill-opacity:1;stroke:#000000;stroke-width:0.0px;stroke-linecap:butt;stroke-linejoin:miter;stroke-opacity:1;"/>
<path class="atom-2" d="M 126.0,600.4 L 126.0,600.5 L 126.0,600.6 L 126.0,600.7 L 126.0,600.8 L 125.9,600.9 L 125.9,601.0 L 125.8,601.1 L 125.8,601.2 L 125.7,601.3 L 125.6,601.4 L 125.5,601.4 L 125.4,601.5 L 125.3,601.6 L 125.2,601.6 L 125.1,601.6 L 125.0,601.7 L 124.9,601.7 L 124.8,601.7 L 124.7,601.7 L 124.6,601.7 L 124.5,601.6 L 124.4,601.6 L 124.3,601.6 L 124.2,601.5 L 124.1,601.5 L 124.0,601.4 L 123.9,601.3 L 123.9,601.3 L 123.8,601.2 L 123.7,601.1 L 123.7,601.0 L 123.6,600.9 L 123.6,600.8 L 123.6,600.7 L 123.6,600.6 L 123.5,600.5 L 123.5,600.4 L 123.6,600.3 L 123.6,600.2 L 123.6,600.1 L 123.6,600.0 L 123.7,599.9 L 123.7,599.8 L 123.8,599.7 L 123.9,599.6 L 123.9,599.5 L 124.0,599.4 L 124.1,599.4 L 124.2,599.3 L 124.3,599.3 L 124.4,599.2 L 124.5,599.2 L 124.6,599.2 L 124.7,599.2 L 124.8,599.2 L 124.9,599.2 L 125.0,599.2 L 125.1,599.2 L 125.2,599.3 L 125.3,599.3 L 125.4,599.4 L 125.5,599.4 L 125.6,599.5 L 125.7,599.6 L 125.8,599.6 L 125.8,599.7 L 125.9,599.8 L 125.9,599.9 L 126.0,600.0 L 126.0,600.1 L 126.0,600.2 L 126.0,600.3 L 126.0,600.4 L 124.8,600.4 Z" style="fill:#000000;fill-rule:evenodd;fill-opacity:1;stroke:#000000;stroke-width:0.0px;stroke-linecap:butt;stroke-linejoin:miter;stroke-opacity:1;"/>
<path class="atom-3" d="M 72.0,648.2 L 72.0,648.3 L 71.9,648.4 L 71.9,648.5 L 71.9,648.6 L 71.8,648.7 L 71.8,648.8 L 71.7,648.9 L 71.7,649.0 L 71.6,649.1 L 71.5,649.2 L 71.4,649.2 L 71.3,649.3 L 71.3,649.3 L 71.2,649.4 L 71.1,649.4 L 70.9,649.4 L 70.8,649.5 L 70.7,649.5 L 70.6,649.5 L 70.5,649.5 L 70.4,649.4 L 70.3,649.4 L 70.2,649.4 L 70.1,649.3 L 70.0,649.3 L 69.9,649.2 L 69.9,649.1 L 69.8,649.1 L 69.7,649.0 L 69.6,648.9 L 69.6,648.8 L 69.6,648.7 L 69.5,648.6 L 69.5,648.5 L 69.5,648.4 L 69.5,648.3 L 69.5,648.2 L 69.5,648.1 L 69.5,648.0 L 69.5,647.9 L 69.6,647.8 L 69.6,647.7 L 69.6,647.6 L 69.7,647.5 L 69.8,647.4 L 69.9,647.3 L 69.9,647.2 L 70.0,647.2 L 70.1,647.1 L 70.2,647.1 L 70.3,647.0 L 70.4,647.0 L 70.5,647.0 L 70.6,647.0 L 70.7,647.0 L 70.8,647.0 L 70.9,647.0 L 71.1,647.0 L 71.2,647.1 L 71.3,647.1 L 71.3,647.2 L 71.4,647.2 L 71.5,647.3 L 71.6,647.3 L 71.7,647.4 L 71.7,647.5 L 71.8,647.6 L 71.8,647.7 L 71.9,647.8 L 71.9,647.9 L 71.9,648.0 L 72.0,648.1 L 72.0,648.2 L 70.7,648.2 Z" style="fill:#000000;fill-rule:evenodd;fill-opacity:1;stroke:#000000;stroke-width:0.0px;stroke-linecap:butt;stroke-linejoin:miter;stroke-opacity:1;"/>
<path class="bond-0 atom-0 atom-1" d="M 547.3,722.3 L 536.1,705.2" style="fill:none;fill-rule:evenodd;stroke:#000000;stroke-width:2.0px;stroke-linecap:butt;stroke-linejoin:miter;stroke-opacity:1"/>
<path class="bond-1 atom-1 atom-2" d="M 535.2,693.2 L 547.7,668.4" style="fill:none;fill-rule:evenodd;stroke:#000000;stroke-width:2.0px;stroke-linecap:butt;stroke-linejoin:miter;stroke-opacity:1"/>
<path class="bond-2 atom-2 atom-3" d="M 547.7,668.4 L 532.7,645.5" style="fill:none;fill-rule:evenodd;stroke:#000000;stroke-width:2.0px;stroke-linecap:butt;stroke-linejoin:miter;stroke-opacity:1"/>
<path class="bond-3 atom-3 atom-4" d="M 531.8,633.4 L 544.4,608.6" style="fill:none;fill-rule:evenodd;stroke:#000000;stroke-width:2.0px;stroke-linecap:butt;stroke-linejoin:miter;stroke-opacity:1"/>
<path class="bond-4 atom-4 atom-5" d="M 544.4,608.6 L 529.4,585.8" style="fill:none;fill-rule:evenodd;stroke:#000000;stroke-width:2.0px;stroke-linecap:butt;stroke-linejoin:miter;stroke-opacity:1"/>
<path class="bond-5 atom-5 atom-6" d="M 528.5,573.7 L 538.0,554.9" style="fill:none;fill-rule:evenodd;stroke:#000000;stroke-width:2.0px;stroke-linecap:butt;stroke-linejoin:miter;stroke-opacity:1"/>
<path class="bond-5 atom-5 atom-6" d="M 523.8,567.8 L 530.4,554.6" style="fill:none;fill-rule:evenodd;stroke:#000000;stroke-width:2.0px;stroke-linecap:butt;stroke-linejoin:miter;stroke-opacity:1"/>
<path class="bond-5 atom-5 atom-6" d="M 536.1,574.0 L 542.7,560.9" style="fill:none;fill-rule:evenodd;stroke:#000000;stroke-width:2.0px;stroke-linecap:butt;stroke-linejoin:miter;stroke-opacity:1"/>
<path class="bond-6 atom-6 atom-7" d="M 537.1,542.9 L 522.1,520.0" style="fill:none;fill-rule:evenodd;stroke:#000000;stroke-width:2.0px;stroke-linecap:butt;stroke-linejoin:miter;stroke-opacity:1"/>
<path class="bond-7 atom-6 atom-8" d="M 545.3,548.7 L 571.2,547.2" style="fill:none;fill-rule:evenodd;stroke:#000000;stroke-width:2.0px;stroke-linecap:butt;stroke-linejoin:miter;stroke-opacity:1"/>
<path class="bond-8 atom-8 atom-9" d="M 579.6,553.2 L 590.5,569.8" style="fill:none;fill-rule:evenodd;stroke:#000000;stroke-width:2.0px;stroke-linecap:butt;stroke-linejoin:miter;stroke-opacity:1"/>
<path class="bond-9 atom-9 atom-10" d="M 599.3,575.6 L 628.9,573.9" style="fill:none;fill-rule:evenodd;stroke:#000000;stroke-width:2.0px;stroke-linecap:butt;stroke-linejoin:miter;stroke-opacity:1"/>
<path class="bond-10 atom-10 atom-11" d="M 628.9,573.9 L 643.9,596.8" style="fill:none;fill-rule:evenodd;stroke:#000000;stroke-width:2.0px;stroke-linecap:butt;stroke-linejoin:miter;stroke-opacity:1"/>
<path class="bond-11 atom-11 atom-12" d="M 652.7,602.6 L 682.3,600.9" style="fill:none;fill-rule:evenodd;stroke:#000000;stroke-width:2.0px;stroke-linecap:butt;stroke-linejoin:miter;stroke-opacity:1"/>
<path class="bond-12 atom-12 atom-13" d="M 682.3,600.9 L 697.3,623.8" style="fill:none;fill-rule:evenodd;stroke:#000000;stroke-width:2.0px;stroke-linecap:butt;stroke-linejoin:miter;stroke-opacity:1"/>
<path class="bond-13 atom-13 atom-14" d="M 710.4,629.3 L 731.7,628.1" style="fill:none;fill-rule:evenodd;stroke:#000000;stroke-width:2.0px;stroke-linecap:butt;stroke-linejoin:miter;stroke-opacity:1"/>
<path class="atom-0" d="M 547.3 728.4 Q 547.3 726.0, 548.4 724.7 Q 549.6 723.4, 551.7 723.4 Q 553.8 723.4, 554.8 724.9 L 553.9 725.6 Q 553.1 724.6, 551.7 724.6 Q 550.3 724.6, 549.5 725.6 Q 548.7 726.6, 548.7 728.4 Q 548.7 730.4, 549.5 731.4 Q 550.3 732.4, 551.9 732.4 Q 553.0 732.4, 554.2 731.7 L 554.6 732.7 Q 554.1 733.1, 553.3 733.3 Q 552.6 733.5, 551.7 733.5 Q 549.6 733.5, 548.4 732.2 Q 547.3 730.9, 547.3 728.4 " fill="#000000"/>
<path class="atom-0" d="M 555.4 722.9 L 556.7 722.9 L 556.7 733.3 L 555.4 733.3 L 555.4 722.9 " fill="#000000"/>
<path class="atom-1" d="M 519.6 694.3 L 520.9 694.3 L 520.9 698.5 L 525.9 698.5 L 525.9 694.3 L 527.3 694.3 L 527.3 704.1 L 525.9 704.1 L 525.9 699.6 L 520.9 699.6 L 520.9 704.1 L 519.6 704.1 L 519.6 694.3 " fill="#000000"/>
<path class="atom-1" d="M 530.0 694.3 L 533.2 699.5 Q 533.5 700.0, 534.0 700.9 Q 534.5 701.8, 534.6 701.9 L 534.6 694.3 L 535.9 694.3 L 535.9 704.1 L 534.5 704.1 L 531.1 698.4 Q 530.7 697.8, 530.2 697.0 Q 529.8 696.2, 529.7 696.0 L 529.7 704.1 L 528.4 704.1 L 528.4 694.3 L 530.0 694.3 " fill="#000000"/>
<path class="atom-3" d="M 511.4 634.6 L 512.7 634.6 L 512.7 638.7 L 517.7 638.7 L 517.7 634.6 L 519.0 634.6 L 519.0 644.4 L 517.7 644.4 L 517.7 639.8 L 512.7 639.8 L 512.7 644.4 L 511.4 644.4 L 511.4 634.6 " fill="#000000"/>
<path class="atom-3" d="M 520.2 644.0 Q 520.4 643.4, 521.0 643.1 Q 521.6 642.7, 522.4 642.7 Q 523.3 642.7, 523.9 643.2 Q 524.4 643.8, 524.4 644.7 Q 524.4 645.7, 523.7 646.6 Q 523.0 647.5, 521.6 648.5 L 524.5 648.5 L 524.5 649.2 L 520.2 649.2 L 520.2 648.6 Q 521.4 647.8, 522.1 647.1 Q 522.8 646.5, 523.2 645.9 Q 523.5 645.3, 523.5 644.8 Q 523.5 644.1, 523.2 643.8 Q 522.9 643.4, 522.4 643.4 Q 521.8 643.4, 521.5 643.7 Q 521.2 643.9, 520.9 644.3 L 520.2 644.0 " fill="#000000"/>
<path class="atom-3" d="M 526.6 634.6 L 529.8 639.8 Q 530.2 640.3, 530.7 641.2 Q 531.2 642.1, 531.2 642.2 L 531.2 634.6 L 532.5 634.6 L 532.5 644.4 L 531.2 644.4 L 527.7 638.7 Q 527.3 638.0, 526.9 637.3 Q 526.5 636.5, 526.4 636.3 L 526.4 644.4 L 525.1 644.4 L 525.1 634.6 L 526.6 634.6 " fill="#000000"/>
<path class="atom-3" d="M 533.7 636.3 L 535.4 636.3 L 535.4 634.5 L 536.1 634.5 L 536.1 636.3 L 537.9 636.3 L 537.9 637.0 L 536.1 637.0 L 536.1 638.8 L 535.4 638.8 L 535.4 637.0 L 533.7 637.0 L 533.7 636.3 " fill="#000000"/>
<path class="atom-5" d="M 513.5 574.8 L 514.8 574.8 L 514.8 579.0 L 519.8 579.0 L 519.8 574.8 L 521.2 574.8 L 521.2 584.6 L 519.8 584.6 L 519.8 580.1 L 514.8 580.1 L 514.8 584.6 L 513.5 584.6 L 513.5 574.8 " fill="#000000"/>
<path class="atom-5" d="M 525.2 574.8 Q 526.9 574.8, 527.7 575.6 Q 528.6 576.3, 528.6 577.7 Q 528.6 579.1, 527.7 579.8 Q 526.8 580.6, 525.2 580.6 L 523.7 580.6 L 523.7 584.6 L 522.3 584.6 L 522.3 574.8 L 525.2 574.8 M 525.2 579.5 Q 526.2 579.5, 526.7 579.0 Q 527.2 578.6, 527.2 577.7 Q 527.2 576.8, 526.7 576.4 Q 526.2 575.9, 525.2 575.9 L 523.7 575.9 L 523.7 579.5 L 525.2 579.5 " fill="#000000"/>
<path class="atom-6" d="M 540.8 544.0 Q 542.5 544.0, 543.3 544.8 Q 544.1 545.5, 544.1 546.9 Q 544.1 548.2, 543.3 549.0 Q 542.4 549.8, 540.8 549.8 L 539.2 549.8 L 539.2 553.8 L 537.9 553.8 L 537.9 544.0 L 540.8 544.0 M 540.8 548.7 Q 541.7 548.7, 542.3 548.2 Q 542.8 547.7, 542.8 546.9 Q 542.8 546.0, 542.3 545.6 Q 541.8 545.1, 540.8 545.1 L 539.2 545.1 L 539.2 548.7 L 540.8 548.7 " fill="#000000"/>
<path class="atom-8" d="M 572.7 550.3 Q 572.9 550.4, 573.3 550.5 Q 573.8 550.7, 574.3 550.9 Q 574.8 551.0, 575.3 551.0 Q 576.2 551.0, 576.7 550.5 Q 577.3 550.1, 577.3 549.3 Q 577.3 548.8, 577.0 548.4 Q 576.7 548.1, 576.3 547.9 Q 575.9 547.7, 575.2 547.5 Q 574.3 547.3, 573.8 547.0 Q 573.3 546.8, 572.9 546.2 Q 572.6 545.7, 572.6 544.8 Q 572.6 543.6, 573.4 542.8 Q 574.3 542.1, 575.9 542.1 Q 577.0 542.1, 578.3 542.6 L 578.0 543.7 Q 576.8 543.2, 576.0 543.2 Q 575.0 543.2, 574.5 543.6 Q 573.9 544.0, 574.0 544.7 Q 574.0 545.2, 574.2 545.5 Q 574.5 545.8, 574.9 546.0 Q 575.3 546.2, 576.0 546.4 Q 576.8 546.7, 577.4 546.9 Q 577.9 547.2, 578.3 547.8 Q 578.6 548.3, 578.6 549.3 Q 578.6 550.6, 577.7 551.4 Q 576.8 552.1, 575.3 552.1 Q 574.5 552.1, 573.8 551.9 Q 573.1 551.7, 572.4 551.4 L 572.7 550.3 " fill="#000000"/>
<path class="atom-9" d="M 581.9 571.0 L 583.2 571.0 L 583.2 575.1 L 588.2 575.1 L 588.2 571.0 L 589.5 571.0 L 589.5 580.7 L 588.2 580.7 L 588.2 576.2 L 583.2 576.2 L 583.2 580.7 L 581.9 580.7 L 581.9 571.0 " fill="#000000"/>
<path class="atom-9" d="M 592.3 571.0 L 595.5 576.1 Q 595.8 576.7, 596.3 577.6 Q 596.8 578.5, 596.8 578.6 L 596.8 571.0 L 598.1 571.0 L 598.1 580.7 L 596.8 580.7 L 593.4 575.1 Q 593.0 574.4, 592.5 573.7 Q 592.1 572.9, 592.0 572.7 L 592.0 580.7 L 590.7 580.7 L 590.7 571.0 L 592.3 571.0 " fill="#000000"/>
<path class="atom-11" d="M 645.7 597.9 L 648.9 603.1 Q 649.2 603.6, 649.7 604.6 Q 650.2 605.5, 650.2 605.5 L 650.2 597.9 L 651.5 597.9 L 651.5 607.7 L 650.2 607.7 L 646.8 602.1 Q 646.4 601.4, 645.9 600.6 Q 645.5 599.9, 645.4 599.6 L 645.4 607.7 L 644.1 607.7 L 644.1 597.9 L 645.7 597.9 " fill="#000000"/>
<path class="atom-11" d="M 652.7 599.6 L 656.0 599.6 L 656.0 600.3 L 652.7 600.3 L 652.7 599.6 " fill="#000000"/>
<path class="atom-13" d="M 698.5 633.2 Q 698.6 633.2, 699.0 633.4 Q 699.5 633.6, 700.0 633.7 Q 700.5 633.8, 701.0 633.8 Q 701.9 633.8, 702.5 633.4 Q 703.0 632.9, 703.0 632.1 Q 703.0 631.6, 702.7 631.3 Q 702.5 630.9, 702.1 630.7 Q 701.6 630.6, 700.9 630.4 Q 700.1 630.1, 699.6 629.8 Q 699.0 629.6, 698.7 629.1 Q 698.3 628.5, 698.3 627.7 Q 698.3 626.4, 699.1 625.7 Q 700.0 624.9, 701.6 624.9 Q 702.8 624.9, 704.1 625.5 L 703.7 626.5 Q 702.6 626.0, 701.7 626.0 Q 700.7 626.0, 700.2 626.4 Q 699.7 626.8, 699.7 627.5 Q 699.7 628.0, 700.0 628.3 Q 700.2 628.7, 700.6 628.8 Q 701.0 629.0, 701.7 629.2 Q 702.6 629.5, 703.1 629.8 Q 703.6 630.1, 704.0 630.6 Q 704.4 631.2, 704.4 632.1 Q 704.4 633.5, 703.5 634.2 Q 702.6 634.9, 701.1 634.9 Q 700.2 634.9, 699.5 634.7 Q 698.9 634.6, 698.1 634.2 L 698.5 633.2 " fill="#000000"/>
<path class="atom-13" d="M 705.0 626.5 L 706.7 626.5 L 706.7 624.7 L 707.5 624.7 L 707.5 626.5 L 709.3 626.5 L 709.3 627.2 L 707.5 627.2 L 707.5 629.0 L 706.7 629.0 L 706.7 627.2 L 705.0 627.2 L 705.0 626.5 " fill="#000000"/>
<path class="atom-14" d="M 732.8 623.0 L 738.6 623.0 L 738.6 624.1 L 734.1 624.1 L 734.1 627.1 L 738.1 627.1 L 738.1 628.2 L 734.1 628.2 L 734.1 632.8 L 732.8 632.8 L 732.8 623.0 " fill="#000000"/>
<path class="atom-2" d="M 552.6,668.4 L 552.6,668.4 L 552.5,668.5 L 552.5,668.5 L 552.5,668.6 L 552.5,668.6 L 552.5,668.7 L 552.4,668.8 L 552.4,668.8 L 552.4,668.8 L 552.3,668.9 L 552.3,668.9 L 552.2,669.0 L 552.2,669.0 L 552.1,669.0 L 552.1,669.0 L 552.0,669.0 L 551.9,669.0 L 551.9,669.1 L 551.8,669.1 L 551.8,669.0 L 551.7,669.0 L 551.6,669.0 L 551.6,669.0 L 551.5,669.0 L 551.5,668.9 L 551.4,668.9 L 551.4,668.9 L 551.3,668.8 L 551.3,668.8 L 551.3,668.7 L 551.2,668.7 L 551.2,668.6 L 551.2,668.6 L 551.2,668.5 L 551.2,668.5 L 551.2,668.4 L 551.2,668.3 L 551.2,668.3 L 551.2,668.2 L 551.2,668.2 L 551.2,668.1 L 551.2,668.0 L 551.3,668.0 L 551.3,667.9 L 551.3,667.9 L 551.4,667.9 L 551.4,667.8 L 551.5,667.8 L 551.5,667.8 L 551.6,667.7 L 551.6,667.7 L 551.7,667.7 L 551.8,667.7 L 551.8,667.7 L 551.9,667.7 L 551.9,667.7 L 552.0,667.7 L 552.1,667.7 L 552.1,667.7 L 552.2,667.7 L 552.2,667.8 L 552.3,667.8 L 552.3,667.8 L 552.4,667.9 L 552.4,667.9 L 552.4,668.0 L 552.5,668.0 L 552.5,668.1 L 552.5,668.1 L 552.5,668.2 L 552.5,668.2 L 552.6,668.3 L 552.6,668.4 L 551.9,668.4 Z" style="fill:#000000;fill-rule:evenodd;fill-opacity:1;stroke:#000000;stroke-width:0.0px;stroke-linecap:butt;stroke-linejoin:miter;stroke-opacity:1;"/>
<path class="atom-4" d="M 549.2,610.0 L 549.2,610.1 L 549.2,610.1 L 549.2,610.2 L 549.2,610.2 L 549.1,610.3 L 549.1,610.3 L 549.1,610.4 L 549.0,610.4 L 549.0,610.5 L 549.0,610.5 L 548.9,610.6 L 548.9,610.6 L 548.8,610.6 L 548.8,610.7 L 548.7,610.7 L 548.6,610.7 L 548.6,610.7 L 548.5,610.7 L 548.5,610.7 L 548.4,610.7 L 548.4,610.7 L 548.3,610.7 L 548.2,610.6 L 548.2,610.6 L 548.1,610.6 L 548.1,610.6 L 548.0,610.5 L 548.0,610.5 L 548.0,610.4 L 547.9,610.4 L 547.9,610.3 L 547.9,610.3 L 547.9,610.2 L 547.8,610.2 L 547.8,610.1 L 547.8,610.0 L 547.8,610.0 L 547.8,609.9 L 547.8,609.9 L 547.9,609.8 L 547.9,609.7 L 547.9,609.7 L 547.9,609.6 L 548.0,609.6 L 548.0,609.5 L 548.0,609.5 L 548.1,609.5 L 548.1,609.4 L 548.2,609.4 L 548.2,609.4 L 548.3,609.4 L 548.4,609.3 L 548.4,609.3 L 548.5,609.3 L 548.5,609.3 L 548.6,609.3 L 548.6,609.3 L 548.7,609.3 L 548.8,609.4 L 548.8,609.4 L 548.9,609.4 L 548.9,609.4 L 549.0,609.5 L 549.0,609.5 L 549.0,609.6 L 549.1,609.6 L 549.1,609.7 L 549.1,609.7 L 549.2,609.8 L 549.2,609.8 L 549.2,609.9 L 549.2,609.9 L 549.2,610.0 L 548.5,610.0 Z" style="fill:#000000;fill-rule:evenodd;fill-opacity:1;stroke:#000000;stroke-width:0.0px;stroke-linecap:butt;stroke-linejoin:miter;stroke-opacity:1;"/>
<path class="atom-4" d="M 549.2,607.2 L 549.2,607.3 L 549.2,607.4 L 549.2,607.4 L 549.2,607.5 L 549.1,607.5 L 549.1,607.6 L 549.1,607.6 L 549.0,607.7 L 549.0,607.7 L 549.0,607.8 L 548.9,607.8 L 548.9,607.8 L 548.8,607.9 L 548.8,607.9 L 548.7,607.9 L 548.6,607.9 L 548.6,607.9 L 548.5,607.9 L 548.5,607.9 L 548.4,607.9 L 548.4,607.9 L 548.3,607.9 L 548.2,607.9 L 548.2,607.9 L 548.1,607.8 L 548.1,607.8 L 548.0,607.7 L 548.0,607.7 L 548.0,607.7 L 547.9,607.6 L 547.9,607.6 L 547.9,607.5 L 547.9,607.4 L 547.8,607.4 L 547.8,607.3 L 547.8,607.3 L 547.8,607.2 L 547.8,607.2 L 547.8,607.1 L 547.9,607.0 L 547.9,607.0 L 547.9,606.9 L 547.9,606.9 L 548.0,606.8 L 548.0,606.8 L 548.0,606.7 L 548.1,606.7 L 548.1,606.7 L 548.2,606.6 L 548.2,606.6 L 548.3,606.6 L 548.4,606.6 L 548.4,606.6 L 548.5,606.6 L 548.5,606.6 L 548.6,606.6 L 548.6,606.6 L 548.7,606.6 L 548.8,606.6 L 548.8,606.6 L 548.9,606.7 L 548.9,606.7 L 549.0,606.7 L 549.0,606.8 L 549.0,606.8 L 549.1,606.9 L 549.1,606.9 L 549.1,607.0 L 549.2,607.0 L 549.2,607.1 L 549.2,607.1 L 549.2,607.2 L 549.2,607.2 L 548.5,607.2 Z" style="fill:#000000;fill-rule:evenodd;fill-opacity:1;stroke:#000000;stroke-width:0.0px;stroke-linecap:butt;stroke-linejoin:miter;stroke-opacity:1;"/>
<path class="atom-7" d="M 518.6,516.5 L 518.6,516.6 L 518.6,516.7 L 518.6,516.7 L 518.6,516.8 L 518.6,516.8 L 518.6,516.9 L 518.5,516.9 L 518.5,517.0 L 518.5,517.0 L 518.4,517.1 L 518.4,517.1 L 518.3,517.1 L 518.3,517.2 L 518.2,517.2 L 518.1,517.2 L 518.1,517.2 L 518.0,517.2 L 518.0,517.2 L 517.9,517.2 L 517.9,517.2 L 517.8,517.2 L 517.7,517.2 L 517.7,517.2 L 517.6,517.1 L 517.6,517.1 L 517.5,517.1 L 517.5,517.0 L 517.4,517.0 L 517.4,517.0 L 517.4,516.9 L 517.3,516.9 L 517.3,516.8 L 517.3,516.7 L 517.3,516.7 L 517.3,516.6 L 517.3,516.6 L 517.3,516.5 L 517.3,516.4 L 517.3,516.4 L 517.3,516.3 L 517.3,516.3 L 517.3,516.2 L 517.4,516.2 L 517.4,516.1 L 517.4,516.1 L 517.5,516.0 L 517.5,516.0 L 517.6,516.0 L 517.6,515.9 L 517.7,515.9 L 517.7,515.9 L 517.8,515.9 L 517.9,515.9 L 517.9,515.8 L 518.0,515.8 L 518.0,515.8 L 518.1,515.9 L 518.1,515.9 L 518.2,515.9 L 518.3,515.9 L 518.3,515.9 L 518.4,516.0 L 518.4,516.0 L 518.5,516.1 L 518.5,516.1 L 518.5,516.1 L 518.6,516.2 L 518.6,516.2 L 518.6,516.3 L 518.6,516.4 L 518.6,516.4 L 518.6,516.5 L 518.6,516.5 L 518.0,516.5 Z" style="fill:#000000;fill-rule:evenodd;fill-opacity:1;stroke:#000000;stroke-width:0.0px;stroke-linecap:butt;stroke-linejoin:miter;stroke-opacity:1;"/>
<path class="atom-7" d="M 518.6,523.4 L 518.6,523.5 L 518.6,523.6 L 518.6,523.6 L 518.6,523.7 L 518.6,523.7 L 518.6,523.8 L 518.5,523.8 L 518.5,523.9 L 518.5,523.9 L 518.4,524.0 L 518.4,524.0 L 518.3,524.0 L 518.3,524.1 L 518.2,524.1 L 518.1,524.1 L 518.1,524.1 L 518.0,524.1 L 518.0,524.1 L 517.9,524.1 L 517.9,524.1 L 517.8,524.1 L 517.7,524.1 L 517.7,524.1 L 517.6,524.1 L 517.6,524.0 L 517.5,524.0 L 517.5,523.9 L 517.4,523.9 L 517.4,523.9 L 517.4,523.8 L 517.3,523.8 L 517.3,523.7 L 517.3,523.6 L 517.3,523.6 L 517.3,523.5 L 517.3,523.5 L 517.3,523.4 L 517.3,523.4 L 517.3,523.3 L 517.3,523.2 L 517.3,523.2 L 517.3,523.1 L 517.4,523.1 L 517.4,523.0 L 517.4,523.0 L 517.5,522.9 L 517.5,522.9 L 517.6,522.9 L 517.6,522.8 L 517.7,522.8 L 517.7,522.8 L 517.8,522.8 L 517.9,522.8 L 517.9,522.8 L 518.0,522.8 L 518.0,522.8 L 518.1,522.8 L 518.1,522.8 L 518.2,522.8 L 518.3,522.8 L 518.3,522.9 L 518.4,522.9 L 518.4,522.9 L 518.5,523.0 L 518.5,523.0 L 518.5,523.1 L 518.6,523.1 L 518.6,523.2 L 518.6,523.2 L 518.6,523.3 L 518.6,523.3 L 518.6,523.4 L 518.6,523.4 L 518.0,523.4 Z" style="fill:#000000;fill-rule:evenodd;fill-opacity:1;stroke:#000000;stroke-width:0.0px;stroke-linecap:butt;stroke-linejoin:miter;stroke-opacity:1;"/>
<path class="atom-7" d="M 518.6,520.0 L 518.6,520.0 L 518.6,520.1 L 518.6,520.2 L 518.6,520.2 L 518.6,520.3 L 518.6,520.3 L 518.5,520.4 L 518.5,520.4 L 518.5,520.5 L 518.4,520.5 L 518.4,520.6 L 518.3,520.6 L 518.3,520.6 L 518.2,520.6 L 518.1,520.7 L 518.1,520.7 L 518.0,520.7 L 518.0,520.7 L 517.9,520.7 L 517.9,520.7 L 517.8,520.7 L 517.7,520.6 L 517.7,520.6 L 517.6,520.6 L 517.6,520.6 L 517.5,520.5 L 517.5,520.5 L 517.4,520.5 L 517.4,520.4 L 517.4,520.4 L 517.3,520.3 L 517.3,520.3 L 517.3,520.2 L 517.3,520.1 L 517.3,520.1 L 517.3,520.0 L 517.3,520.0 L 517.3,519.9 L 517.3,519.8 L 517.3,519.8 L 517.3,519.7 L 517.3,519.7 L 517.4,519.6 L 517.4,519.6 L 517.4,519.5 L 517.5,519.5 L 517.5,519.4 L 517.6,519.4 L 517.6,519.4 L 517.7,519.4 L 517.7,519.3 L 517.8,519.3 L 517.9,519.3 L 517.9,519.3 L 518.0,519.3 L 518.0,519.3 L 518.1,519.3 L 518.1,519.3 L 518.2,519.3 L 518.3,519.4 L 518.3,519.4 L 518.4,519.4 L 518.4,519.5 L 518.5,519.5 L 518.5,519.6 L 518.5,519.6 L 518.6,519.6 L 518.6,519.7 L 518.6,519.8 L 518.6,519.8 L 518.6,519.9 L 518.6,519.9 L 518.6,520.0 L 518.0,520.0 Z" style="fill:#000000;fill-rule:evenodd;fill-opacity:1;stroke:#000000;stroke-width:0.0px;stroke-linecap:butt;stroke-linejoin:miter;stroke-opacity:1;"/>
<path class="atom-10" d="M 633.8,575.3 L 633.7,575.4 L 633.7,575.4 L 633.7,575.5 L 633.7,575.5 L 633.7,575.6 L 633.7,575.6 L 633.6,575.7 L 633.6,575.7 L 633.6,575.8 L 633.5,575.8 L 633.5,575.9 L 633.4,575.9 L 633.4,575.9 L 633.3,576.0 L 633.3,576.0 L 633.2,576.0 L 633.1,576.0 L 633.1,576.0 L 633.0,576.0 L 633.0,576.0 L 632.9,576.0 L 632.8,576.0 L 632.8,575.9 L 632.7,575.9 L 632.7,575.9 L 632.6,575.8 L 632.6,575.8 L 632.5,575.8 L 632.5,575.7 L 632.5,575.7 L 632.4,575.6 L 632.4,575.6 L 632.4,575.5 L 632.4,575.5 L 632.4,575.4 L 632.4,575.3 L 632.4,575.3 L 632.4,575.2 L 632.4,575.2 L 632.4,575.1 L 632.4,575.0 L 632.4,575.0 L 632.5,574.9 L 632.5,574.9 L 632.5,574.8 L 632.6,574.8 L 632.6,574.8 L 632.7,574.7 L 632.7,574.7 L 632.8,574.7 L 632.8,574.7 L 632.9,574.6 L 633.0,574.6 L 633.0,574.6 L 633.1,574.6 L 633.1,574.6 L 633.2,574.6 L 633.3,574.6 L 633.3,574.7 L 633.4,574.7 L 633.4,574.7 L 633.5,574.7 L 633.5,574.8 L 633.6,574.8 L 633.6,574.9 L 633.6,574.9 L 633.7,575.0 L 633.7,575.0 L 633.7,575.1 L 633.7,575.1 L 633.7,575.2 L 633.7,575.2 L 633.8,575.3 L 633.1,575.3 Z" style="fill:#000000;fill-rule:evenodd;fill-opacity:1;stroke:#000000;stroke-width:0.0px;stroke-linecap:butt;stroke-linejoin:miter;stroke-opacity:1;"/>
<path class="atom-10" d="M 633.8,572.5 L 633.7,572.6 L 633.7,572.7 L 633.7,572.7 L 633.7,572.8 L 633.7,572.8 L 633.7,572.9 L 633.6,572.9 L 633.6,573.0 L 633.6,573.0 L 633.5,573.1 L 633.5,573.1 L 633.4,573.1 L 633.4,573.2 L 633.3,573.2 L 633.3,573.2 L 633.2,573.2 L 633.1,573.2 L 633.1,573.2 L 633.0,573.2 L 633.0,573.2 L 632.9,573.2 L 632.8,573.2 L 632.8,573.2 L 632.7,573.2 L 632.7,573.1 L 632.6,573.1 L 632.6,573.0 L 632.5,573.0 L 632.5,573.0 L 632.5,572.9 L 632.4,572.9 L 632.4,572.8 L 632.4,572.7 L 632.4,572.7 L 632.4,572.6 L 632.4,572.6 L 632.4,572.5 L 632.4,572.5 L 632.4,572.4 L 632.4,572.3 L 632.4,572.3 L 632.4,572.2 L 632.5,572.2 L 632.5,572.1 L 632.5,572.1 L 632.6,572.0 L 632.6,572.0 L 632.7,572.0 L 632.7,571.9 L 632.8,571.9 L 632.8,571.9 L 632.9,571.9 L 633.0,571.9 L 633.0,571.9 L 633.1,571.9 L 633.1,571.9 L 633.2,571.9 L 633.3,571.9 L 633.3,571.9 L 633.4,571.9 L 633.4,572.0 L 633.5,572.0 L 633.5,572.0 L 633.6,572.1 L 633.6,572.1 L 633.6,572.2 L 633.7,572.2 L 633.7,572.3 L 633.7,572.3 L 633.7,572.4 L 633.7,572.4 L 633.7,572.5 L 633.8,572.5 L 633.1,572.5 Z" style="fill:#000000;fill-rule:evenodd;fill-opacity:1;stroke:#000000;stroke-width:0.0px;stroke-linecap:butt;stroke-linejoin:miter;stroke-opacity:1;"/>
<path class="atom-12" d="M 687.2,602.3 L 687.2,602.3 L 687.1,602.4 L 687.1,602.5 L 687.1,602.5 L 687.1,602.6 L 687.1,602.6 L 687.0,602.7 L 687.0,602.7 L 687.0,602.8 L 686.9,602.8 L 686.9,602.8 L 686.8,602.9 L 686.8,602.9 L 686.7,602.9 L 686.7,602.9 L 686.6,603.0 L 686.5,603.0 L 686.5,603.0 L 686.4,603.0 L 686.4,603.0 L 686.3,602.9 L 686.2,602.9 L 686.2,602.9 L 686.1,602.9 L 686.1,602.9 L 686.0,602.8 L 686.0,602.8 L 686.0,602.7 L 685.9,602.7 L 685.9,602.6 L 685.9,602.6 L 685.8,602.5 L 685.8,602.5 L 685.8,602.4 L 685.8,602.4 L 685.8,602.3 L 685.8,602.2 L 685.8,602.2 L 685.8,602.1 L 685.8,602.1 L 685.8,602.0 L 685.9,602.0 L 685.9,601.9 L 685.9,601.9 L 686.0,601.8 L 686.0,601.8 L 686.0,601.7 L 686.1,601.7 L 686.1,601.7 L 686.2,601.6 L 686.2,601.6 L 686.3,601.6 L 686.4,601.6 L 686.4,601.6 L 686.5,601.6 L 686.5,601.6 L 686.6,601.6 L 686.7,601.6 L 686.7,601.6 L 686.8,601.7 L 686.8,601.7 L 686.9,601.7 L 686.9,601.8 L 687.0,601.8 L 687.0,601.8 L 687.0,601.9 L 687.1,601.9 L 687.1,602.0 L 687.1,602.0 L 687.1,602.1 L 687.1,602.2 L 687.2,602.2 L 687.2,602.3 L 686.5,602.3 Z" style="fill:#000000;fill-rule:evenodd;fill-opacity:1;stroke:#000000;stroke-width:0.0px;stroke-linecap:butt;stroke-linejoin:miter;stroke-opacity:1;"/>
<path class="atom-12" d="M 687.2,599.5 L 687.2,599.6 L 687.1,599.6 L 687.1,599.7 L 687.1,599.7 L 687.1,599.8 L 687.1,599.9 L 687.0,599.9 L 687.0,599.9 L 687.0,600.0 L 686.9,600.0 L 686.9,600.1 L 686.8,600.1 L 686.8,600.1 L 686.7,600.2 L 686.7,600.2 L 686.6,600.2 L 686.5,600.2 L 686.5,600.2 L 686.4,600.2 L 686.4,600.2 L 686.3,600.2 L 686.2,600.2 L 686.2,600.1 L 686.1,600.1 L 686.1,600.1 L 686.0,600.1 L 686.0,600.0 L 686.0,600.0 L 685.9,599.9 L 685.9,599.9 L 685.9,599.8 L 685.8,599.8 L 685.8,599.7 L 685.8,599.7 L 685.8,599.6 L 685.8,599.5 L 685.8,599.5 L 685.8,599.4 L 685.8,599.4 L 685.8,599.3 L 685.8,599.3 L 685.9,599.2 L 685.9,599.1 L 685.9,599.1 L 686.0,599.0 L 686.0,599.0 L 686.0,599.0 L 686.1,598.9 L 686.1,598.9 L 686.2,598.9 L 686.2,598.9 L 686.3,598.8 L 686.4,598.8 L 686.4,598.8 L 686.5,598.8 L 686.5,598.8 L 686.6,598.8 L 686.7,598.8 L 686.7,598.9 L 686.8,598.9 L 686.8,598.9 L 686.9,599.0 L 686.9,599.0 L 687.0,599.0 L 687.0,599.1 L 687.0,599.1 L 687.1,599.2 L 687.1,599.2 L 687.1,599.3 L 687.1,599.3 L 687.1,599.4 L 687.2,599.5 L 687.2,599.5 L 686.5,599.5 Z" style="fill:#000000;fill-rule:evenodd;fill-opacity:1;stroke:#000000;stroke-width:0.0px;stroke-linecap:butt;stroke-linejoin:miter;stroke-opacity:1;"/>
<path class="atom-13" d="M 696.7,629.8 L 696.7,629.9 L 696.7,629.9 L 696.7,630.0 L 696.7,630.0 L 696.7,630.1 L 696.6,630.1 L 696.6,630.2 L 696.6,630.2 L 696.5,630.3 L 696.5,630.3 L 696.4,630.4 L 696.4,630.4 L 696.3,630.4 L 696.3,630.4 L 696.2,630.5 L 696.2,630.5 L 696.1,630.5 L 696.0,630.5 L 696.0,630.5 L 695.9,630.5 L 695.9,630.5 L 695.8,630.4 L 695.8,630.4 L 695.7,630.4 L 695.7,630.4 L 695.6,630.3 L 695.6,630.3 L 695.5,630.3 L 695.5,630.2 L 695.4,630.2 L 695.4,630.1 L 695.4,630.1 L 695.4,630.0 L 695.4,629.9 L 695.3,629.9 L 695.3,629.8 L 695.3,629.8 L 695.3,629.7 L 695.4,629.6 L 695.4,629.6 L 695.4,629.5 L 695.4,629.5 L 695.4,629.4 L 695.5,629.4 L 695.5,629.3 L 695.6,629.3 L 695.6,629.3 L 695.7,629.2 L 695.7,629.2 L 695.8,629.2 L 695.8,629.1 L 695.9,629.1 L 695.9,629.1 L 696.0,629.1 L 696.0,629.1 L 696.1,629.1 L 696.2,629.1 L 696.2,629.1 L 696.3,629.1 L 696.3,629.2 L 696.4,629.2 L 696.4,629.2 L 696.5,629.3 L 696.5,629.3 L 696.6,629.4 L 696.6,629.4 L 696.6,629.5 L 696.7,629.5 L 696.7,629.6 L 696.7,629.6 L 696.7,629.7 L 696.7,629.7 L 696.7,629.8 L 696.0,629.8 Z" style="fill:#000000;fill-rule:evenodd;fill-opacity:1;stroke:#000000;stroke-width:0.0px;stroke-linecap:butt;stroke-linejoin:miter;stroke-opacity:1;"/>
</svg>